<?xml version="1.0" standalone="no"?>
<!DOCTYPE svg PUBLIC "-//W3C//DTD SVG 1.1//EN" "http://www.w3.org/Graphics/SVG/1.1/DTD/svg11.dtd" >
<svg xmlns="http://www.w3.org/2000/svg" xmlns:xlink="http://www.w3.org/1999/xlink" version="1.1">
<metadata>
Created by FontForge 20170731 at Sun Apr  1 15:48:08 2018
 By Aleksey,,,
Copyright (c) 2018 by Craft Supply Co.. All rights reserved.
</metadata>
<defs>
<font id="PrestageOutlineItalic" horiz-adv-x="435" >
  <font-face 
    font-family="Prestage Outline Italic"
    font-weight="400"
    font-style="italic"
    font-stretch="normal"
    units-per-em="1000"
    panose-1="0 0 0 0 0 0 0 0 0 0"
    ascent="800"
    descent="-200"
    x-height="700"
    cap-height="700"
    bbox="46.2222 -115 762 897"
    underline-thickness="0"
    underline-position="0"
    unicode-range="U+000D-F002"
  />
<missing-glyph horiz-adv-x="500" 
 />
    <glyph glyph-name=".notdef" horiz-adv-x="500" 
 />
    <glyph glyph-name=".null" horiz-adv-x="0" 
 />
    <glyph glyph-name="nonmarkingreturn" unicode="&#xd;" horiz-adv-x="225" 
 />
    <glyph glyph-name="LF" horiz-adv-x="0" 
 />
    <glyph glyph-name="LF" horiz-adv-x="0" 
 />
    <glyph glyph-name="space" unicode=" " horiz-adv-x="225" 
 />
    <glyph glyph-name="exclam" unicode="!" horiz-adv-x="304" 
d="M158 124h-76l96 547h76zM150 134l93 527h-57l-93 -527h57zM68 97h95l-17 -95h-95zM76 87l-13 -76h76l13 76h-76z" />
    <glyph glyph-name="quotedbl" unicode="&#x22;" horiz-adv-x="416" 
d="M354 629q0 -3 -2 -9h1l-4 -5l-3 -3l-83 -94h-54l50 110l12 70h95zM354 691h-76l-11 -62l-45 -99h37l73 83h-1l7 7q4 4 6 9zM113 703h95l-13 -71q0 -3 -2 -9h1l-4 -5l-3 -3l-83 -94h-54l50 110zM120 694l-11 -62l-45 -99h37l73 83h-1l7 7q4 4 6 9l11 61z" />
    <glyph glyph-name="numbersign" unicode="#" horiz-adv-x="573" 
d="M425 411l-33 -114h85l-11 -65h-92l-49 -170h-65l49 170h-114l-49 -170h-65l49 170h-80l11 65h87l33 114h-85l11 65h92l49 170h65l-49 -170h114l49 170h65l-49 -170h80l-11 -65h-87zM418 421h86l8 46h-81l49 170h-46l-49 -170h-133l49 170h-46l-49 -170h-91l-8 -46h86
l-38 -133h-86l-8 -46h81l-49 -170h46l49 170h133l-49 -170h46l49 170h91l8 46h-86zM239 421h133l-38 -133h-133zM246 411l-33 -114h114l33 114h-114z" />
    <glyph glyph-name="dollar" unicode="$" 
d="M371 646q21 -33 13 -73l-15 -84h-76l15 84q3 21 -13 32q-9 6 -21 6h-18q-13 0 -23 -6q-21 -11 -24 -32l-23 -133q-3 -21 11 -32l94 -77q20 -17 28.5 -41.5t3.5 -52.5l-23 -133q-8 -40 -39 -73q-30 -30 -68 -39l-6 -31h-76l6 31q-35 9 -54 39q-21 33 -13 73l15 84h76
l-15 -84q-3 -21 13 -32q9 -6 21 -6h18q12 0 23 6q21 11 24 32l23 133q3 21 -11 32l-94 77q-20 17 -28.5 41.5t-3.5 52.5l23 133q8 40 39 73q30 30 68 39l6 31h76l-6 -31q35 -9 54 -39zM374 573q7 37 -11 66.5t-53 37.5l-4 1l5 29h-57l-5 -29l-4 -1q-38 -8 -66 -37.5
t-35 -66.5l-23 -133q-5 -26 3 -48.5t26 -37.5l94 -77q18 -15 13 -40l-23 -133q-5 -27 -30 -41q-14 -8 -29 -8h-18q-15 0 -26 8q-20 15 -15 41l13 74h-57l-13 -74q-7 -37 11 -66.5t53 -37.5l4 -1l-5 -29h57l5 29l4 1q38 8 66 37.5t35 66.5l23 133q5 26 -3 48.5t-26 37.5
l-94 77q-18 15 -13 40l23 133q5 27 30 41q14 8 29 8h18q15 0 26 -8q20 -15 15 -41l-13 -74h57z" />
    <glyph glyph-name="percent" unicode="%" horiz-adv-x="589" 
d="M523 689l-381 -700h-77l381 700h77zM507 680h-56l-370 -681h56zM126 335q-38 0 -60 26.5t-15 64.5l21 117q7 38 38 64.5t69 26.5h14q38 0 60 -26.5t15 -64.5l-21 -117q-7 -38 -38 -64.5t-69 -26.5h-14zM61 426q-6 -34 13.5 -58t53.5 -24h14q34 0 62 24t34 58l21 117
q6 34 -13.5 58t-53.5 24h-14q-34 0 -62 -24t-34 -58zM135 387q-17 0 -26.5 11.5t-6.5 28.5l21 117q3 17 16.5 28.5t30.5 11.5h14q17 0 26.5 -11.5t6.5 -28.5l-21 -117q-3 -17 -16.5 -28.5t-30.5 -11.5h-14zM112 426q-2 -12 5 -20.5t19 -8.5h14q12 0 22.5 8.5t12.5 20.5
l21 117q2 12 -5 20.5t-19 8.5h-14q-12 0 -22.5 -8.5t-12.5 -20.5zM452 293q17 0 26.5 -11.5t6.5 -28.5l-21 -117q-3 -17 -16.5 -28.5t-30.5 -11.5h-14q-17 0 -26.5 11.5t-6.5 28.5l21 117q3 17 16.5 28.5t30.5 11.5h14zM475 254q2 12 -5 20.5t-19 8.5h-14q-12 0 -22.5 -8.5
t-12.5 -20.5l-21 -117q-2 -12 5 -20.5t19 -8.5h14q12 0 22.5 8.5t12.5 20.5zM461 345q38 0 60 -26.5t15 -64.5l-21 -117q-7 -38 -38 -64.5t-69 -26.5h-14q-38 0 -60 26.5t-15 64.5l21 117q7 38 38 64.5t69 26.5h14zM526 254q6 34 -13.5 58t-53.5 24h-14q-34 0 -62 -24
t-34 -58l-21 -117q-6 -34 13.5 -58t53.5 -24h14q34 0 62 24t34 58z" />
    <glyph glyph-name="ampersand" unicode="&#x26;" horiz-adv-x="446" 
d="M145 269q4 20 21 34.5t37 14.5h67l-36 -206q-4 -20 -21 -34.5t-37 -14.5h-18q-20 0 -32 14.5t-8 34.5l28 157h-1zM258 309h-57q-17 0 -30.5 -11.5t-16.5 -28.5l-28 -157q-3 -17 6.5 -28.5t26.5 -11.5h18q17 0 30.5 11.5t16.5 28.5zM396 386l-13 -76h-47l-35 -196
q-4 -24 -17 -45t-31.5 -37t-41 -25t-46.5 -9h-18q-24 0 -43.5 9t-32.5 25t-18.5 37t-1.5 45l28 157q8 45 43 77q-25 32 -17 77l28 157q4 24 17 45t31.5 37t41 25t46.5 9h18q24 0 43.5 -9t32.5 -25t18.5 -37t1.5 -45l-15 -84h-76l15 84q3 17 -6.5 28.5t-26.5 11.5h-18
q-17 0 -30.5 -11.5t-16.5 -28.5l-28 -157q-3 -17 6.5 -28.5t26.5 -11.5zM385 376h-171q-20 0 -32 14.5t-8 34.5l28 157q4 20 21 34.5t37 14.5h18q20 0 32 -14.5t8 -34.5l-13 -74h57l13 74q4 22 -1 41t-17 33.5t-29.5 23t-39.5 8.5h-18q-22 0 -42.5 -8.5t-37.5 -23
t-28.5 -33.5t-15.5 -41l-28 -157q-8 -43 17 -74l3 -3l-4 -3q-35 -31 -43 -74l-28 -157q-4 -22 1 -41t17 -33.5t29.5 -23t39.5 -8.5h18q22 0 42.5 8.5t37.5 23t28.5 33.5t15.5 41l36 206h47z" />
    <glyph glyph-name="quotesingle" unicode="'" horiz-adv-x="258" 
d="M198 628q-2 -6 -4 -9h1l-4 -4l-3 -3l-83 -94h-54l50 110l12 70h95zM198 690h-76l-11 -62l-45 -99h37l74 84h-1l6 6q4 4 6 9z" />
    <glyph glyph-name="parenleft" unicode="(" horiz-adv-x="354" 
d="M222 584q-66 -117 -87.5 -240.5t3.5 -240.5l30 -141h-77l-29 138q-25 119 -2.5 245t89.5 245l78 138h77zM125 97q-25 119 -2.5 245t89.5 245l72 128h-56l-74 -132q-66 -117 -87.5 -240.5t3.5 -240.5l28 -131h56l-27 128z" />
    <glyph glyph-name="parenright" unicode=")" horiz-adv-x="353" 
d="M293 596q25 -119 2.5 -245t-89.5 -245l-77 -138h-77l79 141q66 117 87.5 240.5t-3.5 240.5l-30 142h77l29 -138zM200 112q66 117 87.5 240.5t-3.5 240.5l-28 132h-56l27 -128q25 -119 2.5 -245t-89.5 -245l-72 -128h56l74 132z" />
    <glyph glyph-name="asterisk" unicode="*" horiz-adv-x="437" 
d="M282 532l89 -50l-51 -66l-78 60l-12 -107h-77l25 107l-99 -60l-27 66l106 50l-89 50l51 66l78 -60l12 107h77l-26 -107l99 60l27 -66zM260 532l115 54l-20 48l-108 -66l28 117h-56l-13 -117l-85 66l-37 -48l96 -54l-115 -54l20 -48l108 65l-28 -116h56l13 116l85 -65
l37 48z" />
    <glyph glyph-name="plus" unicode="+" horiz-adv-x="510" 
d="M460 369l-13 -71h-163l-29 -163h-71l29 163h-163l13 71h163l29 163h71l-29 -163h163zM448 359h-163l29 163h-52l-29 -163h-163l-9 -52h163l-29 -163h52l29 163h163z" />
    <glyph glyph-name="comma" unicode="," horiz-adv-x="258" 
d="M198 9q-2 -6 -4 -9h1l-4 -4l-3 -3l-83 -94h-54l50 110l12 70h95zM198 71h-76l-11 -62l-45 -99h37l74 84h-1l6 6q4 4 6 9z" />
    <glyph glyph-name="hyphen" unicode="-" horiz-adv-x="341" 
d="M292 377l-14 -77h-228l14 77h228zM280 367h-208l-10 -57h208z" />
    <glyph glyph-name="period" unicode="." horiz-adv-x="212" 
d="M67 91h95l-17 -95h-95zM151 81h-76l-13 -76h76z" />
    <glyph glyph-name="slash" unicode="/" horiz-adv-x="584" 
d="M534 740l-3 -6l-404 -775h-77l3 6l404 775h77zM519 730h-56l-397 -762h56z" />
    <glyph glyph-name="zero" unicode="0" 
d="M356 675q33 -30 30 -76q0 -5 -2 -15l-83 -469q-4 -24 -17 -45t-31.5 -37t-41 -25t-46.5 -9h-18q-39 0 -67 25q-33 30 -30 76q0 5 2 15l83 469q4 24 17 45t31.5 37t41 25t46.5 9h18q39 0 67 -25zM376 598q2 44 -28 70q-25 23 -61 23h-18q-22 0 -42.5 -8.5t-37.5 -23
t-28.5 -33.5t-15.5 -41l-83 -469q-1 -4 -1 -13q-2 -44 28 -70q25 -23 61 -23h18q22 0 42.5 8.5t37.5 23t28.5 33.5t15.5 41l83 469q1 4 1 13zM118 105l174 333l-57 -322q-4 -20 -21 -34.5t-37 -14.5h-18q-17 0 -28 10t-13 26v2zM128 104q2 -12 10.5 -19.5t21.5 -7.5h18
q17 0 30.5 11.5t16.5 28.5l47 264zM277 633q17 0 28 -10t13 -26v-1l-174 -333l57 322q4 20 21 34.5t37 14.5h18v-1zM308 597q-2 12 -10.5 19.5t-21.5 7.5h-18q-17 0 -30.5 -11.5t-16.5 -28.5l-47 -264z" />
    <glyph glyph-name="one" unicode="1" horiz-adv-x="300" 
d="M249 700l-123 -700h-76l110 624h-60l13 76h136zM238 691h-117l-10 -57h60l-110 -624h57z" />
    <glyph glyph-name="two" unicode="2" horiz-adv-x="454" 
d="M307 700q24 0 43.5 -9t32.5 -25t18.5 -37t1.5 -45l-39 -223q-5 -28 -22 -52.5t-43 -41.5l-121 -77q-19 -11 -22 -32l-14 -82h97l9 54h76l-23 -130h-249l28 158q5 28 22 52.5t43 41.5l121 77q19 11 22 32l39 223q3 17 -6.5 28.5t-26.5 11.5h-18q-17 0 -30.5 -11.5
t-16.5 -28.5l-15 -84h-76l15 84q4 24 17 45t31.5 37t41 25t46.5 9h18zM392 585q4 22 -1 41t-17 33.5t-29.5 23t-39.5 8.5h-18q-22 0 -42.5 -8.5t-37.5 -23t-28.5 -33.5t-15.5 -41l-13 -74h57l13 74q4 20 21 34.5t37 14.5h18q20 0 32 -14.5t8 -34.5l-39 -223q-5 -26 -28 -40
l-121 -77q-23 -15 -38.5 -37.5t-20.5 -48.5l-26 -148h230l19 110h-57l-9 -54h-116l16 91q5 26 28 40l121 77q23 15 38.5 37.5t20.5 48.5l39 223z" />
    <glyph glyph-name="three" unicode="3" 
d="M287 698q24 0 43.5 -9t32.5 -25t18.5 -37t1.5 -45l-28 -157q-8 -45 -43 -77q25 -32 17 -77l-28 -157q-4 -24 -17 -45t-31.5 -37t-41 -25t-46.5 -9h-18q-24 0 -43.5 9t-32.5 25t-18.5 37t-1.5 45l15 84h76l-15 -84q-3 -17 6.5 -28.5t26.5 -11.5h18q17 0 30.5 11.5
t16.5 28.5l28 157q3 17 -6.5 28.5t-26.5 11.5h-19l13 76h19q17 0 30.5 11.5t16.5 28.5l28 157q3 17 -6.5 28.5t-26.5 11.5h-18q-17 0 -30.5 -11.5t-16.5 -28.5l-15 -84h-76l15 84q4 24 17 45t31.5 37t41 25t46.5 9h18zM374 583q4 22 -1 41t-17 33.5t-29.5 23t-39.5 8.5h-18
q-22 0 -42.5 -8.5t-37.5 -23t-28.5 -33.5t-15.5 -41l-13 -74h57l13 74q4 20 21 34.5t37 14.5h18q20 0 32 -14.5t8 -34.5l-28 -157q-4 -20 -21 -34.5t-37 -14.5h-9l-10 -57h9q20 0 32 -14.5t8 -34.5l-28 -157q-4 -20 -21 -34.5t-37 -14.5h-18q-20 0 -32 14.5t-8 34.5l13 74
h-57l-13 -74q-4 -22 1 -41t17 -33.5t29.5 -23t39.5 -8.5h18q22 0 42.5 8.5t37.5 23t28.5 33.5t15.5 41l28 157q8 43 -17 74l-3 3l4 3q35 31 43 74l28 157z" />
    <glyph glyph-name="four" unicode="4" horiz-adv-x="436" 
d="M126 198l162 323l-57 -323h-105zM267 460l-126 -252h82zM385 700l-123 -700h-76l23 131h-160l13 72l249 497h74zM374 690h-58l-245 -488l-11 -61h160l-23 -131h57z" />
    <glyph glyph-name="five" unicode="5" horiz-adv-x="454" 
d="M218 624l-18 -103h57q24 0 43.5 -9t32.5 -25t18.5 -37t1.5 -45l-51 -289q-4 -24 -17 -45t-31.5 -37t-41 -25t-46.5 -9h-18q-24 0 -43.5 9t-32.5 25t-18.5 37t-1.5 45l15 84h76l-15 -84q-3 -17 6.5 -28.5t26.5 -11.5h18q17 0 30.5 11.5t16.5 28.5l51 289q3 17 -6.5 28.5
t-26.5 11.5h-134l45 255h249l-13 -76h-173zM211 633h173l10 57h-230l-42 -236h124q20 0 32 -14.5t8 -34.5l-51 -289q-4 -20 -21 -34.5t-37 -14.5h-18q-20 0 -32 14.5t-8 34.5l13 74h-57l-13 -74q-4 -22 1 -41t17 -33.5t29.5 -23t39.5 -8.5h18q22 0 42.5 8.5t37.5 23
t28.5 33.5t15.5 41l51 289q4 22 -1 41t-17 33.5t-29.5 23t-39.5 8.5h-67z" />
    <glyph glyph-name="six" unicode="6" 
d="M287 700q24 0 43.5 -9t32.5 -25t18.5 -37t1.5 -45l-15 -84h-76l15 84q3 17 -6.5 28.5t-26.5 11.5h-18q-17 0 -30.5 -11.5t-16.5 -28.5l-32 -181q20 7 42 7h18q24 0 43.5 -9t32.5 -25t18.5 -37t1.5 -45l-32 -179q-4 -24 -17 -45t-31.5 -37t-41 -25t-46.5 -9h-18
q-24 0 -43.5 9t-32.5 25t-18.5 37t-1.5 45l83 469q4 24 17 45t31.5 37t41 25t46.5 9h18h-1zM373 584q4 22 -1 41t-17 33.5t-29.5 23t-39.5 8.5h-18q-22 0 -42.5 -8.5t-37.5 -23t-28.5 -33.5t-15.5 -41l-83 -469q-4 -22 1 -41t17 -33.5t29.5 -23t39.5 -8.5h18q22 0 42.5 8.5
t37.5 23t28.5 33.5t15.5 41l32 179q4 22 -1 41t-17 33.5t-29.5 23t-39.5 8.5h-18q-23 0 -45 -9l-7 -3l35 196q4 20 21 34.5t37 14.5h18q20 0 32 -14.5t8 -34.5l-13 -74h57zM149 294q4 20 21 34.5t37 14.5h18q20 0 32 -14.5t8 -34.5l-32 -179q-4 -20 -21 -34.5t-37 -14.5h-18
q-20 0 -32 14.5t-8 34.5zM205 334q-17 0 -30.5 -11.5t-16.5 -28.5l-32 -179q-3 -17 6.5 -28.5t26.5 -11.5h18q17 0 30.5 11.5t16.5 28.5l32 179q3 17 -6.5 28.5t-26.5 11.5h-18z" />
    <glyph glyph-name="seven" unicode="7" horiz-adv-x="416" 
d="M366 700l-13 -72v0l-227 -628h-76l226 624h-164l13 76h241zM355 691h-222l-10 -57h166l-226 -624h57l224 619z" />
    <glyph glyph-name="eight" unicode="8" 
d="M288 700q24 0 43.5 -9t32.5 -25t18.5 -37t1.5 -45l-28 -157q-8 -45 -43 -77q25 -32 17 -77l-28 -157q-4 -24 -17 -45t-31.5 -37t-41 -25t-46.5 -9h-18q-24 0 -43.5 9t-32.5 25t-18.5 37t-1.5 45l28 157q8 45 43 77q-25 32 -17 77l28 157q4 24 17 45t31.5 37t41 25t46.5 9
h18zM374 584q4 22 -1 41t-17 33.5t-29.5 23t-39.5 8.5h-18q-22 0 -42.5 -8.5t-37.5 -23t-28.5 -33.5t-15.5 -41l-28 -157q-8 -43 17 -74l3 -3l-4 -3q-35 -31 -43 -74l-28 -157q-4 -22 1 -41t17 -33.5t29.5 -23t39.5 -8.5h18q22 0 42.5 8.5t37.5 23t28.5 33.5t15.5 41l28 157
q8 43 -17 74l-3 3l4 3q35 31 43 74zM277 633q20 0 32 -14.5t8 -34.5l-28 -157q-4 -20 -21 -34.5t-37 -14.5h-18q-20 0 -32 14.5t-8 34.5l28 157q4 20 21 34.5t37 14.5h18zM308 584q3 17 -6.5 28.5t-26.5 11.5h-18q-17 0 -30.5 -11.5t-16.5 -28.5l-28 -157q-3 -17 6.5 -28.5
t26.5 -11.5h18q17 0 30.5 11.5t16.5 28.5zM222 321q20 0 32 -14.5t8 -34.5l-28 -157q-4 -20 -21 -34.5t-37 -14.5h-18q-20 0 -32 14.5t-8 34.5l28 157q4 20 21 34.5t37 14.5h18zM253 272q3 17 -6.5 28.5t-26.5 11.5h-18q-17 0 -30.5 -11.5t-16.5 -28.5l-28 -157
q-3 -17 6.5 -28.5t26.5 -11.5h18q17 0 30.5 11.5t16.5 28.5z" />
    <glyph glyph-name="nine" unicode="9" 
d="M277 634q20 0 32 -14.5t8 -34.5l-32 -179q-4 -20 -21 -34.5t-37 -14.5h-18q-20 0 -32 14.5t-8 34.5l32 179q4 20 21 34.5t37 14.5h18zM308 585q3 17 -6.5 28.5t-26.5 11.5h-18q-17 0 -30.5 -11.5t-16.5 -28.5l-32 -179q-3 -17 6.5 -28.5t26.5 -11.5h18q17 0 30.5 11.5
t16.5 28.5zM290 701q24 0 43.5 -9t32.5 -25t18.5 -37t1.5 -45l-83 -469q-4 -24 -17 -45t-31.5 -37t-41 -25t-46.5 -9h-18q-24 0 -43.5 9t-32.5 25t-18.5 37t-1.5 45l15 84h76l-15 -84q-3 -17 6.5 -28.5t26.5 -11.5h18q17 0 30.5 11.5t16.5 28.5l32 181q-20 -7 -42 -7h-18
q-24 0 -43.5 9t-32.5 25t-18.5 37t-1.5 45l32 179q4 24 17 45t31.5 37t41 25t46.5 9h18h1zM376 585q4 22 -1 41t-17 33.5t-29.5 23t-39.5 8.5h-18q-22 0 -42.5 -8.5t-37.5 -23t-28.5 -33.5t-15.5 -41l-32 -179q-4 -22 1 -41t17 -33.5t29.5 -23t39.5 -8.5h18q22 0 45 9l7 3
l-35 -196q-4 -20 -21 -34.5t-37 -14.5h-18q-20 0 -32 14.5t-8 34.5l13 74h-57l-13 -74q-4 -22 1 -41t17 -33.5t29.5 -23t39.5 -8.5h18q22 0 42.5 8.5t37.5 23t28.5 33.5t15.5 41z" />
    <glyph glyph-name="colon" unicode=":" horiz-adv-x="268" 
d="M218 548l-17 -95h-95l17 95h95zM206 538h-76l-13 -76h76zM66 231h95l-17 -95h-95zM74 221l-13 -76h76l13 76h-76z" />
    <glyph glyph-name="semicolon" unicode=";" horiz-adv-x="313" 
d="M115 229h95l-13 -71q-2 -6 -4 -9h1l-4 -4l-3 -3l-83 -94h-54l50 110zM198 220h-76l-11 -62l-45 -99h37l74 84h-1l6 6q4 4 6 9l11 61zM265 546l-17 -95h-95l17 95h95zM253 536h-76l-13 -76h76z" />
    <glyph glyph-name="less" unicode="&#x3c;" horiz-adv-x="332" 
d="M135 334l82 -185h-85l-82 185l147 185h85zM123 334l139 175h-62l-139 -175l78 -175h62z" />
    <glyph glyph-name="equal" unicode="=" horiz-adv-x="526" 
d="M476 477l-13 -71h-384l13 71h384zM464 467h-364l-9 -52h364zM62 309h384l-13 -71h-384zM70 299l-9 -52h364l9 52h-364z" />
    <glyph glyph-name="greater" unicode="&#x3e;" horiz-adv-x="332" 
d="M282 330l-147 -185h-85l147 185l-82 185h85zM270 330l-78 175h-62l78 -175l-139 -175h62z" />
    <glyph glyph-name="question" unicode="?" horiz-adv-x="397" 
d="M67 96h95l-17 -95h-95zM75 86l-13 -76h76l13 76h-76zM250 670q24 0 43.5 -9t32.5 -25t18.5 -37t1.5 -45l-34 -193q-5 -28 -22 -52.5t-43 -41.5l-50 -30q-19 -11 -22 -32l-14 -82h-76l14 82q5 28 22 52.5t43 41.5l50 30q19 11 22 32l34 193q3 17 -6.5 28.5t-26.5 11.5h-18
q-17 0 -30.5 -11.5t-16.5 -28.5l-15 -84h-76l15 84q4 24 17 45t31.5 37t41 25t46.5 9h18zM335 554q4 22 -1 41t-17 33.5t-29.5 23t-39.5 8.5h-18q-22 0 -42.5 -8.5t-37.5 -23t-28.5 -33.5t-15.5 -41l-13 -74h57l13 74q4 20 21 34.5t37 14.5h18q20 0 32 -14.5t8 -34.5
l-34 -193q-5 -26 -28 -40l-50 -30q-23 -15 -38.5 -37.5t-20.5 -48.5l-13 -72h57l13 72q5 26 28 40l50 30q23 15 38.5 37.5t20.5 48.5l34 193h-1z" />
    <glyph glyph-name="at" unicode="@" horiz-adv-x="612" 
d="M343 528q14 0 22.5 -10t6.5 -24l-54 -307q-2 -14 -14 -24t-26 -10h-12q-14 0 -22.5 10t-6.5 24l54 307q2 14 14 24t26 10h12zM361 494q2 10 -4 17t-16 7h-12q-10 0 -18 -7t-10 -17l-54 -307q-2 -10 4 -17t16 -7h12q10 0 18 7t10 17zM484 667q19 0 34.5 -7t26 -19.5
t14.5 -29.5t1 -36l-66 -375q-3 -19 -13.5 -36t-25.5 -29.5t-33 -19.5t-37 -7q-36 0 -57 23q-26 -23 -59 -23h-12q-32 0 -51 23t-13 55l54 307q6 32 33 55t59 23h12q14 0 23 -4l1 7h55l-66 -373q-3 -15 6 -26t24 -11t28 11t16 26l65 366q3 19 -8 32.5t-30 13.5h-226
q-19 0 -34.5 -13.5t-18.5 -32.5l-79 -447q-3 -15 6 -26t24 -11h272l-10 -55h-272q-19 0 -34.5 7t-26 19.5t-14.5 29.5t-1 36l80 456q3 19 13.5 36t25.5 29.5t33 19.5t37 7h244v-1zM550 570q6 35 -13.5 59t-53.5 24h-244q-34 0 -62.5 -24t-34.5 -58l-80 -456q-6 -34 13.5 -58
t53.5 -24h262l6 36h-262q-20 0 -31 13.5t-7 33.5l79 447q4 23 23 39.5t42 16.5h226q23 0 37 -16.5t10 -39.5l-64 -366q-4 -20 -20 -33.5t-36 -13.5t-31 13.5t-7 33.5l64 363h-36l-2 -11l-6 3q-12 6 -26 6h-12q-28 0 -51.5 -19.5t-28.5 -47.5l-54 -307q-5 -28 11 -47.5
t44 -19.5h12q30 0 56 24l4 4l3 -4q20 -23 54 -23t62 24t34 58l66 375v-5z" />
    <glyph glyph-name="A" unicode="A" horiz-adv-x="424" 
d="M375 700l-2 -700h-76v137h-123l-48 -137h-76l245 700h80zM365 691h-63l-239 -681h57l48 137h139v-137h57zM188 204l120 342l-1 -342h-119zM298 490l-97 -276h96z" />
    <glyph glyph-name="B" unicode="B" horiz-adv-x="454" 
d="M241 322q20 0 32 -14.5t8 -34.5l-28 -157q-4 -20 -21 -34.5t-37 -14.5h-67l45 255h67h1zM272 272q3 17 -6.5 28.5t-26.5 11.5h-58l-42 -236h58q17 0 30.5 11.5t16.5 28.5l28 157v-1zM307 700q24 0 43.5 -9t32.5 -25t18.5 -37t1.5 -45l-28 -157q-8 -45 -43 -77
q25 -32 17 -77l-28 -157q-4 -24 -17 -45t-31.5 -37t-41 -25t-46.5 -9h-133l123 700h133h-1zM393 585q4 22 -1 41t-17 33.5t-29.5 23t-39.5 8.5h-124l-120 -681h124q22 0 42.5 8.5t37.5 23t28.5 33.5t15.5 41l28 157q8 43 -17 74l-3 3l4 3q35 31 43 74l28 157v1zM297 634
q20 0 32 -14.5t8 -34.5l-28 -157q-4 -20 -21 -34.5t-37 -14.5h-67l45 255h67h1zM329 584q3 17 -6.5 28.5t-26.5 11.5h-58l-42 -236h57q17 0 30.5 11.5t16.5 28.5l28 157z" />
    <glyph glyph-name="C" unicode="C" 
d="M288 700q24 0 43.5 -9t32.5 -25t18.5 -37t1.5 -45l-15 -84h-76l15 84q3 17 -6.5 28.5t-26.5 11.5h-18q-17 0 -30.5 -11.5t-16.5 -28.5l-83 -469q-3 -17 6.5 -28.5t26.5 -11.5h18q17 0 30.5 11.5t16.5 28.5l15 84h76l-15 -84q-4 -24 -17 -45t-31.5 -37t-41 -25t-46.5 -9
h-18q-24 0 -43.5 9t-32.5 25t-18.5 37t-1.5 45l83 469q4 24 17 45t31.5 37t41 25t46.5 9h18zM374 584q4 22 -1 41t-17 33.5t-29.5 23t-39.5 8.5h-18q-22 0 -42.5 -8.5t-37.5 -23t-28.5 -33.5t-15.5 -41l-83 -469q-4 -22 1 -41t17 -33.5t29.5 -23t39.5 -8.5h18q22 0 42.5 8.5
t37.5 23t28.5 33.5t15.5 41l13 74h-57l-13 -74q-4 -20 -21 -34.5t-37 -14.5h-18q-20 0 -32 14.5t-8 34.5l83 469q4 20 21 34.5t37 14.5h18q20 0 32 -14.5t8 -34.5l-13 -74h57z" />
    <glyph glyph-name="D" unicode="D" horiz-adv-x="454" 
d="M296 634q20 0 32 -14.5t8 -34.5l-83 -469q-4 -20 -21 -34.5t-37 -14.5h-67l100 567h67h1zM327 584q3 17 -6.5 28.5t-26.5 11.5h-58l-97 -548h58q17 0 30.5 11.5t16.5 28.5l83 469v-1zM308 701q24 0 43.5 -9t32.5 -25t18.5 -37t1.5 -45l-83 -469q-4 -24 -17 -45t-31.5 -37
t-41 -25t-46.5 -9h-133l123 700h133v1zM394 585q4 22 -1 41t-17 33.5t-29.5 23t-39.5 8.5h-124l-120 -681h124q22 0 42.5 8.5t37.5 23t28.5 33.5t15.5 41z" />
    <glyph glyph-name="E" unicode="E" horiz-adv-x="465" 
d="M401 624h-165l-42 -236h133l-13 -76h-133l-42 -236h165l-13 -76h-241l123 700h241zM228 633h165l10 57h-222l-120 -681h222l10 57h-165l45 255h133l10 57h-133z" />
    <glyph glyph-name="F" unicode="F" horiz-adv-x="465" 
d="M401 624h-165l-42 -236h133l-13 -76h-133l-55 -312h-76l123 700h241zM228 633h165l10 57h-222l-120 -681h57l55 312h133l10 57h-133z" />
    <glyph glyph-name="G" unicode="G" 
d="M288 700q24 0 43.5 -9t32.5 -25t18.5 -37t1.5 -45l-15 -84h-76l15 84q3 17 -6.5 28.5t-26.5 11.5h-18q-17 0 -30.5 -11.5t-16.5 -28.5l-83 -469q-3 -17 6.5 -28.5t26.5 -11.5h18q17 0 30.5 11.5t16.5 28.5l23 130h-58l13 76h134l-36 -206q-4 -24 -17 -45t-31.5 -37
t-41 -25t-46.5 -9h-18q-24 0 -43.5 9t-32.5 25t-18.5 37t-1.5 45l83 469q4 24 17 45t31.5 37t41 25t46.5 9h18zM373 585q4 22 -1 41t-17 33.5t-29.5 23t-39.5 8.5h-18q-22 0 -42.5 -8.5t-37.5 -23t-28.5 -33.5t-15.5 -41l-83 -469q-4 -22 1 -41t17 -33.5t29.5 -23t39.5 -8.5
h18q22 0 42.5 8.5t37.5 23t28.5 33.5t15.5 41l35 196h-114l-10 -57h58l-25 -140q-4 -20 -21 -34.5t-37 -14.5h-18q-20 0 -32 14.5t-8 34.5l83 469q4 20 21 34.5t37 14.5h18q20 0 32 -14.5t8 -34.5l-13 -74h57l13 74z" />
    <glyph glyph-name="H" unicode="H" horiz-adv-x="473" 
d="M423 700l-123 -700h-76l55 312h-97l-55 -312h-76l123 700h76l-55 -312h97l55 312h76zM412 691h-57l-55 -312h-116l55 312h-57l-120 -681h57l55 312h116l-55 -312h57z" />
    <glyph glyph-name="I" unicode="I" horiz-adv-x="300" 
d="M249 700l-123 -700h-76l123 700h76zM238 691h-57l-120 -681h57z" />
    <glyph glyph-name="J" unicode="J" horiz-adv-x="454" 
d="M404 700l-103 -584q-4 -24 -17 -45t-31.5 -37t-41 -25t-46.5 -9h-18q-24 0 -43.5 9t-32.5 25t-18.5 37t-1.5 45l15 84h76l-15 -84q-3 -17 6.5 -28.5t26.5 -11.5h18q17 0 30.5 11.5t16.5 28.5l90 508h-77l13 76h153zM393 691h-134l-10 -57h77l-91 -518q-4 -20 -21 -34.5
t-37 -14.5h-18q-20 0 -32 14.5t-8 34.5l13 74h-57l-13 -74q-4 -22 1 -41t17 -33.5t29.5 -23t39.5 -8.5h18q22 0 42.5 8.5t37.5 23t28.5 33.5t15.5 41z" />
    <glyph glyph-name="K" unicode="K" horiz-adv-x="475" 
d="M240 350l61 -350h-77l-49 280l-49 -280h-76l123 700h76l-49 -280l148 280h77zM230 351l179 340h-56l-173 -328l58 328h-57l-120 -681h57l58 328l57 -328h56z" />
    <glyph glyph-name="L" unicode="L" horiz-adv-x="355" 
d="M305 76l-13 -76h-241l123 700h76l-110 -624h165zM294 67h-165l110 624h-57l-120 -681h222z" />
    <glyph glyph-name="M" unicode="M" horiz-adv-x="540" 
d="M491 700l-123 -700h-76l75 423l-74 -162h-74l-17 162l-75 -423h-76l123 700h75l31 -298l136 298h75zM480 691h-58l-148 -324l-34 324h-58l-120 -681h57l85 484l23 -223h59l102 223l-85 -484h57z" />
    <glyph glyph-name="N" unicode="N" horiz-adv-x="506" 
d="M456 700l-123 -700h-75l-54 440l-78 -440h-76l123 700h75l54 -440l78 440h76zM445 691h-57l-88 -496l-61 496h-58l-120 -681h57l88 496l61 -496h58z" />
    <glyph glyph-name="O" unicode="O" 
d="M288 700q24 0 43.5 -9t32.5 -25t18.5 -37t1.5 -45l-83 -469q-4 -24 -17 -45t-31.5 -37t-41 -25t-46.5 -9h-18q-24 0 -43.5 9t-32.5 25t-18.5 37t-1.5 45l83 469q4 24 17 45t31.5 37t41 25t46.5 9h18zM374 584q4 22 -1 41t-17 33.5t-29.5 23t-39.5 8.5h-18
q-22 0 -42.5 -8.5t-37.5 -23t-28.5 -33.5t-15.5 -41l-83 -469q-4 -22 1 -41t17 -33.5t29.5 -23t39.5 -8.5h18q22 0 42.5 8.5t37.5 23t28.5 33.5t15.5 41zM277 633q20 0 32 -14.5t8 -34.5l-83 -469q-4 -20 -21 -34.5t-37 -14.5h-18q-20 0 -32 14.5t-8 34.5l83 469
q4 20 21 34.5t37 14.5h18zM308 584q3 17 -6.5 28.5t-26.5 11.5h-18q-17 0 -30.5 -11.5t-16.5 -28.5l-83 -469q-3 -17 6.5 -28.5t26.5 -11.5h18q17 0 30.5 11.5t16.5 28.5z" />
    <glyph glyph-name="P" unicode="P" horiz-adv-x="454" 
d="M306 700q24 0 43.5 -9t32.5 -25t18.5 -37t1.5 -45l-41 -234q-4 -24 -17 -45t-31.5 -37t-41 -25t-46.5 -9h-57l-41 -234h-76l123 700h133h-1zM393 585q4 22 -1 41t-17 33.5t-29.5 23t-39.5 8.5h-124l-120 -681h57l41 234h67q22 0 42.5 8.5t37.5 23t28.5 33.5t15.5 41
l41 234zM296 634q20 0 32 -14.5t8 -34.5l-41 -235q-4 -20 -21 -34.5t-37 -14.5h-67l59 333h67zM327 584q3 17 -6.5 28.5t-26.5 11.5h-58l-55 -314h58q17 0 30.5 11.5t16.5 28.5l41 235v-1z" />
    <glyph glyph-name="Q" unicode="Q" 
d="M273 53l-6 -6v-2l36 -88h-77l-25 46h-3q-15 -4 -32 -4h-18q-24 0 -43.5 9t-32.5 25t-18.5 37t-1.5 45l83 469q4 24 17 45t31.5 37t41 25t46.5 9h18q24 0 43.5 -9t32.5 -25t18.5 -37t1.5 -45l-83 -469q-6 -33 -29 -60v-2zM254 45l3 3l3 3l6 6q21 27 25 56l83 469
q4 22 -1 41t-17 33.5t-29.5 23t-39.5 8.5h-18q-22 0 -42.5 -8.5t-37.5 -23t-28.5 -33.5t-15.5 -41l-83 -469q-4 -22 1 -41t17 -33.5t29.5 -23t39.5 -8.5h18q16 0 29 4l6 3l4 1l26 -48h55zM274 631q20 0 32 -14.5t8 -34.5l-83 -469q-5 -31 -34 -44q-10 -4 -15 -5h-4h-3h-18
q-20 0 -32 14.5t-8 34.5l83 469q4 20 21 34.5t37 14.5h18h-2zM305 582q3 17 -6.5 28.5t-26.5 11.5h-18q-17 0 -30.5 -11.5t-16.5 -28.5l-83 -469q-3 -17 6.5 -28.5t26.5 -11.5h18h3h3q8 2 12 4q24 11 29 36z" />
    <glyph glyph-name="R" unicode="R" horiz-adv-x="454" 
d="M308 699q24 0 43.5 -9t32.5 -25t18.5 -37t1.5 -45l-41 -234q-4 -22 -15 -41.5t-27.5 -34.5t-37 -25t-42.5 -13l62 -235h-85l-54 207l-37 -207h-76l123 700h133zM393 584q4 22 -1 41t-17 33.5t-29.5 23t-39.5 8.5h-124l-120 -681h57l43 244l64 -244h64l-62 234h7
q21 1 40.5 10t35.5 23.5t27 33t15 39.5l41 234zM296 633q20 0 32 -14.5t8 -34.5l-41 -235q-4 -20 -21 -34.5t-37 -14.5h-67l59 333h67zM327 583q3 17 -6.5 28.5t-26.5 11.5h-58l-55 -314h58q17 0 30.5 11.5t16.5 28.5l41 235v-1z" />
    <glyph glyph-name="S" unicode="S" 
d="M288 700q24 0 43.5 -9t32.5 -25t18.5 -37t1.5 -45l-15 -84h-76l15 84q3 17 -6.5 28.5t-26.5 11.5h-18q-17 0 -30.5 -11.5t-16.5 -28.5l-23 -133q-3 -21 11 -32l94 -77q20 -17 28.5 -41.5t3.5 -52.5l-23 -133q-4 -24 -17 -45t-31.5 -37t-41 -25t-46.5 -9h-18
q-24 0 -43.5 9t-32.5 25t-18.5 37t-1.5 45l15 84h76l-15 -84q-3 -17 6.5 -28.5t26.5 -11.5h18q17 0 30.5 11.5t16.5 28.5l23 133q3 21 -11 32l-94 77q-20 17 -28.5 41.5t-3.5 52.5l23 133q4 24 17 45t31.5 37t41 25t46.5 9h18zM374 584q4 22 -1 41t-17 33.5t-29.5 23
t-39.5 8.5h-18q-22 0 -42.5 -8.5t-37.5 -23t-28.5 -33.5t-15.5 -41l-23 -133q-5 -26 3 -48.5t26 -37.5l94 -77q18 -15 13 -40l-23 -133q-4 -20 -21 -34.5t-37 -14.5h-18q-20 0 -32 14.5t-8 34.5l13 74h-57l-13 -74q-4 -22 1 -41t17 -33.5t29.5 -23t39.5 -8.5h18
q22 0 42.5 8.5t37.5 23t28.5 33.5t15.5 41l23 133q5 26 -3 48.5t-26 37.5l-94 77q-18 15 -13 40l23 133q4 20 21 34.5t37 14.5h18q20 0 32 -14.5t8 -34.5l-13 -74h57z" />
    <glyph glyph-name="T" unicode="T" horiz-adv-x="418" 
d="M367 700l-13 -76h-114l-110 -624h-76l110 624h-114l13 76h304zM357 691h-286l-10 -57h114l-110 -624h57l110 624h114z" />
    <glyph glyph-name="U" unicode="U" horiz-adv-x="454" 
d="M404 700l-103 -584q-4 -24 -17 -45t-31.5 -37t-41 -25t-46.5 -9h-18q-24 0 -43.5 9t-32.5 25t-18.5 37t-1.5 45l103 584h76l-103 -584q-3 -17 6.5 -28.5t26.5 -11.5h18q17 0 30.5 11.5t16.5 28.5l103 584h76zM393 691h-57l-101 -575q-4 -20 -21 -34.5t-37 -14.5h-18
q-20 0 -32 14.5t-8 34.5l101 575h-57l-101 -575q-4 -22 1 -41t17 -33.5t29.5 -23t39.5 -8.5h18q22 0 42.5 8.5t37.5 23t28.5 33.5t15.5 41z" />
    <glyph glyph-name="V" unicode="V" horiz-adv-x="424" 
d="M374 700l-245 -700h-79l2 700h76l-1 -489l171 489h76zM362 691h-57l-188 -536l1 536h-57l-2 -681h63z" />
    <glyph glyph-name="W" unicode="W" horiz-adv-x="537" 
d="M485 700l-245 -700h-79v95l-33 -95h-79l2 700h76l-1 -489l38 108h75v-108l171 489h75zM472 691h-57l-188 -536v155h-58l-54 -155l1 536h-57l-2 -681h63l50 142v-142h63z" />
    <glyph glyph-name="X" unicode="X" horiz-adv-x="513" 
d="M305 350l34 -350h-81l-21 244l-107 -244h-81l158 350l-34 350h81l21 -244l107 244h81zM295 350l1 1l153 339h-60l-120 -273l-24 273h-60l33 -340l-1 -1l-153 -339h60l120 273l24 -273h60z" />
    <glyph glyph-name="Y" unicode="Y" horiz-adv-x="406" 
d="M356 700l-175 -389l-55 -311h-76l55 311l-38 389h81l21 -244l107 244h80zM341 690h-60l-120 -273l-24 273h-60l37 -378l-53 -303h57l53 303v1z" />
    <glyph glyph-name="Z" unicode="Z" horiz-adv-x="473" 
d="M422 700l-13 -72v-1l-268 -551h171l-13 -76h-249l13 72v1l268 551h-171l13 76h249zM411 690h-230l-10 -57h175l-274 -563l-11 -61h230l10 57h-175l274 563z" />
    <glyph glyph-name="bracketleft" unicode="[" horiz-adv-x="392" 
d="M341 731l-13 -76h-81l-108 -612h81l-13 -76h-157l135 765zM330 721h-138l-131 -745h138l10 57h-81l111 632h81z" />
    <glyph glyph-name="backslash" unicode="\" horiz-adv-x="308" 
d="M259 -45h-77l-132 781h77zM190 -35h56l-128 762h-56z" />
    <glyph glyph-name="bracketright" unicode="]" horiz-adv-x="392" 
d="M343 725l-135 -765h-157l13 76h81l108 612h-81l13 76zM331 716h-138l-10 -57h81l-111 -632h-81l-10 -57h138z" />
    <glyph glyph-name="asciicircum" unicode="^" horiz-adv-x="324" 
d="M49 545l140 159l84 -159h-79l-24 46l-41 -46h-80zM185 687l-116 -132h56l47 53l28 -53h56z" />
    <glyph glyph-name="underscore" unicode="_" horiz-adv-x="578" 
d="M529 71l-13 -71h-466l13 71h466zM517 61h-446l-9 -52h446z" />
    <glyph glyph-name="grave" unicode="`" horiz-adv-x="244" 
d="M49 698h98l47 -136h-77zM139 688h-74l58 -116h56z" />
    <glyph glyph-name="a" unicode="a" horiz-adv-x="424" 
d="M375 700l-2 -700h-76v137h-123l-48 -137h-76l245 700h80zM365 691h-63l-239 -681h57l48 137h139v-137h57zM188 204l120 342l-1 -342h-119zM298 490l-97 -276h96z" />
    <glyph glyph-name="b" unicode="b" horiz-adv-x="454" 
d="M241 322q20 0 32 -14.5t8 -34.5l-28 -157q-4 -20 -21 -34.5t-37 -14.5h-67l45 255h67h1zM272 272q3 17 -6.5 28.5t-26.5 11.5h-58l-42 -236h58q17 0 30.5 11.5t16.5 28.5l28 157v-1zM307 700q24 0 43.5 -9t32.5 -25t18.5 -37t1.5 -45l-28 -157q-8 -45 -43 -77
q25 -32 17 -77l-28 -157q-4 -24 -17 -45t-31.5 -37t-41 -25t-46.5 -9h-133l123 700h133h-1zM393 585q4 22 -1 41t-17 33.5t-29.5 23t-39.5 8.5h-124l-120 -681h124q22 0 42.5 8.5t37.5 23t28.5 33.5t15.5 41l28 157q8 43 -17 74l-3 3l4 3q35 31 43 74l28 157v1zM297 634
q20 0 32 -14.5t8 -34.5l-28 -157q-4 -20 -21 -34.5t-37 -14.5h-67l45 255h67h1zM329 584q3 17 -6.5 28.5t-26.5 11.5h-58l-42 -236h57q17 0 30.5 11.5t16.5 28.5l28 157z" />
    <glyph glyph-name="c" unicode="c" 
d="M288 700q24 0 43.5 -9t32.5 -25t18.5 -37t1.5 -45l-15 -84h-76l15 84q3 17 -6.5 28.5t-26.5 11.5h-18q-17 0 -30.5 -11.5t-16.5 -28.5l-83 -469q-3 -17 6.5 -28.5t26.5 -11.5h18q17 0 30.5 11.5t16.5 28.5l15 84h76l-15 -84q-4 -24 -17 -45t-31.5 -37t-41 -25t-46.5 -9
h-18q-24 0 -43.5 9t-32.5 25t-18.5 37t-1.5 45l83 469q4 24 17 45t31.5 37t41 25t46.5 9h18zM374 584q4 22 -1 41t-17 33.5t-29.5 23t-39.5 8.5h-18q-22 0 -42.5 -8.5t-37.5 -23t-28.5 -33.5t-15.5 -41l-83 -469q-4 -22 1 -41t17 -33.5t29.5 -23t39.5 -8.5h18q22 0 42.5 8.5
t37.5 23t28.5 33.5t15.5 41l13 74h-57l-13 -74q-4 -20 -21 -34.5t-37 -14.5h-18q-20 0 -32 14.5t-8 34.5l83 469q4 20 21 34.5t37 14.5h18q20 0 32 -14.5t8 -34.5l-13 -74h57z" />
    <glyph glyph-name="d" unicode="d" horiz-adv-x="454" 
d="M296 634q20 0 32 -14.5t8 -34.5l-83 -469q-4 -20 -21 -34.5t-37 -14.5h-67l100 567h67h1zM327 584q3 17 -6.5 28.5t-26.5 11.5h-58l-97 -548h58q17 0 30.5 11.5t16.5 28.5l83 469v-1zM308 701q24 0 43.5 -9t32.5 -25t18.5 -37t1.5 -45l-83 -469q-4 -24 -17 -45t-31.5 -37
t-41 -25t-46.5 -9h-133l123 700h133v1zM394 585q4 22 -1 41t-17 33.5t-29.5 23t-39.5 8.5h-124l-120 -681h124q22 0 42.5 8.5t37.5 23t28.5 33.5t15.5 41z" />
    <glyph glyph-name="e" unicode="e" horiz-adv-x="465" 
d="M401 624h-165l-42 -236h133l-13 -76h-133l-42 -236h165l-13 -76h-241l123 700h241zM228 633h165l10 57h-222l-120 -681h222l10 57h-165l45 255h133l10 57h-133z" />
    <glyph glyph-name="f" unicode="f" horiz-adv-x="465" 
d="M401 624h-165l-42 -236h133l-13 -76h-133l-55 -312h-76l123 700h241zM228 633h165l10 57h-222l-120 -681h57l55 312h133l10 57h-133z" />
    <glyph glyph-name="g" unicode="g" 
d="M288 700q24 0 43.5 -9t32.5 -25t18.5 -37t1.5 -45l-15 -84h-76l15 84q3 17 -6.5 28.5t-26.5 11.5h-18q-17 0 -30.5 -11.5t-16.5 -28.5l-83 -469q-3 -17 6.5 -28.5t26.5 -11.5h18q17 0 30.5 11.5t16.5 28.5l23 130h-58l13 76h134l-36 -206q-4 -24 -17 -45t-31.5 -37
t-41 -25t-46.5 -9h-18q-24 0 -43.5 9t-32.5 25t-18.5 37t-1.5 45l83 469q4 24 17 45t31.5 37t41 25t46.5 9h18zM373 585q4 22 -1 41t-17 33.5t-29.5 23t-39.5 8.5h-18q-22 0 -42.5 -8.5t-37.5 -23t-28.5 -33.5t-15.5 -41l-83 -469q-4 -22 1 -41t17 -33.5t29.5 -23t39.5 -8.5
h18q22 0 42.5 8.5t37.5 23t28.5 33.5t15.5 41l35 196h-114l-10 -57h58l-25 -140q-4 -20 -21 -34.5t-37 -14.5h-18q-20 0 -32 14.5t-8 34.5l83 469q4 20 21 34.5t37 14.5h18q20 0 32 -14.5t8 -34.5l-13 -74h57l13 74z" />
    <glyph glyph-name="h" unicode="h" horiz-adv-x="473" 
d="M423 700l-123 -700h-76l55 312h-97l-55 -312h-76l123 700h76l-55 -312h97l55 312h76zM412 691h-57l-55 -312h-116l55 312h-57l-120 -681h57l55 312h116l-55 -312h57z" />
    <glyph glyph-name="i" unicode="i" horiz-adv-x="300" 
d="M249 700l-123 -700h-76l123 700h76zM238 691h-57l-120 -681h57z" />
    <glyph glyph-name="j" unicode="j" horiz-adv-x="454" 
d="M404 700l-103 -584q-4 -24 -17 -45t-31.5 -37t-41 -25t-46.5 -9h-18q-24 0 -43.5 9t-32.5 25t-18.5 37t-1.5 45l15 84h76l-15 -84q-3 -17 6.5 -28.5t26.5 -11.5h18q17 0 30.5 11.5t16.5 28.5l90 508h-77l13 76h153zM393 691h-134l-10 -57h77l-91 -518q-4 -20 -21 -34.5
t-37 -14.5h-18q-20 0 -32 14.5t-8 34.5l13 74h-57l-13 -74q-4 -22 1 -41t17 -33.5t29.5 -23t39.5 -8.5h18q22 0 42.5 8.5t37.5 23t28.5 33.5t15.5 41z" />
    <glyph glyph-name="k" unicode="k" horiz-adv-x="475" 
d="M240 350l61 -350h-77l-49 280l-49 -280h-76l123 700h76l-49 -280l148 280h77zM230 351l179 340h-56l-173 -328l58 328h-57l-120 -681h57l58 328l57 -328h56z" />
    <glyph glyph-name="l" unicode="l" horiz-adv-x="355" 
d="M305 76l-13 -76h-241l123 700h76l-110 -624h165zM294 67h-165l110 624h-57l-120 -681h222z" />
    <glyph glyph-name="m" unicode="m" horiz-adv-x="540" 
d="M491 700l-123 -700h-76l75 423l-74 -162h-74l-17 162l-75 -423h-76l123 700h75l31 -298l136 298h75zM480 691h-58l-148 -324l-34 324h-58l-120 -681h57l85 484l23 -223h59l102 223l-85 -484h57z" />
    <glyph glyph-name="n" unicode="n" horiz-adv-x="506" 
d="M456 700l-123 -700h-75l-54 440l-78 -440h-76l123 700h75l54 -440l78 440h76zM445 691h-57l-88 -496l-61 496h-58l-120 -681h57l88 496l61 -496h58z" />
    <glyph glyph-name="o" unicode="o" 
d="M288 700q24 0 43.5 -9t32.5 -25t18.5 -37t1.5 -45l-83 -469q-4 -24 -17 -45t-31.5 -37t-41 -25t-46.5 -9h-18q-24 0 -43.5 9t-32.5 25t-18.5 37t-1.5 45l83 469q4 24 17 45t31.5 37t41 25t46.5 9h18zM374 584q4 22 -1 41t-17 33.5t-29.5 23t-39.5 8.5h-18
q-22 0 -42.5 -8.5t-37.5 -23t-28.5 -33.5t-15.5 -41l-83 -469q-4 -22 1 -41t17 -33.5t29.5 -23t39.5 -8.5h18q22 0 42.5 8.5t37.5 23t28.5 33.5t15.5 41zM277 633q20 0 32 -14.5t8 -34.5l-83 -469q-4 -20 -21 -34.5t-37 -14.5h-18q-20 0 -32 14.5t-8 34.5l83 469
q4 20 21 34.5t37 14.5h18zM308 584q3 17 -6.5 28.5t-26.5 11.5h-18q-17 0 -30.5 -11.5t-16.5 -28.5l-83 -469q-3 -17 6.5 -28.5t26.5 -11.5h18q17 0 30.5 11.5t16.5 28.5z" />
    <glyph glyph-name="p" unicode="p" horiz-adv-x="454" 
d="M306 700q24 0 43.5 -9t32.5 -25t18.5 -37t1.5 -45l-41 -234q-4 -24 -17 -45t-31.5 -37t-41 -25t-46.5 -9h-57l-41 -234h-76l123 700h133h-1zM393 585q4 22 -1 41t-17 33.5t-29.5 23t-39.5 8.5h-124l-120 -681h57l41 234h67q22 0 42.5 8.5t37.5 23t28.5 33.5t15.5 41
l41 234zM296 634q20 0 32 -14.5t8 -34.5l-41 -235q-4 -20 -21 -34.5t-37 -14.5h-67l59 333h67zM327 584q3 17 -6.5 28.5t-26.5 11.5h-58l-55 -314h58q17 0 30.5 11.5t16.5 28.5l41 235v-1z" />
    <glyph glyph-name="q" unicode="q" 
d="M273 53l-6 -6v-2l36 -88h-77l-25 46h-3q-15 -4 -32 -4h-18q-24 0 -43.5 9t-32.5 25t-18.5 37t-1.5 45l83 469q4 24 17 45t31.5 37t41 25t46.5 9h18q24 0 43.5 -9t32.5 -25t18.5 -37t1.5 -45l-83 -469q-6 -33 -29 -60v-2zM254 45l3 3l3 3l6 6q21 27 25 56l83 469
q4 22 -1 41t-17 33.5t-29.5 23t-39.5 8.5h-18q-22 0 -42.5 -8.5t-37.5 -23t-28.5 -33.5t-15.5 -41l-83 -469q-4 -22 1 -41t17 -33.5t29.5 -23t39.5 -8.5h18q16 0 29 4l6 3l4 1l26 -48h55zM274 631q20 0 32 -14.5t8 -34.5l-83 -469q-5 -31 -34 -44q-10 -4 -15 -5h-4h-3h-18
q-20 0 -32 14.5t-8 34.5l83 469q4 20 21 34.5t37 14.5h18h-2zM305 582q3 17 -6.5 28.5t-26.5 11.5h-18q-17 0 -30.5 -11.5t-16.5 -28.5l-83 -469q-3 -17 6.5 -28.5t26.5 -11.5h18h3h3q8 2 12 4q24 11 29 36z" />
    <glyph glyph-name="r" unicode="r" horiz-adv-x="454" 
d="M308 699q24 0 43.5 -9t32.5 -25t18.5 -37t1.5 -45l-41 -234q-4 -22 -15 -41.5t-27.5 -34.5t-37 -25t-42.5 -13l62 -235h-85l-54 207l-37 -207h-76l123 700h133zM393 584q4 22 -1 41t-17 33.5t-29.5 23t-39.5 8.5h-124l-120 -681h57l43 244l64 -244h64l-62 234h7
q21 1 40.5 10t35.5 23.5t27 33t15 39.5l41 234zM296 633q20 0 32 -14.5t8 -34.5l-41 -235q-4 -20 -21 -34.5t-37 -14.5h-67l59 333h67zM327 583q3 17 -6.5 28.5t-26.5 11.5h-58l-55 -314h58q17 0 30.5 11.5t16.5 28.5l41 235v-1z" />
    <glyph glyph-name="s" unicode="s" 
d="M288 700q24 0 43.5 -9t32.5 -25t18.5 -37t1.5 -45l-15 -84h-76l15 84q3 17 -6.5 28.5t-26.5 11.5h-18q-17 0 -30.5 -11.5t-16.5 -28.5l-23 -133q-3 -21 11 -32l94 -77q20 -17 28.5 -41.5t3.5 -52.5l-23 -133q-4 -24 -17 -45t-31.5 -37t-41 -25t-46.5 -9h-18
q-24 0 -43.5 9t-32.5 25t-18.5 37t-1.5 45l15 84h76l-15 -84q-3 -17 6.5 -28.5t26.5 -11.5h18q17 0 30.5 11.5t16.5 28.5l23 133q3 21 -11 32l-94 77q-20 17 -28.5 41.5t-3.5 52.5l23 133q4 24 17 45t31.5 37t41 25t46.5 9h18zM374 584q4 22 -1 41t-17 33.5t-29.5 23
t-39.5 8.5h-18q-22 0 -42.5 -8.5t-37.5 -23t-28.5 -33.5t-15.5 -41l-23 -133q-5 -26 3 -48.5t26 -37.5l94 -77q18 -15 13 -40l-23 -133q-4 -20 -21 -34.5t-37 -14.5h-18q-20 0 -32 14.5t-8 34.5l13 74h-57l-13 -74q-4 -22 1 -41t17 -33.5t29.5 -23t39.5 -8.5h18
q22 0 42.5 8.5t37.5 23t28.5 33.5t15.5 41l23 133q5 26 -3 48.5t-26 37.5l-94 77q-18 15 -13 40l23 133q4 20 21 34.5t37 14.5h18q20 0 32 -14.5t8 -34.5l-13 -74h57z" />
    <glyph glyph-name="s" unicode="&#xdf;" 
d="M288 700q24 0 43.5 -9t32.5 -25t18.5 -37t1.5 -45l-15 -84h-76l15 84q3 17 -6.5 28.5t-26.5 11.5h-18q-17 0 -30.5 -11.5t-16.5 -28.5l-23 -133q-3 -21 11 -32l94 -77q20 -17 28.5 -41.5t3.5 -52.5l-23 -133q-4 -24 -17 -45t-31.5 -37t-41 -25t-46.5 -9h-18
q-24 0 -43.5 9t-32.5 25t-18.5 37t-1.5 45l15 84h76l-15 -84q-3 -17 6.5 -28.5t26.5 -11.5h18q17 0 30.5 11.5t16.5 28.5l23 133q3 21 -11 32l-94 77q-20 17 -28.5 41.5t-3.5 52.5l23 133q4 24 17 45t31.5 37t41 25t46.5 9h18zM374 584q4 22 -1 41t-17 33.5t-29.5 23
t-39.5 8.5h-18q-22 0 -42.5 -8.5t-37.5 -23t-28.5 -33.5t-15.5 -41l-23 -133q-5 -26 3 -48.5t26 -37.5l94 -77q18 -15 13 -40l-23 -133q-4 -20 -21 -34.5t-37 -14.5h-18q-20 0 -32 14.5t-8 34.5l13 74h-57l-13 -74q-4 -22 1 -41t17 -33.5t29.5 -23t39.5 -8.5h18
q22 0 42.5 8.5t37.5 23t28.5 33.5t15.5 41l23 133q5 26 -3 48.5t-26 37.5l-94 77q-18 15 -13 40l23 133q4 20 21 34.5t37 14.5h18q20 0 32 -14.5t8 -34.5l-13 -74h57z" />
    <glyph glyph-name="t" unicode="t" horiz-adv-x="418" 
d="M367 700l-13 -76h-114l-110 -624h-76l110 624h-114l13 76h304zM357 691h-286l-10 -57h114l-110 -624h57l110 624h114z" />
    <glyph glyph-name="u" unicode="u" horiz-adv-x="454" 
d="M404 700l-103 -584q-4 -24 -17 -45t-31.5 -37t-41 -25t-46.5 -9h-18q-24 0 -43.5 9t-32.5 25t-18.5 37t-1.5 45l103 584h76l-103 -584q-3 -17 6.5 -28.5t26.5 -11.5h18q17 0 30.5 11.5t16.5 28.5l103 584h76zM393 691h-57l-101 -575q-4 -20 -21 -34.5t-37 -14.5h-18
q-20 0 -32 14.5t-8 34.5l101 575h-57l-101 -575q-4 -22 1 -41t17 -33.5t29.5 -23t39.5 -8.5h18q22 0 42.5 8.5t37.5 23t28.5 33.5t15.5 41z" />
    <glyph glyph-name="v" unicode="v" horiz-adv-x="424" 
d="M374 700l-245 -700h-79l2 700h76l-1 -489l171 489h76zM362 691h-57l-188 -536l1 536h-57l-2 -681h63z" />
    <glyph glyph-name="w" unicode="w" horiz-adv-x="537" 
d="M485 700l-245 -700h-79v95l-33 -95h-79l2 700h76l-1 -489l38 108h75v-108l171 489h75zM472 691h-57l-188 -536v155h-58l-54 -155l1 536h-57l-2 -681h63l50 142v-142h63z" />
    <glyph glyph-name="x" unicode="x" horiz-adv-x="513" 
d="M305 350l34 -350h-81l-21 244l-107 -244h-81l158 350l-34 350h81l21 -244l107 244h81zM295 350l1 1l153 339h-60l-120 -273l-24 273h-60l33 -340l-1 -1l-153 -339h60l120 273l24 -273h60z" />
    <glyph glyph-name="y" unicode="y" horiz-adv-x="406" 
d="M356 700l-175 -389l-55 -311h-76l55 311l-38 389h81l21 -244l107 244h80zM341 690h-60l-120 -273l-24 273h-60l37 -378l-53 -303h57l53 303v1z" />
    <glyph glyph-name="z" unicode="z" horiz-adv-x="473" 
d="M422 700l-13 -72v-1l-268 -551h171l-13 -76h-249l13 72v1l268 551h-171l13 76h249zM411 690h-230l-10 -57h175l-274 -563l-11 -61h230l10 57h-175l274 563z" />
    <glyph glyph-name="braceleft" unicode="{" horiz-adv-x="353" 
d="M303 730l-14 -76h-5q-17 0 -30.5 -11.5t-16.5 -28.5l-33 -189q-8 -45 -43 -77q25 -32 17 -77l-33 -189q-3 -17 6.5 -28.5t26.5 -11.5h5l-13 -76h-5q-24 0 -43.5 9t-32.5 25t-18.5 37t-1.5 45l33 189q3 17 -6.5 28.5t-26.5 11.5h-19l13 76h19q17 0 30.5 11.5t16.5 28.5
l33 189q4 24 17 45t31.5 37t41 25t46.5 9zM291 723q-21 -1 -41 -10t-36.5 -23.5t-27.5 -33.5t-15 -40l-33 -189q-4 -20 -21 -34.5t-37 -14.5h-9l-10 -57h9q20 0 32 -14.5t8 -34.5l-33 -189q-4 -21 0.5 -40t16 -33.5t28.5 -23.5t38 -10l10 57q-18 2 -28.5 15.5t-6.5 33.5
l33 189q8 43 -17 74l-3 3l4 3q35 31 43 74l33 189q4 20 19 33.5t34 15.5z" />
    <glyph glyph-name="bar" unicode="|" horiz-adv-x="317" 
d="M267 752l-141 -798h-76l141 798h76zM255 742h-57l-137 -779h57z" />
    <glyph glyph-name="braceright" unicode="}" horiz-adv-x="353" 
d="M303 389l-13 -76h-19q-17 0 -30.5 -11.5t-16.5 -28.5l-33 -189q-4 -24 -17 -45t-31.5 -37t-41 -25t-46.5 -9h-5l14 76h5q17 0 30.5 11.5t16.5 28.5l33 189q8 45 43 77q-25 32 -17 77l33 189q3 17 -6.5 28.5t-26.5 11.5h-5l13 76h5q24 0 43.5 -9t32.5 -25t18.5 -37
t1.5 -45l-33 -189q-3 -17 6.5 -28.5t26.5 -11.5zM290 375h-9q-20 0 -32 14.5t-8 34.5l33 189q4 21 -1 40t-16 33.5t-28 23.5t-38 10l-10 -57q18 -2 28.5 -15.5t7.5 -32.5l-33 -189q-8 -43 17 -74l3 -3l-4 -3q-35 -31 -43 -74l-33 -189q-3 -19 -18 -32.5t-34 -15.5l-10 -57
q21 1 41 10t36.5 23.5t27.5 33.5t15 40l33 189q4 20 21 34.5t37 14.5h9z" />
    <glyph glyph-name="asciitilde" unicode="~" horiz-adv-x="401" 
d="M67 284l-17 52l31 18q31 17 64 20.5t62 -8.5l21 -9q17 -7 36 -5t37 12l32 18l18 -52l-31 -18q-31 -17 -64 -20.5t-62 8.5l-21 9q-17 7 -36 5t-37 -12zM61 333l12 -35l22 12q20 11 41.5 13.5t39.5 -5.5l21 -9q26 -11 57 -8.5t60 19.5l23 13l-12 35l-22 -12
q-20 -11 -41.5 -13.5t-39.5 5.5l-21 9q-26 11 -57 8.5t-60 -19.5z" />
    <glyph glyph-name="nonbreakingspace" unicode="&#xa0;" horiz-adv-x="225" 
 />
    <glyph glyph-name="exclamdown" unicode="&#xa1;" horiz-adv-x="304" 
d="M146 544h76l-96 -547h-76zM154 534l-93 -527h57l93 527h-57zM253 666l-17 -95h-95l17 95h95zM241 656h-76l-13 -76h76z" />
    <glyph glyph-name="cent" unicode="&#xa2;" horiz-adv-x="404" 
d="M339 558q21 -33 13 -73l-15 -84h-76l15 84q3 21 -13 32q-9 6 -21 6h-18q-13 0 -23 -6q-21 -11 -24 -32l-51 -292q-3 -21 13 -32q9 -6 21 -6h18q12 0 23 6q21 11 24 32l15 84h76l-15 -84q-8 -40 -39 -73q-30 -30 -68 -39l-8 -48h-76l8 48q-35 9 -54 39q-21 33 -13 73
l51 291q8 40 39 73q30 30 68 39l8 48h76l-8 -48q35 -9 54 -39v1zM342 484q7 37 -11 66.5t-53 37.5l-4 1l8 46h-57l-8 -46l-4 -1q-38 -8 -66 -37.5t-35 -66.5l-51 -291q-7 -37 11 -66.5t53 -37.5l4 -1l-8 -46h57l8 46l4 1q38 8 66 37.5t35 66.5l13 74h-57l-13 -74
q-5 -27 -30 -41q-14 -8 -29 -8h-18q-15 0 -26 8q-20 15 -15 41l51 292q5 27 30 41q14 8 29 8h18q15 0 26 -8q20 -15 15 -41l-13 -74h57l13 74v-1z" />
    <glyph glyph-name="sterling" unicode="&#xa3;" horiz-adv-x="479" 
d="M333 645q24 0 43.5 -9t32.5 -25t18.5 -37t1.5 -45l-15 -84h-76l15 84q3 17 -6.5 28.5t-26.5 11.5h-18q-17 0 -30.5 -11.5t-16.5 -28.5l-35 -198h90l-13 -76h-90l-34 -190h173l-13 -76h-283l13 76h33l34 190h-33l13 76h33l35 197q4 24 17 45t31.5 37t41 25t46.5 9h18z
M418 529q4 22 -1 41t-17 33.5t-29.5 23t-39.5 8.5h-18q-22 0 -42.5 -8.5t-37.5 -23t-28.5 -33.5t-15.5 -41l-37 -207h-33l-10 -57h33l-37 -209h-33l-10 -57h263l10 57h-173l37 209h90l10 57h-90l37 207q4 20 21 34.5t37 14.5h18q20 0 32 -14.5t8 -34.5l-13 -74h57l13 74h-1z
" />
    <glyph glyph-name="yen" unicode="&#xa5;" horiz-adv-x="494" 
d="M264 280h105l-11 -64h-105l-11 -61h105l-11 -64h-105l-18 -102h-76l18 102h-105l11 64h105l11 61h-105l11 64h105l3 20l-38 389h81l21 -244l107 244h81l-175 -389zM253 270l5 31v1l170 377h-60l-120 -273l-24 273h-60l37 -378l-5 -31h-105l-8 -45h105l-14 -80h-105
l-8 -45h105l-18 -102h57l18 102h105l8 45h-105l14 80h105l8 45h-105z" />
    <glyph glyph-name="section" unicode="&#xa7;" horiz-adv-x="453" 
d="M175 428q8 -14 19 -24l83 -68q16 -13 13 -35l-8 -44l-7 13q-8 14 -19 24l-83 68q-17 13 -12 35l8 44l7 -13h-1zM280 300q3 17 -10 27l-83 68q-9 7 -14 15l-2 -14q-3 -17 10 -27l83 -68q9 -7 14 -15zM315 698q21 0 38 -8t28.5 -22t16.5 -32.5t1 -39.5l-13 -74h-68l13 74
q2 14 -6.5 24t-22.5 10h-16q-23 0 -36 -21q-4 -8 -5 -13l-21 -117q-3 -17 10 -27l83 -68q18 -14 26 -36t3 -47l-21 -117q-5 -25 -19.5 -47t-37.5 -36q-4 -21 -15 -39.5t-27.5 -32.5t-36.5 -22t-41 -8h-16q-21 0 -38 8t-28.5 22t-16.5 32.5t-1 39.5l13 74h68l-13 -74
q-2 -14 6.5 -24t22.5 -10h16q23 0 36 21q5 6 6 13l21 117q3 17 -10 27l-83 68q-18 14 -26 36t-3 47l21 117q5 25 19.5 47t37.5 36q4 21 15 39.5t27.5 32.5t36.5 22t41 8h16h-1zM389 596q3 19 -1 36t-14.5 29.5t-26 20t-34.5 7.5h-16q-19 0 -37 -7.5t-33 -20t-25.5 -29.5
t-13.5 -36l-1 -5l-2 -1q-21 -13 -35 -33t-18 -43l-21 -117q-4 -23 3 -42.5t23 -32.5l83 -68q16 -13 13 -35l-21 -117q-2 -10 -6 -17q-8 -12 -20 -19.5t-26 -7.5h-16q-18 0 -28.5 13t-7.5 31l11 65h-49l-11 -65q-3 -19 1 -36t14.5 -29.5t26 -20t34.5 -7.5h16q19 0 37 7.5
t33 20t25.5 29.5t13.5 36l1 5l2 1q21 13 35 33t18 43l21 117q4 23 -3 42.5t-23 32.5l-83 68q-17 13 -12 35l21 117q2 10 6 17q8 12 20 19.5t26 7.5h16q18 0 28.5 -13t7.5 -31l-11 -65h49l11 65h-1z" />
    <glyph glyph-name="dieresis" unicode="&#xa8;" horiz-adv-x="416" 
d="M67 698h95l-17 -95h-95zM75 688l-13 -76h76l13 76h-76zM366 698l-17 -95h-95l17 95h95zM354 688h-76l-13 -76h76z" />
    <glyph glyph-name="copyright" unicode="&#xa9;" horiz-adv-x="676" 
d="M388 636q58 0 106 -22.5t79.5 -60.5t44.5 -90t3 -110q-11 -59 -42.5 -110.5t-76.5 -89.5t-101 -60.5t-114 -22.5q-59 0 -106.5 22.5t-79 60.5t-45 89.5t-2.5 110.5q10 58 42 110t77 90t100.5 60.5t114.5 22.5zM612 353q10 57 -2.5 106.5t-43 87t-76.5 59t-103 21.5
t-110.5 -21.5t-97 -59t-74 -87t-40.5 -106.5t2.5 -106.5t43 -87t76.5 -59t103 -21.5t110.5 21.5t97 59t74 87t40.5 106.5zM382 598q51 0 92 -19.5t68.5 -52.5t39 -77.5t2.5 -95.5t-36 -95.5t-66 -77.5t-87 -52.5t-99 -19.5t-92 19.5t-68.5 52.5t-39 77.5t-2.5 95.5t36 95.5
t66 77.5t87 52.5t99 19.5zM574 353q9 49 -2 92t-37.5 75t-66 50.5t-88.5 18.5t-95 -18.5t-83.5 -50.5t-63.5 -75t-35 -92t2 -92t37.5 -75t66 -50.5t88.5 -18.5t95 18.5t83.5 50.5t63.5 75t35 92zM379 551q28 0 44 -19.5t11 -47.5l-9 -49h-47l9 49q2 8 -3 14t-13 6h-10
q-8 0 -15 -6t-9 -14l-46 -263q-2 -8 3 -14t13 -6h10q8 0 15 6t9 14l9 49h47l-9 -49q-5 -28 -28 -47.5t-51 -19.5h-10q-28 0 -44 19.5t-11 47.5l46 263q5 28 28 47.5t51 19.5h10zM425 484q5 24 -9 41t-38 17h-10q-24 0 -43.5 -17t-24.5 -41l-46 -263q-5 -24 9 -41t38 -17h10
q24 0 43.5 17t24.5 41l7 39h-28l-7 -39q-2 -12 -12.5 -20.5t-22.5 -8.5h-10q-12 0 -19 8.5t-5 20.5l46 263q2 12 12.5 20.5t22.5 8.5h10q12 0 19 -8.5t5 -20.5l-7 -39h28z" />
    <glyph glyph-name="guillemotleft" unicode="&#xab;" horiz-adv-x="504" 
d="M307 337l82 -185h-85l-82 185l147 185h85zM295 337l139 175h-62l-139 -175l78 -175h62zM134 337l82 -185h-85l-82 185l147 185h85zM122 337l139 175h-62l-139 -175l78 -175h62z" />
    <glyph glyph-name="registered" unicode="&#xae;" 
d="M247 699q34 0 62 -13t46.5 -35.5t26 -52.5t1.5 -64t-24.5 -64t-44.5 -52.5t-58.5 -35.5t-66.5 -13t-62 13t-46.5 35.5t-26 52.5t-1.5 64t24.5 64t44.5 52.5t58.5 35.5t66.5 13zM373 534q6 32 -1.5 60.5t-24.5 49.5t-43.5 33.5t-58.5 12.5t-62.5 -12.5t-55.5 -33.5
t-42 -49.5t-23 -60.5t1.5 -60.5t24.5 -49.5t43.5 -33.5t58.5 -12.5t62.5 12.5t55.5 33.5t42 49.5t23 60.5zM243 677q30 0 54 -11t40 -30.5t22.5 -45.5t1.5 -56t-21 -56t-38.5 -45.5t-50.5 -30.5t-58 -11t-54 11t-40 30.5t-22.5 45.5t-1.5 56t21 56t38.5 45.5t50.5 30.5
t58 11zM351 534q5 27 -1 51.5t-21 42.5t-37.5 28.5t-49.5 10.5t-53 -10.5t-47.5 -28.5t-36 -42.5t-19.5 -51.5t1 -51.5t21 -42.5t37.5 -28.5t49.5 -10.5t53 10.5t47.5 28.5t36 42.5t19.5 51.5zM237 635q15 0 23.5 -10.5t6.5 -25.5l-11 -65q-2 -12 -11.5 -21.5t-21.5 -12.5
l18 -66h-31l-12 44l-8 -44h-28l35 201h41h-1zM258 599q2 11 -4 18.5t-17 7.5h-31l-32 -182h9l30 173h22q7 0 11 -5t2 -12l-11 -65q-2 -7 -7.5 -12t-12.5 -5h-19l19 -74h10l-17 65h7q11 1 19 8t10 18l11 65h1zM219 528q7 0 9 7l11 65q2 7 -6 7h-12l-14 -80z" />
    <glyph glyph-name="degree" unicode="&#xb0;" horiz-adv-x="269" 
d="M149 696q35 0 55 -24t14 -59t-34.5 -59t-63.5 -24t-55 24t-14 59t34.5 59t63.5 24zM208 613q5 30 -12.5 51.5t-47.5 21.5t-55.5 -21.5t-30.5 -51.5t12.5 -51.5t47.5 -21.5t55.5 21.5t30.5 51.5zM144 664q21 0 33.5 -15t8.5 -36t-21.5 -36t-38.5 -15t-33.5 15t-8.5 36
t21.5 36t38.5 15zM176 613q3 17 -7 29.5t-27 12.5t-31.5 -12.5t-17.5 -29.5t7 -29.5t27 -12.5t31.5 12.5t17.5 29.5z" />
    <glyph glyph-name="unib2" unicode="&#xb2;" horiz-adv-x="295" 
d="M190 688q26 0 42 -19t11 -45l-21 -120q-6 -34 -37 -53l-65 -41q-9 -6 -11 -16l-7 -41h48l5 29h45l-13 -74h-138l15 87q6 34 37 53l65 41q9 6 11 16l21 120q2 8 -2.5 13t-12.5 5h-10q-8 0 -14 -5t-8 -13l-8 -47h-45l8 47q5 26 27 45t48 19h10zM232 623q4 23 -9 38.5
t-36 15.5h-10q-23 0 -41.5 -15.5t-22.5 -38.5l-7 -37h26l7 38q2 12 12 20.5t22 8.5h10q12 0 19 -8.5t5 -20.5l-21 -120q-3 -15 -16 -23l-65 -41q-26 -16 -31 -45l-14 -77h119l10 55h-26l-5 -29h-67l9 51q3 15 16 23l65 41q26 16 31 45l21 120z" />
    <glyph glyph-name="unib3" unicode="&#xb3;" horiz-adv-x="284" 
d="M179 692q26 0 42 -19t11 -45l-15 -84q-5 -24 -23 -42q13 -19 8 -42l-15 -84q-5 -26 -27 -45t-48 -19h-10q-26 0 -42 19t-11 45l8 47h45l-8 -47q-2 -8 2.5 -13t12.5 -5h10q8 0 14 5t8 13l15 84q2 8 -2.5 13t-12.5 5h-12l8 45h12q8 0 14.5 5t8.5 13l15 84q2 8 -2.5 13
t-12.5 5h-10q-8 0 -14 -5t-8 -13l-8 -47h-45l8 47q5 26 27 45t48 19h10zM222 628q4 23 -9 38.5t-36 15.5h-10q-23 0 -41.5 -15.5t-22.5 -38.5l-7 -37h26l7 38q2 12 12 20.5t22 8.5h10q12 0 19 -8.5t5 -20.5l-15 -84q-2 -12 -12 -20.5t-22 -8.5h-3l-5 -26h2q12 0 19 -8.5
t5 -20.5l-15 -84q-2 -12 -12 -20.5t-22 -8.5h-10q-12 0 -19 8.5t-5 20.5l7 38h-26l-7 -37q-4 -23 9 -38.5t36 -15.5h10q23 0 41.5 15.5t22.5 38.5l15 84q5 22 -8 38l-3 3l4 3q18 15 23 38z" />
    <glyph glyph-name="acute" unicode="&#xb4;" horiz-adv-x="292" 
d="M50 562l94 136h98l-115 -136h-77zM68 572h56l99 116h-74z" />
    <glyph glyph-name="periodcentered" unicode="&#xb7;" horiz-adv-x="212" 
d="M162 400l-17 -95h-95l17 95h95zM150 390h-76l-13 -76h76z" />
    <glyph glyph-name="cedilla" unicode="&#xb8;" horiz-adv-x="221" 
d="M93 -56l-1 -5q-1 -6 2.5 -10.5t9.5 -4.5h8q6 0 11 4.5t6 10.5l3 17q1 7 -4 12l-18 13q-20 16 -15 43l1 5h39l-1 -5q-1 -7 4 -12l18 -13q20 -16 15 -43l-3 -17q-4 -23 -22.5 -38.5t-41.5 -15.5h-8q-23 0 -36 15.5t-9 38.5l1 5h41zM101 -84q-20 0 -20 19h-20q-1 -17 10 -28
t28 -11h8q18 0 33 13t18 31l3 17q5 22 -12 35l-18 13q-7 7 -7 15h-20q-2 -19 13 -30l18 -13q10 -8 8 -20l-3 -17q-2 -11 -10 -18t-19 -7h-8z" />
    <glyph glyph-name="unib9" unicode="&#xb9;" horiz-adv-x="212" 
d="M162 690l-67 -380h-45l59 334h-32l8 45zM151 680h-58l-5 -26h32l-59 -334h26z" />
    <glyph glyph-name="guillemotright" unicode="&#xbb;" horiz-adv-x="504" 
d="M282 334l-147 -185h-85l147 185l-82 185h85zM270 334l-78 175h-62l78 -175l-139 -175h62zM454 334l-147 -185h-85l147 185l-82 185h85zM442 334l-78 175h-62l78 -175l-139 -175h62z" />
    <glyph glyph-name="questiondown" unicode="&#xbf;" horiz-adv-x="397" 
d="M347 670l-17 -95h-95l17 95h95zM335 660h-76l-13 -76h76zM239 200h76l-15 -84q-4 -24 -17 -45t-31.5 -37t-41 -25t-46.5 -9h-18q-24 0 -43.5 9t-32.5 25t-18.5 37t-1.5 45l34 193q5 28 22 52.5t43 41.5l50 30q19 11 22 32l14 82h76l-14 -82q-5 -28 -22 -52.5t-43 -41.5
l-50 -30q-19 -11 -22 -32l-34 -193q-3 -17 6.5 -28.5t26.5 -11.5h18q17 0 30.5 11.5t16.5 28.5zM248 190l-13 -74q-4 -20 -21 -34.5t-37 -14.5h-18q-20 0 -32 14.5t-8 34.5l34 193q5 26 28 40l50 30q23 15 38.5 37.5t20.5 48.5l13 72h-57l-13 -72q-5 -26 -28 -40l-50 -30
q-23 -15 -38.5 -37.5t-20.5 -48.5l-34 -193q-4 -22 1 -41t17 -33.5t29.5 -23t39.5 -8.5h18q22 0 42.5 8.5t37.5 23t28.5 33.5t15.5 41l13 74h-56z" />
    <glyph glyph-name="Agrave" unicode="&#xc0;" horiz-adv-x="444" 
d="M316 745l-67 136h98l47 -136h-78zM265 871l58 -116h56l-40 116h-74zM306 204h-119l120 342zM297 490l-97 -276h96zM295 701h79l-2 -700h-76v137h-123l-48 -137h-76zM300 691l-239 -681h57l48 137h139v-137h57l2 681h-64z" />
    <glyph glyph-name="Aacute" unicode="&#xc1;" horiz-adv-x="534" 
d="M369 745h-77l94 136h98zM367 755l98 116h-74l-81 -116h57zM308 204h-119l120 342zM299 490l-97 -276h96zM297 701h79l-2 -700h-76v137h-123l-48 -137h-76zM302 691l-239 -681h57l48 137h139v-137h57l2 681h-64z" />
    <glyph glyph-name="Acircumflex" unicode="&#xc2;" horiz-adv-x="504" 
d="M307 204h-119l120 342zM298 490l-97 -276h96zM296 701h79l-2 -700h-76v137h-123l-48 -137h-76zM301 691l-239 -681h57l48 137h139v-137h57l2 681h-64zM452 736h-79l-24 46l-41 -46h-79l140 159zM379 746h55l-70 132l-116 -132h56l47 53z" />
    <glyph glyph-name="Atilde" unicode="&#xc3;" horiz-adv-x="553" 
d="M307 204h-119l120 342zM298 490l-97 -276h96zM296 701h79l-2 -700h-76v137h-123l-48 -137h-76zM301 691l-239 -681h57l48 137h139v-137h57l2 681h-64zM501 795l-31 -18q-31 -17 -64 -20.5t-62 8.5l-21 9q-17 7 -36 5t-37 -12l-32 -18l-17 52l31 18q31 17 64 20.5t62 -8.5
l21 -9q17 -7 36 -5t37 12l32 18zM489 799l-12 35l-22 -12q-20 -11 -41.5 -13.5t-39.5 5.5l-21 9q-26 11 -57 8.5t-60 -19.5l-23 -13l12 -35l22 12q20 11 41.5 13.5t39.5 -5.5l21 -9q26 -11 57 -8.5t60 19.5z" />
    <glyph glyph-name="Adieresis" unicode="&#xc4;" horiz-adv-x="563" 
d="M307 204h-119l120 342zM298 490l-97 -276h96zM292 766h-95l17 95h95zM284 776l13 76h-76l-13 -76h76zM513 862l-17 -95h-95l17 95h95zM501 852h-76l-13 -76h76zM295 701h79l-2 -700h-76v137h-123l-48 -137h-76zM300 691l-239 -681h57l48 137h139v-137h57l2 681h-64z" />
    <glyph glyph-name="Aring" unicode="&#xc5;" horiz-adv-x="489" 
d="M307 204h-119l120 342zM298 490l-97 -276h96zM364 865q21 0 33.5 -15t8.5 -36t-21.5 -36t-38.5 -15t-33.5 15t-8.5 36t21.5 36t38.5 15zM396 814q3 17 -7 29.5t-27 12.5t-31.5 -12.5t-17.5 -29.5t7 -29.5t27 -12.5t31.5 12.5t17.5 29.5zM369 897q35 0 55 -24t14 -59
t-34.5 -59t-63.5 -24t-55 24t-14 59t34.5 59t63.5 24zM428 814q5 30 -12.5 51.5t-47.5 21.5t-55.5 -21.5t-30.5 -51.5t12.5 -51.5t47.5 -21.5t55.5 21.5t30.5 51.5zM296 701h79l-2 -700h-76v137h-123l-48 -137h-76zM301 691l-239 -681h57l48 137h139v-137h57l2 681h-64z" />
    <glyph glyph-name="AE" unicode="&#xc6;" horiz-adv-x="710" 
d="M647 624h-165l-42 -236h133l-13 -76h-133l-42 -236h165l-13 -76h-241l24 137h-121l-72 -137h-77l369 700h241zM475 633h165l10 57h-225l-359 -681h56l72 137h137l-24 -137h222l10 57h-165l45 255h133l10 57h-133zM225 203l177 335l-59 -335h-118zM381 481l-141 -268h94z
" />
    <glyph glyph-name="Ccedilla" unicode="&#xc7;" 
d="M289 701q24 0 43.5 -9t32.5 -25t18.5 -37t1.5 -45l-15 -84h-76l15 84q3 17 -6.5 28.5t-26.5 11.5h-18q-17 0 -30.5 -11.5t-16.5 -28.5l-83 -469q-3 -17 6.5 -28.5t26.5 -11.5h18q17 0 30.5 11.5t16.5 28.5l15 84h76l-15 -84q-6 -39 -35 -69q-26 -28 -60 -40q7 -13 4 -31
l-3 -17q-4 -23 -22.5 -38.5t-41.5 -15.5h-8q-23 0 -36 15.5t-9 38.5l1 5h39l-1 -5q-1 -6 2.5 -10.5t9.5 -4.5h8q6 0 11 4.5t6 10.5l3 17q1 7 -4 12l-15 11h-4q-24 0 -43.5 9t-32.5 25t-18.5 37t-1.5 45l83 469q4 24 17 45t31.5 37t41 25t46.5 9h18zM373 585q4 22 -1 41
t-17 33.5t-29.5 23t-39.5 8.5h-18q-22 0 -42.5 -8.5t-37.5 -23t-28.5 -33.5t-15.5 -41l-83 -469q-4 -22 1 -41t17 -33.5t29.5 -23t39.5 -8.5h7l17 -13q10 -8 8 -20l-3 -17q-2 -11 -10 -18t-19 -7h-8q-20 0 -20 19h-20q-1 -17 10 -28t28 -11h8q18 0 33 13t18 31l3 17
q3 18 -6 30l-4 6l8 2q35 10 61.5 38.5t32.5 63.5l13 74h-57l-13 -74q-4 -20 -21 -34.5t-37 -14.5h-18q-20 0 -32 14.5t-8 34.5l83 469q4 20 21 34.5t37 14.5h18q20 0 32 -14.5t8 -34.5l-13 -74h57l13 74h-2z" />
    <glyph glyph-name="Egrave" unicode="&#xc8;" horiz-adv-x="465" 
d="M401 624h-165l-42 -236h133l-13 -76h-133l-42 -236h165l-13 -76h-241l123 700h241zM228 633h165l10 57h-222l-120 -681h222l10 57h-165l45 255h133l10 57h-133zM287 745l-67 136h98l47 -136h-78zM236 871l58 -116h56l-40 116h-74z" />
    <glyph glyph-name="Eacute" unicode="&#xc9;" horiz-adv-x="481" 
d="M173 700h241l-13 -76h-165l-42 -236h133l-13 -76h-133l-42 -236h165l-13 -76h-241zM403 690h-222l-120 -681h222l10 57h-165l45 255h133l10 57h-133l45 255h165zM316 744h-77l94 136h98zM314 754l98 116h-74l-81 -116h57z" />
    <glyph glyph-name="Ecircumflex" unicode="&#xca;" horiz-adv-x="465" 
d="M236 624l-42 -236h133l-13 -76h-133l-42 -236h165l-13 -76h-241l123 700h241l-13 -76h-165zM228 633h165l10 57h-222l-120 -681h222l10 57h-165l45 255h133l10 57h-133zM266 735h-79l140 159l84 -159h-79l-24 46zM262 745l47 53l28 -53h56l-70 132l-116 -132h55z" />
    <glyph glyph-name="Edieresis" unicode="&#xcb;" horiz-adv-x="522" 
d="M173 700h241l-13 -76h-165l-42 -236h133l-13 -76h-133l-42 -236h165l-13 -76h-241zM403 690h-222l-120 -681h222l10 57h-165l45 255h133l10 57h-133l45 255h165zM251 765h-95l17 95h95zM243 775l13 76h-76l-13 -76h76zM472 861l-17 -95h-95l17 95h95zM460 851h-76
l-13 -76h76z" />
    <glyph glyph-name="Igrave" unicode="&#xcc;" horiz-adv-x="311" 
d="M173 700h76l-123 -700h-76zM181 690l-120 -681h57l120 681h-57zM182 745l-67 136h98l47 -136h-78zM131 871l58 -116h56l-40 116h-74z" />
    <glyph glyph-name="Iacute" unicode="&#xcd;" horiz-adv-x="420" 
d="M173 700h76l-123 -700h-76zM181 690l-120 -681h57l120 681h-57zM370 880l-115 -136h-77l94 136h98zM351 870h-74l-81 -116h56z" />
    <glyph glyph-name="Icircumflex" unicode="&#xce;" horiz-adv-x="380" 
d="M173 700h76l-123 -700h-76zM181 690l-120 -681h57l120 681h-57zM328 735h-79l-24 46l-41 -46h-79l140 159zM254 745h56l-70 132l-116 -132h56l47 53z" />
    <glyph glyph-name="Idieresis" unicode="&#xcf;" horiz-adv-x="440" 
d="M173 700h76l-123 -700h-76zM181 690l-120 -681h57l120 681h-57zM168 765h-95l17 95h95zM160 775l13 76h-76l-13 -76h76zM389 861l-17 -95h-95l17 95h95zM377 851h-76l-13 -76h76z" />
    <glyph glyph-name="Ntilde" unicode="&#xd1;" horiz-adv-x="533" 
d="M380 700h76l-123 -700h-75l-54 440l-78 -440h-76l123 700h75l54 -440zM388 690l-88 -496l-61 496h-58l-120 -681h57l88 496l61 -496h58l120 681h-57zM198 748l-17 52l31 18q31 17 64 20.5t62 -8.5l21 -9q17 -7 36 -5t37 12l32 18l18 -52l-31 -18q-31 -17 -64 -20.5
t-62 8.5l-21 9q-17 7 -36 5t-37 -12zM192 797l12 -35l22 12q20 11 41.5 13.5t39.5 -5.5l21 -9q26 -11 57 -8.5t60 19.5l23 13l-12 35l-22 -12q-20 -11 -41.5 -13.5t-39.5 5.5l-21 9q-26 11 -57 8.5t-60 -19.5z" />
    <glyph glyph-name="Ograve" unicode="&#xd2;" 
d="M277 634q20 0 32 -14.5t8 -34.5l-83 -469q-4 -20 -21 -34.5t-37 -14.5h-18q-20 0 -32 14.5t-8 34.5l83 469q4 20 21 34.5t37 14.5h18zM308 585q3 17 -6.5 28.5t-26.5 11.5h-18q-17 0 -30.5 -11.5t-16.5 -28.5l-83 -469q-3 -17 6.5 -28.5t26.5 -11.5h18q17 0 30.5 11.5
t16.5 28.5zM289 701q24 0 43.5 -9t32.5 -25t18.5 -37t1.5 -45l-83 -469q-4 -24 -17 -45t-31.5 -37t-41 -25t-46.5 -9h-18q-24 0 -43.5 9t-32.5 25t-18.5 37t-1.5 45l83 469q4 24 17 45t31.5 37t41 25t46.5 9h18zM375 585q4 22 -1 41t-17 33.5t-29.5 23t-39.5 8.5h-18
q-22 0 -42.5 -8.5t-37.5 -23t-28.5 -33.5t-15.5 -41l-83 -469q-4 -22 1 -41t17 -33.5t29.5 -23t39.5 -8.5h18q22 0 42.5 8.5t37.5 23t28.5 33.5t15.5 41zM272 746l-67 136h98l47 -136h-78zM221 872l58 -116h56l-40 116h-74z" />
    <glyph glyph-name="Oacute" unicode="&#xd3;" horiz-adv-x="468" 
d="M288 700q24 0 43.5 -9t32.5 -25t18.5 -37t1.5 -45l-83 -469q-4 -24 -17 -45t-31.5 -37t-41 -25t-46.5 -9h-18q-24 0 -43.5 9t-32.5 25t-18.5 37t-1.5 45l83 469q4 24 17 45t31.5 37t41 25t46.5 9h18zM374 584q4 22 -1 41t-17 33.5t-29.5 23t-39.5 8.5h-18
q-22 0 -42.5 -8.5t-37.5 -23t-28.5 -33.5t-15.5 -41l-83 -469q-4 -22 1 -41t17 -33.5t29.5 -23t39.5 -8.5h18q22 0 42.5 8.5t37.5 23t28.5 33.5t15.5 41zM277 633q20 0 32 -14.5t8 -34.5l-83 -469q-4 -20 -21 -34.5t-37 -14.5h-18q-20 0 -32 14.5t-8 34.5l83 469
q4 20 21 34.5t37 14.5h18zM308 584q3 17 -6.5 28.5t-26.5 11.5h-18q-17 0 -30.5 -11.5t-16.5 -28.5l-83 -469q-3 -17 6.5 -28.5t26.5 -11.5h18q17 0 30.5 11.5t16.5 28.5zM304 744h-77l94 136h98zM302 754l98 116h-74l-81 -116h57z" />
    <glyph glyph-name="Ocircumflex" unicode="&#xd4;" horiz-adv-x="447" 
d="M288 700q24 0 43.5 -9t32.5 -25t18.5 -37t1.5 -45l-83 -469q-4 -24 -17 -45t-31.5 -37t-41 -25t-46.5 -9h-18q-24 0 -43.5 9t-32.5 25t-18.5 37t-1.5 45l83 469q4 24 17 45t31.5 37t41 25t46.5 9h18zM374 584q4 22 -1 41t-17 33.5t-29.5 23t-39.5 8.5h-18
q-22 0 -42.5 -8.5t-37.5 -23t-28.5 -33.5t-15.5 -41l-83 -469q-4 -22 1 -41t17 -33.5t29.5 -23t39.5 -8.5h18q22 0 42.5 8.5t37.5 23t28.5 33.5t15.5 41zM277 633q20 0 32 -14.5t8 -34.5l-83 -469q-4 -20 -21 -34.5t-37 -14.5h-18q-20 0 -32 14.5t-8 34.5l83 469
q4 20 21 34.5t37 14.5h18zM308 584q3 17 -6.5 28.5t-26.5 11.5h-18q-17 0 -30.5 -11.5t-16.5 -28.5l-83 -469q-3 -17 6.5 -28.5t26.5 -11.5h18q17 0 30.5 11.5t16.5 28.5zM252 735h-79l140 159l84 -159h-79l-24 46zM248 745l47 53l28 -53h56l-70 132l-116 -132h55z" />
    <glyph glyph-name="Otilde" unicode="&#xd5;" horiz-adv-x="497" 
d="M288 700q24 0 43.5 -9t32.5 -25t18.5 -37t1.5 -45l-83 -469q-4 -24 -17 -45t-31.5 -37t-41 -25t-46.5 -9h-18q-24 0 -43.5 9t-32.5 25t-18.5 37t-1.5 45l83 469q4 24 17 45t31.5 37t41 25t46.5 9h18zM374 584q4 22 -1 41t-17 33.5t-29.5 23t-39.5 8.5h-18
q-22 0 -42.5 -8.5t-37.5 -23t-28.5 -33.5t-15.5 -41l-83 -469q-4 -22 1 -41t17 -33.5t29.5 -23t39.5 -8.5h18q22 0 42.5 8.5t37.5 23t28.5 33.5t15.5 41zM277 633q20 0 32 -14.5t8 -34.5l-83 -469q-4 -20 -21 -34.5t-37 -14.5h-18q-20 0 -32 14.5t-8 34.5l83 469
q4 20 21 34.5t37 14.5h18zM308 584q3 17 -6.5 28.5t-26.5 11.5h-18q-17 0 -30.5 -11.5t-16.5 -28.5l-83 -469q-3 -17 6.5 -28.5t26.5 -11.5h18q17 0 30.5 11.5t16.5 28.5zM447 793l-31 -18q-31 -17 -64 -20.5t-62 8.5l-21 9q-17 7 -36 5t-37 -12l-32 -18l-17 52l31 18
q31 17 64 20.5t62 -8.5l21 -9q17 -7 36 -5t37 12l32 18zM435 797l-12 35l-22 -12q-20 -11 -41.5 -13.5t-39.5 5.5l-21 9q-26 11 -57 8.5t-60 -19.5l-23 -13l12 -35l22 12q20 11 41.5 13.5t39.5 -5.5l21 -9q26 -11 57 -8.5t60 19.5z" />
    <glyph glyph-name="Odieresis" unicode="&#xd6;" horiz-adv-x="508" 
d="M288 700q24 0 43.5 -9t32.5 -25t18.5 -37t1.5 -45l-83 -469q-4 -24 -17 -45t-31.5 -37t-41 -25t-46.5 -9h-18q-24 0 -43.5 9t-32.5 25t-18.5 37t-1.5 45l83 469q4 24 17 45t31.5 37t41 25t46.5 9h18zM374 584q4 22 -1 41t-17 33.5t-29.5 23t-39.5 8.5h-18
q-22 0 -42.5 -8.5t-37.5 -23t-28.5 -33.5t-15.5 -41l-83 -469q-4 -22 1 -41t17 -33.5t29.5 -23t39.5 -8.5h18q22 0 42.5 8.5t37.5 23t28.5 33.5t15.5 41zM277 633q20 0 32 -14.5t8 -34.5l-83 -469q-4 -20 -21 -34.5t-37 -14.5h-18q-20 0 -32 14.5t-8 34.5l83 469
q4 20 21 34.5t37 14.5h18zM308 584q3 17 -6.5 28.5t-26.5 11.5h-18q-17 0 -30.5 -11.5t-16.5 -28.5l-83 -469q-3 -17 6.5 -28.5t26.5 -11.5h18q17 0 30.5 11.5t16.5 28.5zM237 765h-95l17 95h95zM229 775l13 76h-76l-13 -76h76zM458 861l-17 -95h-95l17 95h95zM446 851h-76
l-13 -76h76z" />
    <glyph glyph-name="multiply" unicode="&#xd7;" horiz-adv-x="472" 
d="M286 349l95 -115l-59 -50l-95 115l-136 -115l-41 50l136 115l-95 115l59 50l95 -115l136 115l41 -50zM272 349l136 115l-30 37l-136 -115l-95 115l-43 -37l95 -115l-136 -115l30 -37l136 115l95 -115l43 37z" />
    <glyph glyph-name="Oslash" unicode="&#xd8;" horiz-adv-x="584" 
d="M534 741l-74 -143q0 -6 -2 -14l-83 -469q-4 -24 -17 -45t-31.5 -37t-41 -25t-46.5 -9h-18q-38 0 -63 21l-32 -62h-77l74 143q0 6 2 14l83 469q4 24 17 45t31.5 37t41 25t46.5 9h18q37 0 63 -21l32 62h77zM518 731h-56l-35 -68l-5 4q-25 23 -61 23h-18q-22 0 -42.5 -8.5
t-37.5 -23t-28.5 -33.5t-15.5 -41l-83 -469q-1 -4 -1 -13v-1l-69 -132h56l35 68l5 -4q25 -23 61 -23h18q22 0 42.5 8.5t37.5 23t28.5 33.5t15.5 41l83 469q1 4 1 13v1zM191 105l174 333l-57 -322q-4 -20 -21 -34.5t-37 -14.5h-18q-17 0 -28 10t-13 26v2zM201 104
q2 -12 10.5 -19.5t21.5 -7.5h18q17 0 30.5 11.5t16.5 28.5l47 264zM350 633q17 0 28 -10t13 -26v-1l-174 -333l57 322q4 20 21 34.5t37 14.5h18v-1zM381 597q-2 12 -10.5 19.5t-21.5 7.5h-18q-17 0 -30.5 -11.5t-16.5 -28.5l-47 -264z" />
    <glyph glyph-name="Ugrave" unicode="&#xd9;" horiz-adv-x="454" 
d="M404 700l-103 -584q-4 -24 -17 -45t-31.5 -37t-41 -25t-46.5 -9h-18q-24 0 -43.5 9t-32.5 25t-18.5 37t-1.5 45l103 584h76l-103 -584q-3 -17 6.5 -28.5t26.5 -11.5h18q17 0 30.5 11.5t16.5 28.5l103 584h76zM393 691h-57l-101 -575q-4 -20 -21 -34.5t-37 -14.5h-18
q-20 0 -32 14.5t-8 34.5l101 575h-57l-101 -575q-4 -22 1 -41t17 -33.5t29.5 -23t39.5 -8.5h18q22 0 42.5 8.5t37.5 23t28.5 33.5t15.5 41zM268 746l-67 136h98l47 -136h-78zM217 872l58 -116h56l-40 116h-74z" />
    <glyph glyph-name="Uacute" unicode="&#xda;" horiz-adv-x="471" 
d="M328 700h76l-103 -584q-4 -24 -17 -45t-31.5 -37t-41 -25t-46.5 -9h-18q-24 0 -43.5 9t-32.5 25t-18.5 37t-1.5 45l103 584h76l-103 -584q-3 -17 6.5 -28.5t26.5 -11.5h18q17 0 30.5 11.5t16.5 28.5zM337 690l-101 -575q-4 -20 -21 -34.5t-37 -14.5h-18q-20 0 -32 14.5
t-8 34.5l101 575h-57l-101 -575q-4 -22 1 -41t17 -33.5t29.5 -23t39.5 -8.5h18q22 0 42.5 8.5t37.5 23t28.5 33.5t15.5 41l101 575h-56zM307 744h-77l94 136h98zM305 754l98 116h-74l-81 -116h57z" />
    <glyph glyph-name="Ucircumflex" unicode="&#xdb;" horiz-adv-x="454" 
d="M404 700l-103 -584q-4 -24 -17 -45t-31.5 -37t-41 -25t-46.5 -9h-18q-24 0 -43.5 9t-32.5 25t-18.5 37t-1.5 45l103 584h76l-103 -584q-3 -17 6.5 -28.5t26.5 -11.5h18q17 0 30.5 11.5t16.5 28.5l103 584h76zM393 691h-57l-101 -575q-4 -20 -21 -34.5t-37 -14.5h-18
q-20 0 -32 14.5t-8 34.5l101 575h-57l-101 -575q-4 -22 1 -41t17 -33.5t29.5 -23t39.5 -8.5h18q22 0 42.5 8.5t37.5 23t28.5 33.5t15.5 41zM252 736h-79l140 159l84 -159h-79l-24 46zM248 746l47 53l28 -53h56l-70 132l-116 -132h55z" />
    <glyph glyph-name="Udieresis" unicode="&#xdc;" horiz-adv-x="508" 
d="M328 700h76l-103 -584q-4 -24 -17 -45t-31.5 -37t-41 -25t-46.5 -9h-18q-24 0 -43.5 9t-32.5 25t-18.5 37t-1.5 45l103 584h76l-103 -584q-3 -17 6.5 -28.5t26.5 -11.5h18q17 0 30.5 11.5t16.5 28.5zM337 690l-101 -575q-4 -20 -21 -34.5t-37 -14.5h-18q-20 0 -32 14.5
t-8 34.5l101 575h-57l-101 -575q-4 -22 1 -41t17 -33.5t29.5 -23t39.5 -8.5h18q22 0 42.5 8.5t37.5 23t28.5 33.5t15.5 41l101 575h-56zM237 765h-95l17 95h95zM229 775l13 76h-76l-13 -76h76zM458 861l-17 -95h-95l17 95h95zM446 851h-76l-13 -76h76z" />
    <glyph glyph-name="Yacute" unicode="&#xdd;" horiz-adv-x="406" 
d="M356 700l-175 -389l-55 -311h-76l55 311l-38 389h81l21 -244l107 244h80zM341 690h-60l-120 -273l-24 273h-60l37 -378l-53 -303h57l53 303v1zM236 744h-77l94 136h98zM234 754l98 116h-74l-81 -116h57z" />
    <glyph glyph-name="Thorn" unicode="&#xde;" horiz-adv-x="447" 
d="M289 592q20 0 32 -14.5t8 -34.5l-63 -355q-4 -20 -21 -34.5t-37 -14.5h-67l80 453h67h1zM320 542q3 17 -6.5 28.5t-26.5 11.5h-58l-77 -434h58q17 0 30.5 11.5t16.5 28.5l63 355v-1zM301 659q24 0 43.5 -9t32.5 -25t18.5 -37t1.5 -45l-63 -355q-4 -24 -17 -45t-31.5 -37
t-41 -25t-46.5 -9h-57l-13 -72h-76l129 730h76l-13 -72h57v1zM386 543q4 22 -1 41t-17 33.5t-29.5 23t-39.5 8.5h-67l13 72h-57l-125 -711h57l13 72h67q22 0 42.5 8.5t37.5 23t28.5 33.5t15.5 41l63 355h-1z" />
    <glyph glyph-name="agrave" unicode="&#xe0;" horiz-adv-x="444" 
d="M316 745l-67 136h98l47 -136h-78zM265 871l58 -116h56l-40 116h-74zM306 204h-119l120 342zM297 490l-97 -276h96zM295 701h79l-2 -700h-76v137h-123l-48 -137h-76zM300 691l-239 -681h57l48 137h139v-137h57l2 681h-64z" />
    <glyph glyph-name="aacute" unicode="&#xe1;" horiz-adv-x="534" 
d="M369 745h-77l94 136h98zM367 755l98 116h-74l-81 -116h57zM308 204h-119l120 342zM299 490l-97 -276h96zM297 701h79l-2 -700h-76v137h-123l-48 -137h-76zM302 691l-239 -681h57l48 137h139v-137h57l2 681h-64z" />
    <glyph glyph-name="acircumflex" unicode="&#xe2;" horiz-adv-x="504" 
d="M307 204h-119l120 342zM298 490l-97 -276h96zM296 701h79l-2 -700h-76v137h-123l-48 -137h-76zM301 691l-239 -681h57l48 137h139v-137h57l2 681h-64zM452 736h-79l-24 46l-41 -46h-79l140 159zM379 746h55l-70 132l-116 -132h56l47 53z" />
    <glyph glyph-name="atilde" unicode="&#xe3;" horiz-adv-x="553" 
d="M307 204h-119l120 342zM298 490l-97 -276h96zM296 701h79l-2 -700h-76v137h-123l-48 -137h-76zM301 691l-239 -681h57l48 137h139v-137h57l2 681h-64zM501 795l-31 -18q-31 -17 -64 -20.5t-62 8.5l-21 9q-17 7 -36 5t-37 -12l-32 -18l-17 52l31 18q31 17 64 20.5t62 -8.5
l21 -9q17 -7 36 -5t37 12l32 18zM489 799l-12 35l-22 -12q-20 -11 -41.5 -13.5t-39.5 5.5l-21 9q-26 11 -57 8.5t-60 -19.5l-23 -13l12 -35l22 12q20 11 41.5 13.5t39.5 -5.5l21 -9q26 -11 57 -8.5t60 19.5z" />
    <glyph glyph-name="adieresis" unicode="&#xe4;" horiz-adv-x="563" 
d="M307 204h-119l120 342zM298 490l-97 -276h96zM292 766h-95l17 95h95zM284 776l13 76h-76l-13 -76h76zM513 862l-17 -95h-95l17 95h95zM501 852h-76l-13 -76h76zM295 701h79l-2 -700h-76v137h-123l-48 -137h-76zM300 691l-239 -681h57l48 137h139v-137h57l2 681h-64z" />
    <glyph glyph-name="aring" unicode="&#xe5;" horiz-adv-x="489" 
d="M307 204h-119l120 342zM298 490l-97 -276h96zM364 865q21 0 33.5 -15t8.5 -36t-21.5 -36t-38.5 -15t-33.5 15t-8.5 36t21.5 36t38.5 15zM396 814q3 17 -7 29.5t-27 12.5t-31.5 -12.5t-17.5 -29.5t7 -29.5t27 -12.5t31.5 12.5t17.5 29.5zM369 897q35 0 55 -24t14 -59
t-34.5 -59t-63.5 -24t-55 24t-14 59t34.5 59t63.5 24zM428 814q5 30 -12.5 51.5t-47.5 21.5t-55.5 -21.5t-30.5 -51.5t12.5 -51.5t47.5 -21.5t55.5 21.5t30.5 51.5zM296 701h79l-2 -700h-76v137h-123l-48 -137h-76zM301 691l-239 -681h57l48 137h139v-137h57l2 681h-64z" />
    <glyph glyph-name="ae" unicode="&#xe6;" horiz-adv-x="710" 
d="M647 624h-165l-42 -236h133l-13 -76h-133l-42 -236h165l-13 -76h-241l24 137h-121l-72 -137h-77l369 700h241zM475 633h165l10 57h-225l-359 -681h56l72 137h137l-24 -137h222l10 57h-165l45 255h133l10 57h-133zM225 203l177 335l-59 -335h-118zM381 481l-141 -268h94z
" />
    <glyph glyph-name="ccedilla" unicode="&#xe7;" 
d="M289 701q24 0 43.5 -9t32.5 -25t18.5 -37t1.5 -45l-15 -84h-76l15 84q3 17 -6.5 28.5t-26.5 11.5h-18q-17 0 -30.5 -11.5t-16.5 -28.5l-83 -469q-3 -17 6.5 -28.5t26.5 -11.5h18q17 0 30.5 11.5t16.5 28.5l15 84h76l-15 -84q-6 -39 -35 -69q-26 -28 -60 -40q7 -13 4 -31
l-3 -17q-4 -23 -22.5 -38.5t-41.5 -15.5h-8q-23 0 -36 15.5t-9 38.5l1 5h39l-1 -5q-1 -6 2.5 -10.5t9.5 -4.5h8q6 0 11 4.5t6 10.5l3 17q1 7 -4 12l-15 11h-4q-24 0 -43.5 9t-32.5 25t-18.5 37t-1.5 45l83 469q4 24 17 45t31.5 37t41 25t46.5 9h18zM373 585q4 22 -1 41
t-17 33.5t-29.5 23t-39.5 8.5h-18q-22 0 -42.5 -8.5t-37.5 -23t-28.5 -33.5t-15.5 -41l-83 -469q-4 -22 1 -41t17 -33.5t29.5 -23t39.5 -8.5h7l17 -13q10 -8 8 -20l-3 -17q-2 -11 -10 -18t-19 -7h-8q-20 0 -20 19h-20q-1 -17 10 -28t28 -11h8q18 0 33 13t18 31l3 17
q3 18 -6 30l-4 6l8 2q35 10 61.5 38.5t32.5 63.5l13 74h-57l-13 -74q-4 -20 -21 -34.5t-37 -14.5h-18q-20 0 -32 14.5t-8 34.5l83 469q4 20 21 34.5t37 14.5h18q20 0 32 -14.5t8 -34.5l-13 -74h57l13 74h-2z" />
    <glyph glyph-name="egrave" unicode="&#xe8;" horiz-adv-x="465" 
d="M401 624h-165l-42 -236h133l-13 -76h-133l-42 -236h165l-13 -76h-241l123 700h241zM228 633h165l10 57h-222l-120 -681h222l10 57h-165l45 255h133l10 57h-133zM287 745l-67 136h98l47 -136h-78zM236 871l58 -116h56l-40 116h-74z" />
    <glyph glyph-name="eacute" unicode="&#xe9;" horiz-adv-x="481" 
d="M173 700h241l-13 -76h-165l-42 -236h133l-13 -76h-133l-42 -236h165l-13 -76h-241zM403 690h-222l-120 -681h222l10 57h-165l45 255h133l10 57h-133l45 255h165zM316 744h-77l94 136h98zM314 754l98 116h-74l-81 -116h57z" />
    <glyph glyph-name="ecircumflex" unicode="&#xea;" horiz-adv-x="465" 
d="M236 624l-42 -236h133l-13 -76h-133l-42 -236h165l-13 -76h-241l123 700h241l-13 -76h-165zM228 633h165l10 57h-222l-120 -681h222l10 57h-165l45 255h133l10 57h-133zM266 735h-79l140 159l84 -159h-79l-24 46zM262 745l47 53l28 -53h56l-70 132l-116 -132h55z" />
    <glyph glyph-name="edieresis" unicode="&#xeb;" horiz-adv-x="522" 
d="M173 700h241l-13 -76h-165l-42 -236h133l-13 -76h-133l-42 -236h165l-13 -76h-241zM403 690h-222l-120 -681h222l10 57h-165l45 255h133l10 57h-133l45 255h165zM251 765h-95l17 95h95zM243 775l13 76h-76l-13 -76h76zM472 861l-17 -95h-95l17 95h95zM460 851h-76
l-13 -76h76z" />
    <glyph glyph-name="igrave" unicode="&#xec;" horiz-adv-x="311" 
d="M173 700h76l-123 -700h-76zM181 690l-120 -681h57l120 681h-57zM182 745l-67 136h98l47 -136h-78zM131 871l58 -116h56l-40 116h-74z" />
    <glyph glyph-name="iacute" unicode="&#xed;" horiz-adv-x="420" 
d="M173 700h76l-123 -700h-76zM181 690l-120 -681h57l120 681h-57zM370 880l-115 -136h-77l94 136h98zM351 870h-74l-81 -116h56z" />
    <glyph glyph-name="icircumflex" unicode="&#xee;" horiz-adv-x="380" 
d="M173 700h76l-123 -700h-76zM181 690l-120 -681h57l120 681h-57zM328 735h-79l-24 46l-41 -46h-79l140 159zM255 745h55l-70 132l-116 -132h56l47 53z" />
    <glyph glyph-name="idieresis" unicode="&#xef;" horiz-adv-x="440" 
d="M173 700h76l-123 -700h-76zM181 690l-120 -681h57l120 681h-57zM168 765h-95l17 95h95zM160 775l13 76h-76l-13 -76h76zM389 861l-17 -95h-95l17 95h95zM377 851h-76l-13 -76h76z" />
    <glyph glyph-name="ntilde" unicode="&#xf1;" horiz-adv-x="533" 
d="M380 700h76l-123 -700h-75l-54 440l-78 -440h-76l123 700h75l54 -440zM388 690l-88 -496l-61 496h-58l-120 -681h57l88 496l61 -496h58l120 681h-57zM198 748l-17 52l31 18q31 17 64 20.5t62 -8.5l21 -9q17 -7 36 -5t37 12l32 18l18 -52l-31 -18q-31 -17 -64 -20.5
t-62 8.5l-21 9q-17 7 -36 5t-37 -12zM192 797l12 -35l22 12q20 11 41.5 13.5t39.5 -5.5l21 -9q26 -11 57 -8.5t60 19.5l23 13l-12 35l-22 -12q-20 -11 -41.5 -13.5t-39.5 5.5l-21 9q-26 11 -57 8.5t-60 -19.5z" />
    <glyph glyph-name="ograve" unicode="&#xf2;" 
d="M277 634q20 0 32 -14.5t8 -34.5l-83 -469q-4 -20 -21 -34.5t-37 -14.5h-18q-20 0 -32 14.5t-8 34.5l83 469q4 20 21 34.5t37 14.5h18zM308 585q3 17 -6.5 28.5t-26.5 11.5h-18q-17 0 -30.5 -11.5t-16.5 -28.5l-83 -469q-3 -17 6.5 -28.5t26.5 -11.5h18q17 0 30.5 11.5
t16.5 28.5zM289 701q24 0 43.5 -9t32.5 -25t18.5 -37t1.5 -45l-83 -469q-4 -24 -17 -45t-31.5 -37t-41 -25t-46.5 -9h-18q-24 0 -43.5 9t-32.5 25t-18.5 37t-1.5 45l83 469q4 24 17 45t31.5 37t41 25t46.5 9h18zM375 585q4 22 -1 41t-17 33.5t-29.5 23t-39.5 8.5h-18
q-22 0 -42.5 -8.5t-37.5 -23t-28.5 -33.5t-15.5 -41l-83 -469q-4 -22 1 -41t17 -33.5t29.5 -23t39.5 -8.5h18q22 0 42.5 8.5t37.5 23t28.5 33.5t15.5 41zM272 746l-67 136h98l47 -136h-78zM221 872l58 -116h56l-40 116h-74z" />
    <glyph glyph-name="oacute" unicode="&#xf3;" horiz-adv-x="468" 
d="M288 700q24 0 43.5 -9t32.5 -25t18.5 -37t1.5 -45l-83 -469q-4 -24 -17 -45t-31.5 -37t-41 -25t-46.5 -9h-18q-24 0 -43.5 9t-32.5 25t-18.5 37t-1.5 45l83 469q4 24 17 45t31.5 37t41 25t46.5 9h18zM374 584q4 22 -1 41t-17 33.5t-29.5 23t-39.5 8.5h-18
q-22 0 -42.5 -8.5t-37.5 -23t-28.5 -33.5t-15.5 -41l-83 -469q-4 -22 1 -41t17 -33.5t29.5 -23t39.5 -8.5h18q22 0 42.5 8.5t37.5 23t28.5 33.5t15.5 41zM277 633q20 0 32 -14.5t8 -34.5l-83 -469q-4 -20 -21 -34.5t-37 -14.5h-18q-20 0 -32 14.5t-8 34.5l83 469
q4 20 21 34.5t37 14.5h18zM308 584q3 17 -6.5 28.5t-26.5 11.5h-18q-17 0 -30.5 -11.5t-16.5 -28.5l-83 -469q-3 -17 6.5 -28.5t26.5 -11.5h18q17 0 30.5 11.5t16.5 28.5zM304 744h-77l94 136h98zM302 754l98 116h-74l-81 -116h57z" />
    <glyph glyph-name="ocircumflex" unicode="&#xf4;" horiz-adv-x="447" 
d="M288 700q24 0 43.5 -9t32.5 -25t18.5 -37t1.5 -45l-83 -469q-4 -24 -17 -45t-31.5 -37t-41 -25t-46.5 -9h-18q-24 0 -43.5 9t-32.5 25t-18.5 37t-1.5 45l83 469q4 24 17 45t31.5 37t41 25t46.5 9h18zM374 584q4 22 -1 41t-17 33.5t-29.5 23t-39.5 8.5h-18
q-22 0 -42.5 -8.5t-37.5 -23t-28.5 -33.5t-15.5 -41l-83 -469q-4 -22 1 -41t17 -33.5t29.5 -23t39.5 -8.5h18q22 0 42.5 8.5t37.5 23t28.5 33.5t15.5 41zM277 633q20 0 32 -14.5t8 -34.5l-83 -469q-4 -20 -21 -34.5t-37 -14.5h-18q-20 0 -32 14.5t-8 34.5l83 469
q4 20 21 34.5t37 14.5h18zM308 584q3 17 -6.5 28.5t-26.5 11.5h-18q-17 0 -30.5 -11.5t-16.5 -28.5l-83 -469q-3 -17 6.5 -28.5t26.5 -11.5h18q17 0 30.5 11.5t16.5 28.5zM252 735h-79l140 159l84 -159h-79l-24 46zM248 745l47 53l28 -53h56l-70 132l-116 -132h55z" />
    <glyph glyph-name="otilde" unicode="&#xf5;" horiz-adv-x="497" 
d="M288 700q24 0 43.5 -9t32.5 -25t18.5 -37t1.5 -45l-83 -469q-4 -24 -17 -45t-31.5 -37t-41 -25t-46.5 -9h-18q-24 0 -43.5 9t-32.5 25t-18.5 37t-1.5 45l83 469q4 24 17 45t31.5 37t41 25t46.5 9h18zM374 584q4 22 -1 41t-17 33.5t-29.5 23t-39.5 8.5h-18
q-22 0 -42.5 -8.5t-37.5 -23t-28.5 -33.5t-15.5 -41l-83 -469q-4 -22 1 -41t17 -33.5t29.5 -23t39.5 -8.5h18q22 0 42.5 8.5t37.5 23t28.5 33.5t15.5 41zM277 633q20 0 32 -14.5t8 -34.5l-83 -469q-4 -20 -21 -34.5t-37 -14.5h-18q-20 0 -32 14.5t-8 34.5l83 469
q4 20 21 34.5t37 14.5h18zM308 584q3 17 -6.5 28.5t-26.5 11.5h-18q-17 0 -30.5 -11.5t-16.5 -28.5l-83 -469q-3 -17 6.5 -28.5t26.5 -11.5h18q17 0 30.5 11.5t16.5 28.5zM447 793l-31 -18q-31 -17 -64 -20.5t-62 8.5l-21 9q-17 7 -36 5t-37 -12l-32 -18l-17 52l31 18
q31 17 64 20.5t62 -8.5l21 -9q17 -7 36 -5t37 12l32 18zM435 797l-12 35l-22 -12q-20 -11 -41.5 -13.5t-39.5 5.5l-21 9q-26 11 -57 8.5t-60 -19.5l-23 -13l12 -35l22 12q20 11 41.5 13.5t39.5 -5.5l21 -9q26 -11 57 -8.5t60 19.5z" />
    <glyph glyph-name="odieresis" unicode="&#xf6;" horiz-adv-x="508" 
d="M288 700q24 0 43.5 -9t32.5 -25t18.5 -37t1.5 -45l-83 -469q-4 -24 -17 -45t-31.5 -37t-41 -25t-46.5 -9h-18q-24 0 -43.5 9t-32.5 25t-18.5 37t-1.5 45l83 469q4 24 17 45t31.5 37t41 25t46.5 9h18zM374 584q4 22 -1 41t-17 33.5t-29.5 23t-39.5 8.5h-18
q-22 0 -42.5 -8.5t-37.5 -23t-28.5 -33.5t-15.5 -41l-83 -469q-4 -22 1 -41t17 -33.5t29.5 -23t39.5 -8.5h18q22 0 42.5 8.5t37.5 23t28.5 33.5t15.5 41zM277 633q20 0 32 -14.5t8 -34.5l-83 -469q-4 -20 -21 -34.5t-37 -14.5h-18q-20 0 -32 14.5t-8 34.5l83 469
q4 20 21 34.5t37 14.5h18zM308 584q3 17 -6.5 28.5t-26.5 11.5h-18q-17 0 -30.5 -11.5t-16.5 -28.5l-83 -469q-3 -17 6.5 -28.5t26.5 -11.5h18q17 0 30.5 11.5t16.5 28.5zM237 765h-95l17 95h95zM229 775l13 76h-76l-13 -76h76zM458 861l-17 -95h-95l17 95h95zM446 851h-76
l-13 -76h76z" />
    <glyph glyph-name="oslash" unicode="&#xf8;" horiz-adv-x="584" 
d="M534 741l-74 -143q0 -6 -2 -14l-83 -469q-4 -24 -17 -45t-31.5 -37t-41 -25t-46.5 -9h-18q-38 0 -63 21l-32 -62h-77l74 143q0 6 2 14l83 469q4 24 17 45t31.5 37t41 25t46.5 9h18q37 0 63 -21l32 62h77zM519 731h-56l-35 -68l-5 4q-25 23 -61 23h-18q-22 0 -42.5 -8.5
t-37.5 -23t-28.5 -33.5t-15.5 -41l-83 -469q-1 -4 -1 -13v-1l-69 -132h56l35 68l5 -4q25 -23 61 -23h18q22 0 42.5 8.5t37.5 23t28.5 33.5t15.5 41l83 469q1 4 1 13v1zM192 105l174 333l-57 -322q-4 -20 -21 -34.5t-37 -14.5h-18q-17 0 -28 10t-13 26v2zM202 104
q2 -12 10.5 -19.5t21.5 -7.5h18q17 0 30.5 11.5t16.5 28.5l47 264zM351 633q17 0 28 -10t13 -26v-1l-174 -333l57 322q4 20 21 34.5t37 14.5h18v-1zM382 597q-2 12 -10.5 19.5t-21.5 7.5h-18q-17 0 -30.5 -11.5t-16.5 -28.5l-47 -264z" />
    <glyph glyph-name="ugrave" unicode="&#xf9;" horiz-adv-x="454" 
d="M404 700l-103 -584q-4 -24 -17 -45t-31.5 -37t-41 -25t-46.5 -9h-18q-24 0 -43.5 9t-32.5 25t-18.5 37t-1.5 45l103 584h76l-103 -584q-3 -17 6.5 -28.5t26.5 -11.5h18q17 0 30.5 11.5t16.5 28.5l103 584h76zM393 691h-57l-101 -575q-4 -20 -21 -34.5t-37 -14.5h-18
q-20 0 -32 14.5t-8 34.5l101 575h-57l-101 -575q-4 -22 1 -41t17 -33.5t29.5 -23t39.5 -8.5h18q22 0 42.5 8.5t37.5 23t28.5 33.5t15.5 41zM268 746l-67 136h98l47 -136h-78zM217 872l58 -116h56l-40 116h-74z" />
    <glyph glyph-name="uacute" unicode="&#xfa;" horiz-adv-x="471" 
d="M328 700h76l-103 -584q-4 -24 -17 -45t-31.5 -37t-41 -25t-46.5 -9h-18q-24 0 -43.5 9t-32.5 25t-18.5 37t-1.5 45l103 584h76l-103 -584q-3 -17 6.5 -28.5t26.5 -11.5h18q17 0 30.5 11.5t16.5 28.5zM337 690l-101 -575q-4 -20 -21 -34.5t-37 -14.5h-18q-20 0 -32 14.5
t-8 34.5l101 575h-57l-101 -575q-4 -22 1 -41t17 -33.5t29.5 -23t39.5 -8.5h18q22 0 42.5 8.5t37.5 23t28.5 33.5t15.5 41l101 575h-56zM307 744h-77l94 136h98zM304 754l99 116h-74l-81 -116h56z" />
    <glyph glyph-name="ucircumflex" unicode="&#xfb;" horiz-adv-x="454" 
d="M404 700l-103 -584q-4 -24 -17 -45t-31.5 -37t-41 -25t-46.5 -9h-18q-24 0 -43.5 9t-32.5 25t-18.5 37t-1.5 45l103 584h76l-103 -584q-3 -17 6.5 -28.5t26.5 -11.5h18q17 0 30.5 11.5t16.5 28.5l103 584h76zM393 691h-57l-101 -575q-4 -20 -21 -34.5t-37 -14.5h-18
q-20 0 -32 14.5t-8 34.5l101 575h-57l-101 -575q-4 -22 1 -41t17 -33.5t29.5 -23t39.5 -8.5h18q22 0 42.5 8.5t37.5 23t28.5 33.5t15.5 41zM252 736h-79l140 159l84 -159h-79l-24 46zM248 746l47 53l28 -53h56l-70 132l-116 -132h55z" />
    <glyph glyph-name="udieresis" unicode="&#xfc;" horiz-adv-x="508" 
d="M328 700h76l-103 -584q-4 -24 -17 -45t-31.5 -37t-41 -25t-46.5 -9h-18q-24 0 -43.5 9t-32.5 25t-18.5 37t-1.5 45l103 584h76l-103 -584q-3 -17 6.5 -28.5t26.5 -11.5h18q17 0 30.5 11.5t16.5 28.5zM337 690l-101 -575q-4 -20 -21 -34.5t-37 -14.5h-18q-20 0 -32 14.5
t-8 34.5l101 575h-57l-101 -575q-4 -22 1 -41t17 -33.5t29.5 -23t39.5 -8.5h18q22 0 42.5 8.5t37.5 23t28.5 33.5t15.5 41l101 575h-56zM237 765h-95l17 95h95zM229 775l13 76h-76l-13 -76h76zM458 861l-17 -95h-95l17 95h95zM446 851h-76l-13 -76h76z" />
    <glyph glyph-name="yacute" unicode="&#xfd;" horiz-adv-x="406" 
d="M356 700l-175 -389l-55 -311h-76l55 311l-38 389h81l21 -244l107 244h80zM341 690h-60l-120 -273l-24 273h-60l37 -378l-53 -303h57l53 303v1zM236 744h-77l94 136h98zM233 754l99 116h-74l-81 -116h56z" />
    <glyph glyph-name="ydieresis" unicode="&#xff;" horiz-adv-x="440" 
d="M274 700h81l-175 -389l-55 -311h-76l55 311l-38 389h81l21 -244zM340 690h-60l-120 -273l-24 273h-60l37 -378l-53 -303h57l53 303v1zM166 765h-95l17 95h95zM158 775l13 76h-76l-13 -76h76zM387 861l-17 -95h-95l17 95h95zM375 851h-76l-13 -76h76z" />
    <glyph glyph-name="OE" unicode="&#x152;" horiz-adv-x="664" 
d="M600 623h-165l-42 -236h133l-13 -76h-133l-42 -236h165l-13 -76h-241l6 36q-41 -36 -90 -36h-18q-24 0 -43.5 9t-32.5 25t-18.5 37t-1.5 45l83 469q4 24 17 45t31.5 37t41 25t46.5 9h18q50 0 78 -36l6 36h241l-13 -76v-1zM427 630h165l10 57h-222l-10 -54l-7 12
q-11 20 -31 31.5t-46 11.5h-18q-22 0 -42.5 -8.5t-37.5 -23t-28.5 -33.5t-15.5 -41l-83 -469q-4 -22 1 -41t17 -33.5t29.5 -23t39.5 -8.5h18q26 0 50 11.5t43 31.5l11 12l-10 -54h222l10 57h-165l45 255h133l10 57h-133zM277 630q20 0 32 -14.5t8 -34.5l-83 -469
q-4 -20 -21 -34.5t-37 -14.5h-18q-20 0 -32 14.5t-8 34.5l83 469q4 20 21 34.5t37 14.5h18zM308 581q3 17 -6.5 28.5t-26.5 11.5h-18q-17 0 -30.5 -11.5t-16.5 -28.5l-83 -469q-3 -17 6.5 -28.5t26.5 -11.5h18q17 0 30.5 11.5t16.5 28.5z" />
    <glyph glyph-name="oe" unicode="&#x153;" horiz-adv-x="664" 
d="M600 623h-165l-42 -236h133l-13 -76h-133l-42 -236h165l-13 -76h-241l6 36q-41 -36 -90 -36h-18q-24 0 -43.5 9t-32.5 25t-18.5 37t-1.5 45l83 469q4 24 17 45t31.5 37t41 25t46.5 9h18q50 0 78 -36l6 36h241l-13 -76v-1zM427 630h165l10 57h-222l-10 -54l-7 12
q-11 20 -31 31.5t-46 11.5h-18q-22 0 -42.5 -8.5t-37.5 -23t-28.5 -33.5t-15.5 -41l-83 -469q-4 -22 1 -41t17 -33.5t29.5 -23t39.5 -8.5h18q26 0 50 11.5t43 31.5l11 12l-10 -54h222l10 57h-165l45 255h133l10 57h-133zM277 630q20 0 32 -14.5t8 -34.5l-83 -469
q-4 -20 -21 -34.5t-37 -14.5h-18q-20 0 -32 14.5t-8 34.5l83 469q4 20 21 34.5t37 14.5h18zM308 581q3 17 -6.5 28.5t-26.5 11.5h-18q-17 0 -30.5 -11.5t-16.5 -28.5l-83 -469q-3 -17 6.5 -28.5t26.5 -11.5h18q17 0 30.5 11.5t16.5 28.5z" />
    <glyph glyph-name="Scaron" unicode="&#x160;" horiz-adv-x="475" 
d="M288 700q24 0 43.5 -9t32.5 -25t18.5 -37t1.5 -45l-15 -84h-76l15 84q3 17 -6.5 28.5t-26.5 11.5h-18q-17 0 -30.5 -11.5t-16.5 -28.5l-23 -133q-3 -21 11 -32l94 -77q20 -17 28.5 -41.5t3.5 -52.5l-23 -133q-4 -24 -17 -45t-31.5 -37t-41 -25t-46.5 -9h-18
q-24 0 -43.5 9t-32.5 25t-18.5 37t-1.5 45l15 84h76l-15 -84q-3 -17 6.5 -28.5t26.5 -11.5h18q17 0 30.5 11.5t16.5 28.5l23 133q3 21 -11 32l-94 77q-20 17 -28.5 41.5t-3.5 52.5l23 133q4 24 17 45t31.5 37t41 25t46.5 9h18zM374 584q4 22 -1 41t-17 33.5t-29.5 23
t-39.5 8.5h-18q-22 0 -42.5 -8.5t-37.5 -23t-28.5 -33.5t-15.5 -41l-23 -133q-5 -26 3 -48.5t26 -37.5l94 -77q18 -15 13 -40l-23 -133q-4 -20 -21 -34.5t-37 -14.5h-18q-20 0 -32 14.5t-8 34.5l13 74h-57l-13 -74q-4 -22 1 -41t17 -33.5t29.5 -23t39.5 -8.5h18
q22 0 42.5 8.5t37.5 23t28.5 33.5t15.5 41l23 133q5 26 -3 48.5t-26 37.5l-94 77q-18 15 -13 40l23 133q4 20 21 34.5t37 14.5h18q20 0 32 -14.5t8 -34.5l-13 -74h57zM286 731l-84 159h79l24 -46l41 46h79zM220 880l70 -132l116 132h-56l-47 -53l-28 53h-55z" />
    <glyph glyph-name="scaron" unicode="&#x161;" horiz-adv-x="475" 
d="M288 700q24 0 43.5 -9t32.5 -25t18.5 -37t1.5 -45l-15 -84h-76l15 84q3 17 -6.5 28.5t-26.5 11.5h-18q-17 0 -30.5 -11.5t-16.5 -28.5l-23 -133q-3 -21 11 -32l94 -77q20 -17 28.5 -41.5t3.5 -52.5l-23 -133q-4 -24 -17 -45t-31.5 -37t-41 -25t-46.5 -9h-18
q-24 0 -43.5 9t-32.5 25t-18.5 37t-1.5 45l15 84h76l-15 -84q-3 -17 6.5 -28.5t26.5 -11.5h18q17 0 30.5 11.5t16.5 28.5l23 133q3 21 -11 32l-94 77q-20 17 -28.5 41.5t-3.5 52.5l23 133q4 24 17 45t31.5 37t41 25t46.5 9h18zM374 584q4 22 -1 41t-17 33.5t-29.5 23
t-39.5 8.5h-18q-22 0 -42.5 -8.5t-37.5 -23t-28.5 -33.5t-15.5 -41l-23 -133q-5 -26 3 -48.5t26 -37.5l94 -77q18 -15 13 -40l-23 -133q-4 -20 -21 -34.5t-37 -14.5h-18q-20 0 -32 14.5t-8 34.5l13 74h-57l-13 -74q-4 -22 1 -41t17 -33.5t29.5 -23t39.5 -8.5h18
q22 0 42.5 8.5t37.5 23t28.5 33.5t15.5 41l23 133q5 26 -3 48.5t-26 37.5l-94 77q-18 15 -13 40l23 133q4 20 21 34.5t37 14.5h18q20 0 32 -14.5t8 -34.5l-13 -74h57zM286 731l-84 159h79l24 -46l41 46h79zM219 880l70 -132l116 132h-55l-47 -53l-28 53h-56z" />
    <glyph glyph-name="Ydieresis" unicode="&#x178;" horiz-adv-x="440" 
d="M274 700h81l-175 -389l-55 -311h-76l55 311l-38 389h81l21 -244zM280 690l-120 -273l-24 273h-60l37 -378l-53 -303h57l53 303v1l170 377h-60zM167 765h-95l17 95h95zM159 775l13 76h-76l-13 -76h76zM388 861l-17 -95h-95l17 95h95zM376 851h-76l-13 -76h76z" />
    <glyph glyph-name="Zcaron" unicode="&#x17d;" horiz-adv-x="493" 
d="M173 700h249l-13 -72v-1l-268 -551h171l-13 -76h-249l13 72v1l268 551h-171zM411 690h-230l-10 -57h175l-274 -563l-11 -61h230l10 57h-175l274 563zM304 731l-84 159h79l24 -46l41 46h79zM238 880l70 -132l116 132h-56l-47 -53l-28 53h-55z" />
    <glyph glyph-name="uni2c5" unicode="&#x2c5;" horiz-adv-x="324" 
d="M154 650l41 46h79l-140 -159l-84 159h79zM150 634l-28 53h-55l70 -132l116 132h-55z" />
    <glyph glyph-name="beta" unicode="&#x3b2;" horiz-adv-x="463" 
d="M315 750q24 0 43.5 -9t32.5 -25t18.5 -37t1.5 -45l-28 -157q-8 -45 -43 -77q25 -32 17 -77l-28 -157q-4 -24 -17 -45t-31.5 -37t-41 -25t-46.5 -9h-33l13 76h34q17 0 30.5 11.5t16.5 28.5l28 157q3 17 -6.5 28.5t-26.5 11.5h-34l13 76h33q17 0 30.5 11.5t16.5 28.5
l28 157q3 17 -6.5 28.5t-26.5 11.5h-18q-17 0 -30.5 -11.5t-16.5 -28.5l-112 -637h-76l112 637q4 24 17 45t31.5 37t41 25t46.5 9h18zM402 635q4 22 -1 41t-17 33.5t-29.5 23t-39.5 8.5h-18q-22 0 -42.5 -8.5t-37.5 -23t-28.5 -33.5t-15.5 -41l-111 -627h57l111 627
q4 20 21 34.5t37 14.5h18q20 0 32 -14.5t8 -34.5l-28 -157q-4 -20 -21 -34.5t-37 -14.5h-24l-10 -57h24q20 0 32 -14.5t8 -34.5l-28 -157q-4 -20 -21 -34.5t-37 -14.5h-24l-10 -57h24q22 0 42.5 8.5t37.5 23t28.5 33.5t15.5 41l28 157q8 43 -17 74l-3 3l4 3q35 31 43 74
l28 157z" />
    <glyph glyph-name="endash" unicode="&#x2013;" horiz-adv-x="585" 
d="M536 380l-14 -77h-472l14 77h472zM524 370h-452l-10 -57h452z" />
    <glyph glyph-name="emdash" unicode="&#x2014;" horiz-adv-x="812" 
d="M762 379l-14 -77h-698l14 77h698zM750 369h-679l-10 -57h679z" />
    <glyph glyph-name="quoteleft" unicode="&#x2018;" horiz-adv-x="258" 
d="M204 697l-50 -110l-12 -70h-95l13 71q2 6 4 9h-1l4 4l3 3l83 94zM191 687h-37l-74 -84h1l-6 -6q-5 -5 -6 -9l-11 -61h76l11 62z" />
    <glyph glyph-name="quoteright" unicode="&#x2019;" horiz-adv-x="258" 
d="M198 628q-2 -6 -4 -9h1l-4 -4l-3 -3l-83 -94h-54l50 110l12 70h95zM198 690h-76l-11 -62l-45 -99h37l74 84h-1l6 6q4 4 6 9z" />
    <glyph glyph-name="quotesinglbase" unicode="&#x201a;" horiz-adv-x="258" 
d="M198 13q-2 -6 -4 -9h1l-4 -4l-3 -3l-83 -94h-54l50 110l12 70h95zM198 75h-76l-11 -62l-45 -99h37l74 84h-1l6 6q4 4 6 9z" />
    <glyph glyph-name="quotedblleft" unicode="&#x201c;" horiz-adv-x="416" 
d="M150 700h54l-50 -110l-12 -70h-95l13 71q2 6 4 9h-1l4 4l3 3zM154 689l-74 -84h1l-6 -6q-5 -5 -6 -9l-11 -61h76l11 62l45 99zM360 698l-50 -110l-12 -70h-95l13 71q2 6 4 9h-1l4 4l3 3l83 94zM347 688h-37l-74 -84h1l-6 -6q-5 -5 -6 -9l-11 -61h76l11 62z" />
    <glyph glyph-name="quotedblright" unicode="&#x201d;" horiz-adv-x="416" 
d="M354 629q0 -3 -2 -9h1l-4 -5l-3 -3l-83 -94h-54l50 110l12 70h95zM354 691h-76l-11 -62l-45 -99h37l73 83h-1l7 7q4 4 6 9zM113 703h95l-13 -71q0 -3 -2 -9h1l-4 -5l-3 -3l-83 -94h-54l50 110zM120 694l-11 -62l-45 -99h37l73 83h-1l7 7q4 4 6 9l11 61z" />
    <glyph glyph-name="quotedblbase" unicode="&#x201e;" horiz-adv-x="416" 
d="M356 13q-2 -6 -4 -9h1l-4 -4l-3 -3l-83 -94h-54l50 110l12 70h95zM356 75h-76l-11 -62l-45 -99h37l74 84h-1l6 6q4 4 6 9zM117 86h95l-13 -71q-2 -6 -4 -9h1l-4 -4l-3 -3l-83 -94h-54l50 110zM200 77h-76l-11 -62l-45 -99h37l74 84h-1l6 6q4 4 6 9l11 61z" />
    <glyph glyph-name="dagger" unicode="&#x2020;" 
d="M385 488l-13 -76h-123l-57 -325h-76l57 325h-123l13 76h123l24 134h76l-24 -134h123zM374 479h-123l24 134h-57l-24 -134h-123l-10 -57h123l-57 -325h57l57 325h123z" />
    <glyph glyph-name="bullet" unicode="&#x2022;" horiz-adv-x="387" 
d="M218 490q29 0 53 -11t39.5 -30t22 -45t1.5 -55t-21 -55t-38.5 -45t-50.5 -30t-57 -11t-53 11t-39.5 30t-22 45t-1.5 55t21 55t38.5 45t50.5 30t57 11zM325 349q5 27 -1 51t-21 42t-37.5 28.5t-49.5 10.5t-53 -10.5t-47 -28.5t-35.5 -42t-19.5 -51t1 -51t21 -42
t37.5 -28.5t49.5 -10.5t53 10.5t47 28.5t35.5 42t19.5 51z" />
    <glyph glyph-name="ellipsis" unicode="&#x2026;" horiz-adv-x="621" 
d="M67 94h95l-17 -95h-95zM75 84l-13 -76h76l13 76h-76zM570 94l-17 -95h-95l17 95h95zM558 84h-76l-13 -76h76zM270 93h95l-17 -95h-95zM278 83l-13 -76h76l13 76h-76z" />
    <glyph glyph-name="Euro" unicode="&#x20ac;" horiz-adv-x="476" 
d="M328 689q24 0 43.5 -9t32.5 -25t18.5 -37t1.5 -45l-15 -84h-76l15 84q3 17 -6.5 28.5t-26.5 11.5h-18q-17 0 -30.5 -11.5t-16.5 -28.5l-25 -140h105l-11 -64h-105l-11 -61h105l-11 -64h-105l-25 -140q-3 -17 6.5 -28.5t26.5 -11.5h18q17 0 30.5 11.5t16.5 28.5l15 84h76
l-15 -84q-4 -24 -17 -45t-31.5 -37t-41 -25t-46.5 -9h-18q-24 0 -43.5 9t-32.5 25t-18.5 37t-1.5 45l25 140h-67l11 64h67l11 61h-67l11 64h67l25 140q4 24 17 45t31.5 37t41 25t46.5 9h18zM414 571q4 22 -1 41t-17 33.5t-29.5 23t-39.5 8.5h-18q-22 0 -42.5 -8.5t-37.5 -23
t-28.5 -33.5t-15.5 -41l-26 -149h-67l-8 -45h67l-14 -80h-67l-8 -45h67l-26 -149q-4 -22 1 -41t17 -33.5t29.5 -23t39.5 -8.5h18q22 0 42.5 8.5t37.5 23t28.5 33.5t15.5 41l13 74h-57l-13 -74q-4 -20 -21 -34.5t-37 -14.5h-18q-20 0 -32 14.5t-8 34.5l26 150h105l8 45h-105
l14 80h105l8 45h-105l26 150q4 20 21 34.5t37 14.5h18q20 0 32 -14.5t8 -34.5l-13 -74h57l13 74v-2z" />
    <glyph glyph-name="quoteleft.alt1" unicode="&#xf001;" horiz-adv-x="258" 
d="M204 697l-50 -110l-12 -70h-95l13 71q2 6 4 9h-1l4 4l3 3l83 94zM191 687h-37l-74 -84h1l-6 -6q-5 -5 -6 -9l-11 -61h76l11 62z" />
    <glyph glyph-name="quotedblleft.alt1" unicode="&#xf002;" horiz-adv-x="416" 
d="M150 697h54l-50 -110l-12 -70h-95l13 71q2 6 4 9h-1l4 4l3 3zM154 686l-74 -84h1l-6 -6q-5 -5 -6 -9l-11 -61h76l11 62l45 99zM360 695l-50 -110l-12 -70h-95l13 71q2 6 4 9h-1l4 4l3 3l83 94zM347 685h-37l-74 -84h1l-6 -6q-5 -5 -6 -9l-11 -61h76l11 62z" />
    <glyph glyph-name="controlCR" horiz-adv-x="0" 
 />
    </font>
</defs>
</svg>
