<?xml version="1.0" standalone="no"?>
<!DOCTYPE svg PUBLIC "-//W3C//DTD SVG 1.1//EN" "http://www.w3.org/Graphics/SVG/1.1/DTD/svg11.dtd" >
<svg xmlns="http://www.w3.org/2000/svg" xmlns:xlink="http://www.w3.org/1999/xlink" version="1.1">
<metadata>
Created by FontForge 20170731 at Sun Apr  1 15:47:02 2018
 By Aleksey,,,
Copyright (c) 2018 by Craft Supply Co.. All rights reserved.
</metadata>
<defs>
<font id="PrestageOutline" horiz-adv-x="349" >
  <font-face 
    font-family="Prestage Outline"
    font-weight="400"
    font-stretch="normal"
    units-per-em="1000"
    panose-1="0 0 0 0 0 0 0 0 0 0"
    ascent="800"
    descent="-200"
    x-height="700"
    cap-height="700"
    bbox="46 -123 748 896"
    underline-thickness="0"
    underline-position="0"
    unicode-range="U+000D-F002"
  />
<missing-glyph horiz-adv-x="500" 
 />
    <glyph glyph-name=".notdef" horiz-adv-x="500" 
 />
    <glyph glyph-name=".null" horiz-adv-x="0" 
 />
    <glyph glyph-name="nonmarkingreturn" unicode="&#xd;" horiz-adv-x="182" 
 />
    <glyph glyph-name="LF" horiz-adv-x="0" 
 />
    <glyph glyph-name="LF" horiz-adv-x="0" 
 />
    <glyph glyph-name="space" unicode=" " horiz-adv-x="182" 
 />
    <glyph glyph-name="exclam" unicode="!" horiz-adv-x="195" 
d="M136 124h-76v547h76v-547zM126 661h-57v-527h57v527zM145 97v-95h-95v95h95zM135 87h-76v-76h76v76z" />
    <glyph glyph-name="quotedbl" unicode="&#x22;" horiz-adv-x="384" 
d="M332 629q0 -6 -1 -9h1l-3 -5q0 -2 -1 -3l-66 -94h-54l31 110v70h95zM322 630v61h-76v-62l-28 -99h37l59 83h-1l6 7q3 4 3 9v1zM76 703h95v-71q0 -6 -1 -9h1l-3 -5q0 -2 -1 -3l-66 -94h-54l31 110zM86 632l-28 -99h37l59 83h-1l6 7q3 4 3 9v61h-76v-61z" />
    <glyph glyph-name="numbersign" unicode="#" horiz-adv-x="530" 
d="M393 409l-13 -114h85v-65h-92l-19 -170h-65l19 170h-114l-19 -170h-65l19 170h-80v65h87l13 114h-85v65h92l19 170h65l-19 -170h114l19 170h65l-19 -170h80v-65h-87zM385 419h86v46h-81l19 170h-46l-19 -170h-133l19 170h-46l-19 -170h-91v-46h86l-15 -133h-86v-46h81
l-19 -170h46l19 170h133l-19 -170h46l19 170h91v46h-86zM207 419h133l-15 -133h-133zM215 409l-13 -114h114l13 114h-114z" />
    <glyph glyph-name="dollar" unicode="$" 
d="M299 489h-76v84q0 21 -18 32q-9 6 -21 6h-18q-12 0 -21 -6q-18 -11 -18 -32v-133q0 -21 16 -32l108 -77q23 -17 35.5 -41.5t12.5 -52.5v-133q0 -41 -26 -73q-25 -30 -61 -39v-31h-76v31q-36 9 -61 39q-26 32 -26 73v84h76v-84q0 -21 18 -32q9 -6 21 -6h18q12 0 21 6
q18 11 18 32v133q0 21 -16 32l-108 77q-23 17 -35.5 41.5t-12.5 52.5v133q0 41 26 73q25 30 61 39v31h76v-31q36 -9 61 -39q26 -32 26 -73v-84zM210 614q22 -14 22 -41v-74h57v74q0 37 -23.5 66.5t-59.5 37.5l-4 1v29h-57v-29l-4 -1q-36 -8 -59.5 -37.5t-23.5 -66.5v-133
q0 -26 12 -48.5t33 -37.5l108 -77q21 -15 21 -40v-133q0 -27 -22 -41q-13 -8 -27 -8h-18q-14 0 -27 8q-22 14 -22 41v74h-57v-74q0 -37 23.5 -66.5t59.5 -37.5l4 -1v-29h57v29l4 1q36 8 59.5 37.5t23.5 66.5v133q0 26 -12 48.5t-33 37.5l-108 77q-21 15 -21 40v133
q0 27 22 41q13 8 27 8h18q14 0 27 -8z" />
    <glyph glyph-name="percent" unicode="%" horiz-adv-x="616" 
d="M475 689l-257 -700h-77l257 700h77zM461 680h-56l-250 -681h56zM141 335q-38 0 -64.5 26.5t-26.5 64.5v117q0 38 26.5 64.5t64.5 26.5h14q38 0 64.5 -26.5t26.5 -64.5v-117q0 -38 -26.5 -64.5t-64.5 -26.5h-14zM60 426q0 -34 24 -58t58 -24h14q34 0 58 24t24 58v117
q0 34 -24 58t-58 24h-14q-34 0 -58 -24t-24 -58v-117zM195 426q0 -17 -11.5 -28.5t-28.5 -11.5h-14q-17 0 -28.5 11.5t-11.5 28.5v117q0 17 11.5 28.5t28.5 11.5h14q17 0 28.5 -11.5t11.5 -28.5v-117zM112 426q0 -12 8.5 -20.5t20.5 -8.5h14q12 0 20.5 8.5t8.5 20.5v117
q0 12 -8.5 20.5t-20.5 8.5h-14q-12 0 -20.5 -8.5t-8.5 -20.5v-117zM476 293q17 0 28.5 -11.5t11.5 -28.5v-117q0 -17 -11.5 -28.5t-28.5 -11.5h-14q-17 0 -28.5 11.5t-11.5 28.5v117q0 17 11.5 28.5t28.5 11.5h14zM506 254q0 12 -8.5 20.5t-20.5 8.5h-14q-12 0 -20.5 -8.5
t-8.5 -20.5v-117q0 -12 8.5 -20.5t20.5 -8.5h14q12 0 20.5 8.5t8.5 20.5v117zM476 345q38 0 64.5 -26.5t26.5 -64.5v-117q0 -38 -26.5 -64.5t-64.5 -26.5h-14q-38 0 -64.5 26.5t-26.5 64.5v117q0 38 26.5 64.5t64.5 26.5h14zM557 254q0 34 -24 58t-58 24h-14q-34 0 -58 -24
t-24 -58v-117q0 -34 24 -58t58 -24h14q34 0 58 24t24 58v117z" />
    <glyph glyph-name="ampersand" unicode="&#x26;" horiz-adv-x="396" 
d="M116 269q0 20 14.5 34.5t34.5 14.5h67v-206q0 -20 -14.5 -34.5t-34.5 -14.5h-18q-20 0 -34.5 14.5t-14.5 34.5v157zM165 309q-17 0 -28.5 -11.5t-11.5 -28.5v-157q0 -17 11.5 -28.5t28.5 -11.5h18q17 0 28.5 11.5t11.5 28.5v196zM346 386v-76h-47v-196q0 -24 -9 -45
t-25 -37t-37 -25t-45 -9h-18q-24 0 -45 9t-37 25t-25 37t-9 45v157q0 44 30 77q-30 33 -30 77v157q0 24 9 45t25 37t37 25t45 9h18q24 0 45 -9t37 -25t25 -37t9 -45v-84h-76v84q0 17 -11.5 28.5t-28.5 11.5h-18q-17 0 -28.5 -11.5t-11.5 -28.5v-157q0 -17 11.5 -28.5
t28.5 -11.5zM336 376h-171q-20 0 -34.5 14.5t-14.5 34.5v157q0 20 14.5 34.5t34.5 14.5h18q20 0 34.5 -14.5t14.5 -34.5v-74h57v74q0 22 -8.5 41t-23 33.5t-33.5 23t-41 8.5h-18q-22 0 -41 -8.5t-33.5 -23t-23 -33.5t-8.5 -41v-157q0 -43 31 -74l3 -3l-3 -3q-31 -31 -31 -74
v-157q0 -22 8.5 -41t23 -33.5t33.5 -23t41 -8.5h18q22 0 41 8.5t33.5 23t23 33.5t8.5 41v206h47v56z" />
    <glyph glyph-name="quotesingle" unicode="'" horiz-adv-x="226" 
d="M175 632q0 -3 -2 -9h1l-3 -4q0 -2 -1 -3l-66 -94h-54l31 110v70h95zM166 694h-76v-62l-28 -99h37l59 84h-1l5 6q3 4 3 9z" />
    <glyph glyph-name="parenleft" unicode="(" horiz-adv-x="276" 
d="M226 -36h-77l-53 138q-46 119 -46 245t46 245l53 138h77l-55 -142q-45 -117 -45 -240.5t45 -240.5zM155 -28h56l-49 128q-46 119 -46 245t46 245l50 128h-56l-51 -132q-45 -117 -45 -240.5t45 -240.5z" />
    <glyph glyph-name="parenright" unicode=")" horiz-adv-x="276" 
d="M180 599q46 -119 46 -245t-46 -245l-53 -138h-77l55 141q45 117 45 240.5t-45 240.5l-55 142h77l53 -138v2zM170 115q45 117 45 240.5t-45 240.5l-51 132h-56l50 -128q46 -119 46 -245t-46 -245l-49 -128h56l51 132z" />
    <glyph glyph-name="asterisk" unicode="*" horiz-adv-x="419" 
d="M272 543l97 -50l-39 -66l-89 60l7 -107h-77l7 107l-89 -60l-39 66l97 50l-97 50l39 66l89 -60l-7 107h77l-7 -107l89 60l39 -66zM251 543l105 54l-29 48l-97 -66l7 117h-56l7 -117l-97 66l-29 -48l105 -54l-105 -54l29 -48l97 65l-7 -116h56l-7 116l97 -65l29 48z" />
    <glyph glyph-name="plus" unicode="+" horiz-adv-x="498" 
d="M447 380v-71h-163v-163h-71v163h-163v71h163v163h71v-163h163zM437 370h-163v163h-52v-163h-163v-52h163v-163h52v163h163v52z" />
    <glyph glyph-name="comma" unicode="," horiz-adv-x="226" 
d="M175 83v-71q0 -3 -2 -9h1l-3 -4q0 -2 -1 -3l-66 -94h-54l31 110v70zM166 74h-76v-62l-28 -99h37l59 84h-1l5 6q3 4 3 9z" />
    <glyph glyph-name="hyphen" unicode="-" horiz-adv-x="328" 
d="M278 384v-77h-228v77h228zM268 374h-208v-57h208v57z" />
    <glyph glyph-name="period" unicode="." horiz-adv-x="195" 
d="M145 94v-95h-95v95h95zM135 84h-76v-76h76v76z" />
    <glyph glyph-name="slash" unicode="/" horiz-adv-x="446" 
d="M396 739l-2 -6l-267 -775h-77l2 6l267 775h77zM383 729h-56l-263 -762h56z" />
    <glyph glyph-name="zero" unicode="0" 
d="M298 599q1 -5 1 -15v-469q0 -24 -9 -45t-25 -37t-37 -25t-45 -9h-18q-39 0 -72 25q-37 29 -43 76q-1 5 -1 15v469q0 24 9 45t25 37t37 25t45 9h18q39 0 72 -25q37 -29 43 -76zM289 585q0 8 -1 13q-5 43 -39 70q-29 23 -66 23h-18q-22 0 -41 -8.5t-33.5 -23t-23 -33.5
t-8.5 -41v-469q0 -8 1 -13q5 -43 39 -70q29 -23 66 -23h18q22 0 41 8.5t33.5 23t23 33.5t8.5 41v469zM117 105l115 333v-322q0 -20 -14.5 -34.5t-34.5 -14.5h-18q-17 0 -29.5 10t-17.5 26zM127 104q4 -12 14 -19.5t23 -7.5h18q17 0 28.5 11.5t11.5 28.5v264zM231 596
l-115 -333v322q0 20 14.5 34.5t34.5 14.5h18q17 0 29.5 -10t17.5 -26zM221 597q-4 12 -14 19.5t-23 7.5h-18q-17 0 -28.5 -11.5t-11.5 -28.5v-264z" />
    <glyph glyph-name="one" unicode="1" horiz-adv-x="236" 
d="M186 700v-700h-76v624h-60v76h136zM176 691h-117v-57h60v-624h57v681z" />
    <glyph glyph-name="two" unicode="2" 
d="M143 190q-16 -11 -16 -32v-82h97v54h76v-130h-249v158q0 28 12.5 52.5t35.5 41.5l108 77q16 11 16 32v223q0 17 -11.5 28.5t-28.5 11.5h-18q-17 0 -28.5 -11.5t-11.5 -28.5v-84h-76v84q0 24 9 45t25 37t37 25t45 9h18q24 0 45 -9t37 -25t25 -37t9 -45v-223
q0 -28 -12.5 -52.5t-35.5 -41.5zM233 67h-116v91q0 25 21 40l108 77q21 15 33 37.5t12 48.5v223q0 22 -8.5 41t-23 33.5t-33.5 23t-41 8.5h-18q-22 0 -41 -8.5t-33.5 -23t-23 -33.5t-8.5 -41v-74h57v74q0 20 14.5 34.5t34.5 14.5h18q20 0 34.5 -14.5t14.5 -34.5v-223
q0 -25 -21 -40l-108 -77q-21 -15 -33 -37.5t-12 -48.5v-148h230v110h-57v-53z" />
    <glyph glyph-name="three" unicode="3" 
d="M299 425q0 -44 -30 -77q30 -33 30 -77v-157q0 -24 -9 -45t-25 -37t-37 -25t-45 -9h-18q-24 0 -45 9t-37 25t-25 37t-9 45v84h76v-84q0 -17 11.5 -28.5t28.5 -11.5h18q17 0 28.5 11.5t11.5 28.5v157q0 17 -11.5 28.5t-28.5 11.5h-19v76h19q17 0 28.5 11.5t11.5 28.5v157
q0 17 -11.5 28.5t-28.5 11.5h-18q-17 0 -28.5 -11.5t-11.5 -28.5v-84h-76v84q0 24 9 45t25 37t37 25t45 9h18q24 0 45 -9t37 -25t25 -37t9 -45v-159zM289 583q0 22 -8.5 41t-23 33.5t-33.5 23t-41 8.5h-18q-22 0 -41 -8.5t-33.5 -23t-23 -33.5t-8.5 -41v-74h57v74
q0 20 14.5 34.5t34.5 14.5h18q20 0 34.5 -14.5t14.5 -34.5v-157q0 -20 -14.5 -34.5t-34.5 -14.5h-9v-57h9q20 0 34.5 -14.5t14.5 -34.5v-157q0 -20 -14.5 -34.5t-34.5 -14.5h-18q-20 0 -34.5 14.5t-14.5 34.5v74h-57v-74q0 -22 8.5 -41t23 -33.5t33.5 -23t41 -8.5h18
q22 0 41 8.5t33.5 23t23 33.5t8.5 41v157q0 43 -31 74l-3 3l3 3q31 31 31 74v158z" />
    <glyph glyph-name="four" unicode="4" horiz-adv-x="336" 
d="M115 198l105 323v-323h-105zM210 460l-82 -252h82v252zM286 700v-700h-76v131h-160v72l161 497h75zM276 690h-58l-159 -488v-61h160v-131h57v680z" />
    <glyph glyph-name="five" unicode="5" 
d="M127 624v-103h57q24 0 45 -9t37 -25t25 -37t9 -45v-289q0 -24 -9 -45t-25 -37t-37 -25t-45 -9h-18q-24 0 -45 9t-37 25t-25 37t-9 45v84h76v-84q0 -17 11.5 -28.5t28.5 -11.5h18q17 0 28.5 11.5t11.5 28.5v289q0 17 -11.5 28.5t-28.5 11.5h-134v255h249v-76h-172z
M184 510h-67v123h173v57h-230v-236h124q20 0 34.5 -14.5t14.5 -34.5v-289q0 -20 -14.5 -34.5t-34.5 -14.5h-18q-20 0 -34.5 14.5t-14.5 34.5v74h-57v-74q0 -22 8.5 -41t23 -33.5t33.5 -23t41 -8.5h18q22 0 41 8.5t33.5 23t23 33.5t8.5 41v289q0 22 -8.5 41t-23 33.5
t-33.5 23t-41 8.5v-1z" />
    <glyph glyph-name="six" unicode="6" 
d="M223 500v84q0 17 -11.5 28.5t-28.5 11.5h-18q-17 0 -28.5 -11.5t-11.5 -28.5v-181q18 7 40 7h18q24 0 45 -9t37 -25t25 -37t9 -45v-179q0 -24 -9 -45t-25 -37t-37 -25t-45 -9h-18q-24 0 -45 9t-37 25t-25 37t-9 45v469q0 24 9 45t25 37t37 25t45 9h18q24 0 45 -9t37 -25
t25 -37t9 -45v-84h-76zM183 633q20 0 34.5 -14.5t14.5 -34.5v-74h57v74q0 22 -8.5 41t-23 33.5t-33.5 23t-41 8.5h-18q-22 0 -41 -8.5t-33.5 -23t-23 -33.5t-8.5 -41v-469q0 -22 8.5 -41t23 -33.5t33.5 -23t41 -8.5h18q22 0 41 8.5t33.5 23t23 33.5t8.5 41v179q0 22 -8.5 41
t-23 33.5t-33.5 23t-41 8.5h-18q-23 0 -42 -9l-7 -3v196q0 20 14.5 34.5t34.5 14.5h18zM116 294q0 20 14.5 34.5t34.5 14.5h18q20 0 34.5 -14.5t14.5 -34.5v-179q0 -20 -14.5 -34.5t-34.5 -14.5h-18q-20 0 -34.5 14.5t-14.5 34.5v179zM126 115q0 -17 11.5 -28.5t28.5 -11.5
h18q17 0 28.5 11.5t11.5 28.5v179q0 17 -11.5 28.5t-28.5 11.5h-18q-17 0 -28.5 -11.5t-11.5 -28.5v-179z" />
    <glyph glyph-name="seven" unicode="7" horiz-adv-x="341" 
d="M291 700v-72v0l-117 -628h-76l116 624h-164v76h241zM281 691h-222v-57h166l-116 -624h57l115 619v62z" />
    <glyph glyph-name="eight" unicode="8" 
d="M299 427q0 -44 -30 -77q30 -33 30 -77v-157q0 -24 -9 -45t-25 -37t-37 -25t-45 -9h-18q-24 0 -45 9t-37 25t-25 37t-9 45v157q0 44 30 77q-30 33 -30 77v157q0 24 9 45t25 37t37 25t45 9h18q24 0 45 -9t37 -25t25 -37t9 -45v-157zM289 584q0 22 -8.5 41t-23 33.5
t-33.5 23t-41 8.5h-18q-22 0 -41 -8.5t-33.5 -23t-23 -33.5t-8.5 -41v-157q0 -43 31 -74l3 -3l-3 -3q-31 -31 -31 -74v-157q0 -22 8.5 -41t23 -33.5t33.5 -23t41 -8.5h18q22 0 41 8.5t33.5 23t23 33.5t8.5 41v157q0 43 -31 74l-3 3l3 3q31 31 31 74v157zM183 633
q20 0 34.5 -14.5t14.5 -34.5v-157q0 -20 -14.5 -34.5t-34.5 -14.5h-18q-20 0 -34.5 14.5t-14.5 34.5v157q0 20 14.5 34.5t34.5 14.5h18zM223 584q0 17 -11.5 28.5t-28.5 11.5h-18q-17 0 -28.5 -11.5t-11.5 -28.5v-157q0 -17 11.5 -28.5t28.5 -11.5h18q17 0 28.5 11.5
t11.5 28.5v157zM183 321q20 0 34.5 -14.5t14.5 -34.5v-157q0 -20 -14.5 -34.5t-34.5 -14.5h-18q-20 0 -34.5 14.5t-14.5 34.5v157q0 20 14.5 34.5t34.5 14.5h18zM223 272q0 17 -11.5 28.5t-28.5 11.5h-18q-17 0 -28.5 -11.5t-11.5 -28.5v-157q0 -17 11.5 -28.5t28.5 -11.5
h18q17 0 28.5 11.5t11.5 28.5v157z" />
    <glyph glyph-name="nine" unicode="9" 
d="M184 634q20 0 34.5 -14.5t14.5 -34.5v-179q0 -20 -14.5 -34.5t-34.5 -14.5h-18q-20 0 -34.5 14.5t-14.5 34.5v179q0 20 14.5 34.5t34.5 14.5h18zM224 585q0 17 -11.5 28.5t-28.5 11.5h-18q-17 0 -28.5 -11.5t-11.5 -28.5v-179q0 -17 11.5 -28.5t28.5 -11.5h18
q17 0 28.5 11.5t11.5 28.5v179zM184 701q24 0 45 -9t37 -25t25 -37t9 -45v-469q0 -24 -9 -45t-25 -37t-37 -25t-45 -9h-18q-24 0 -45 9t-37 25t-25 37t-9 45v84h76v-84q0 -17 11.5 -28.5t28.5 -11.5h18q17 0 28.5 11.5t11.5 28.5v181q-18 -7 -40 -7h-18q-24 0 -45 9t-37 25
t-25 37t-9 45v179q0 24 9 45t25 37t37 25t45 9h18zM290 586q0 22 -8.5 41t-23 33.5t-33.5 23t-41 8.5h-18q-22 0 -41 -8.5t-33.5 -23t-23 -33.5t-8.5 -41v-179q0 -22 8.5 -41t23 -33.5t33.5 -23t41 -8.5h18q22 0 42 9l7 3v-196q0 -20 -14.5 -34.5t-34.5 -14.5h-18
q-20 0 -34.5 14.5t-14.5 34.5v74h-57v-74q0 -22 8.5 -41t23 -33.5t33.5 -23t41 -8.5h18q22 0 41 8.5t33.5 23t23 33.5t8.5 41v469z" />
    <glyph glyph-name="colon" unicode=":" horiz-adv-x="195" 
d="M145 553v-95h-95v95h95zM135 543h-76v-76h76v76zM49 236h95v-95h-95v95zM59 150h76v76h-76v-76z" />
    <glyph glyph-name="semicolon" unicode=";" horiz-adv-x="226" 
d="M80 234h95v-71q0 -3 -2 -9h1l-3 -4q0 -2 -1 -3l-66 -94h-54l31 110zM91 163l-28 -99h37l59 84h-1l5 6q3 4 3 9v61h-76zM176 550v-95h-95v95h95zM166 540h-76v-76h76v76z" />
    <glyph glyph-name="less" unicode="&#x3c;" horiz-adv-x="299" 
d="M134 348l115 -185h-85l-115 185l115 185h85zM122 348l109 175h-62l-109 -175l109 -175h62z" />
    <glyph glyph-name="equal" unicode="=" horiz-adv-x="484" 
d="M434 466v-71h-384v71h384zM424 456h-364v-52h364v52zM50 298h384v-71h-384v71zM60 236h364v52h-364v-52z" />
    <glyph glyph-name="greater" unicode="&#x3e;" horiz-adv-x="299" 
d="M250 341l-115 -185h-85l115 185l-115 185h85zM239 341l-109 175h-62l109 -175l-109 -175h62z" />
    <glyph glyph-name="question" unicode="?" 
d="M102 96h95v-95h-95v95zM112 10h76v76h-76v-76zM184 670q24 0 45 -9t37 -25t25 -37t9 -45v-193q0 -28 -12.5 -52.5t-35.5 -41.5l-45 -30q-16 -11 -16 -32v-82h-76v82q0 28 12.5 52.5t35.5 41.5l45 30q16 11 16 32v193q0 17 -11.5 28.5t-28.5 11.5h-18q-17 0 -28.5 -11.5
t-11.5 -28.5v-84h-76v84q0 24 9 45t25 37t37 25t45 9h18zM290 554q0 22 -8.5 41t-23 33.5t-33.5 23t-41 8.5h-18q-22 0 -41 -8.5t-33.5 -23t-23 -33.5t-8.5 -41v-74h57v74q0 20 14.5 34.5t34.5 14.5h18q20 0 34.5 -14.5t14.5 -34.5v-193q0 -25 -21 -40l-45 -30
q-21 -15 -33 -37.5t-12 -48.5v-72h57v72q0 25 21 40l45 30q21 15 33 37.5t12 48.5v193z" />
    <glyph glyph-name="at" unicode="@" horiz-adv-x="528" 
d="M270 532q14 0 24 -10t10 -24v-307q0 -14 -10 -24t-24 -10h-12q-14 0 -24 10t-10 24v307q0 14 10 24t24 10h12zM294 498q0 10 -7 17t-17 7h-12q-10 0 -17 -7t-7 -17v-307q0 -10 7 -17t17 -7h12q10 0 17 7t7 17v307zM387 671q19 0 36 -7t29.5 -19.5t19.5 -29.5t7 -36v-375
q0 -19 -7 -36t-19.5 -29.5t-29.5 -19.5t-36 -7q-35 0 -61 23q-23 -23 -56 -23h-12q-32 0 -55 23t-23 55v307q0 32 23 55t55 23h12q13 0 24 -4v7h55v-373q0 -15 11 -26t26 -11t26 11t11 26v366q0 19 -13.5 32.5t-32.5 13.5h-226q-19 0 -32.5 -13.5t-13.5 -32.5v-447
q0 -15 11 -26t26 -11h272v-55h-272q-19 0 -36 7t-29.5 19.5t-19.5 29.5t-7 36v456q0 19 7 36t19.5 29.5t29.5 19.5t36 7h244zM386 117q34 0 58 24t24 58v375q0 35 -24 59t-58 24h-244q-34 0 -58 -24t-24 -58v-456q0 -34 24 -58t58 -24h262v36h-262q-20 0 -33.5 13.5
t-13.5 33.5v447q0 23 16.5 39.5t39.5 16.5h226q23 0 39.5 -16.5t16.5 -39.5v-366q0 -20 -13.5 -33.5t-33.5 -13.5t-33.5 13.5t-13.5 33.5v363h-36v-11l-7 3q-14 6 -27 6h-12q-28 0 -47.5 -19.5t-19.5 -47.5v-307q0 -28 19.5 -47.5t47.5 -19.5h12q31 0 52 24l3 4l4 -4
q25 -23 59 -23z" />
    <glyph glyph-name="A" unicode="A" horiz-adv-x="423" 
d="M373 0h-76l-24 137h-123l-24 -137h-76l122 700h79zM303 10h57l-118 681h-63l-118 -681h57l24 137h139zM209 546l60 -342h-119zM257 214l-48 276l-48 -276h96z" />
    <glyph glyph-name="B" unicode="B" 
d="M183 322q20 0 34.5 -14.5t14.5 -34.5v-157q0 -20 -14.5 -34.5t-34.5 -14.5h-67v255h67zM223 272q0 17 -11.5 28.5t-28.5 11.5h-58v-236h58q17 0 28.5 11.5t11.5 28.5v156zM299 427q0 -44 -30 -77q30 -33 30 -77v-157q0 -24 -9 -45t-25 -37t-37 -25t-45 -9h-133v700h133
q24 0 45 -9t37 -25t25 -37t9 -45v-157zM289 585q0 22 -8.5 41t-23 33.5t-33.5 23t-41 8.5h-124v-681h124q22 0 41 8.5t33.5 23t23 33.5t8.5 41v157q0 43 -31 74l-3 3l3 3q31 31 31 74v158zM183 634q20 0 34.5 -14.5t14.5 -34.5v-157q0 -20 -14.5 -34.5t-34.5 -14.5h-67v255
h67zM224 584q0 17 -11.5 28.5t-28.5 11.5h-58v-236h57q17 0 28.5 11.5t11.5 28.5z" />
    <glyph glyph-name="C" unicode="C" 
d="M223 500v84q0 17 -11.5 28.5t-28.5 11.5h-18q-17 0 -28.5 -11.5t-11.5 -28.5v-469q0 -17 11.5 -28.5t28.5 -11.5h18q17 0 28.5 11.5t11.5 28.5v84h76v-84q0 -24 -9 -45t-25 -37t-37 -25t-45 -9h-18q-24 0 -45 9t-37 25t-25 37t-9 45v469q0 24 9 45t25 37t37 25t45 9h18
q24 0 45 -9t37 -25t25 -37t9 -45v-84h-76zM183 633q20 0 34.5 -14.5t14.5 -34.5v-74h57v74q0 22 -8.5 41t-23 33.5t-33.5 23t-41 8.5h-18q-22 0 -41 -8.5t-33.5 -23t-23 -33.5t-8.5 -41v-469q0 -22 8.5 -41t23 -33.5t33.5 -23t41 -8.5h18q22 0 41 8.5t33.5 23t23 33.5
t8.5 41v74h-57v-74q0 -20 -14.5 -34.5t-34.5 -14.5h-18q-20 0 -34.5 14.5t-14.5 34.5v469q0 20 14.5 34.5t34.5 14.5h18z" />
    <glyph glyph-name="D" unicode="D" 
d="M184 634q20 0 34.5 -14.5t14.5 -34.5v-469q0 -20 -14.5 -34.5t-34.5 -14.5h-67v567h67zM224 584q0 17 -11.5 28.5t-28.5 11.5h-58v-548h58q17 0 28.5 11.5t11.5 28.5v468zM184 701q24 0 45 -9t37 -25t25 -37t9 -45v-469q0 -24 -9 -45t-25 -37t-37 -25t-45 -9h-133v700
h133v1zM290 586q0 22 -8.5 41t-23 33.5t-33.5 23t-41 8.5h-124v-681h124q22 0 41 8.5t33.5 23t23 33.5t8.5 41v469z" />
    <glyph glyph-name="E" unicode="E" horiz-adv-x="341" 
d="M126 624v-236h133v-76h-133v-236h165v-76h-241v700h241v-76h-165zM250 379h-133v255h165v57h-222v-681h222v57h-165v255h133v57z" />
    <glyph glyph-name="F" unicode="F" horiz-adv-x="341" 
d="M126 624v-236h133v-76h-133v-312h-76v700h241v-76h-165zM250 379h-133v255h165v57h-222v-681h57v312h133v57z" />
    <glyph glyph-name="G" unicode="G" 
d="M223 500v84q0 17 -11.5 28.5t-28.5 11.5h-18q-17 0 -28.5 -11.5t-11.5 -28.5v-469q0 -17 11.5 -28.5t28.5 -11.5h18q17 0 28.5 11.5t11.5 28.5v130h-58v76h134v-206q0 -24 -9 -45t-25 -37t-37 -25t-45 -9h-18q-24 0 -45 9t-37 25t-25 37t-9 45v469q0 24 9 45t25 37t37 25
t45 9h18q24 0 45 -9t37 -25t25 -37t9 -45v-84h-76zM182 634q20 0 34.5 -14.5t14.5 -34.5v-74h57v74q0 22 -8.5 41t-23 33.5t-33.5 23t-41 8.5h-18q-22 0 -41 -8.5t-33.5 -23t-23 -33.5t-8.5 -41v-469q0 -22 8.5 -41t23 -33.5t33.5 -23t41 -8.5h18q22 0 41 8.5t33.5 23
t23 33.5t8.5 41v196h-114v-57h58v-140q0 -20 -14.5 -34.5t-34.5 -14.5h-18q-20 0 -34.5 14.5t-14.5 34.5v469q0 20 14.5 34.5t34.5 14.5h18z" />
    <glyph glyph-name="H" unicode="H" 
d="M299 700v-700h-76v312h-97v-312h-76v700h76v-312h97v312h76zM289 691h-57v-312h-116v312h-57v-681h57v312h116v-312h57v681z" />
    <glyph glyph-name="I" unicode="I" horiz-adv-x="176" 
d="M126 700v-700h-76v700h76zM116 691h-57v-681h57v681z" />
    <glyph glyph-name="J" unicode="J" 
d="M299 700v-584q0 -24 -9 -45t-25 -37t-37 -25t-45 -9h-18q-24 0 -45 9t-37 25t-25 37t-9 45v84h76v-84q0 -17 11.5 -28.5t28.5 -11.5h18q17 0 28.5 11.5t11.5 28.5v508h-77v76h153zM289 691h-134v-57h77v-518q0 -20 -14.5 -34.5t-34.5 -14.5h-18q-20 0 -34.5 14.5
t-14.5 34.5v74h-57v-74q0 -22 8.5 -41t23 -33.5t33.5 -23t41 -8.5h18q22 0 41 8.5t33.5 23t23 33.5t8.5 41v575z" />
    <glyph glyph-name="K" unicode="K" horiz-adv-x="351" 
d="M178 350l123 -350h-77l-98 280v-280h-76v700h76v-280l98 280h77zM168 351l119 340h-56l-115 -328v328h-57v-681h57v328l115 -328h56z" />
    <glyph glyph-name="L" unicode="L" horiz-adv-x="341" 
d="M291 76v-76h-241v700h76v-624h165zM281 67h-165v624h-57v-681h222v57z" />
    <glyph glyph-name="M" unicode="M" horiz-adv-x="417" 
d="M367 700v-700h-76v423l-46 -162h-74l-46 162v-423h-76v700h75l84 -298l84 298h75zM357 10v681h-58l-91 -324l-91 324h-58v-681h57v484l63 -223h59l63 223v-484h56z" />
    <glyph glyph-name="N" unicode="N" horiz-adv-x="382" 
d="M332 700v-700h-75l-131 440v-440h-76v700h75l131 -440v440h76zM322 691h-57v-496l-148 496h-58v-681h57v496l148 -496h58v681z" />
    <glyph glyph-name="O" unicode="O" 
d="M183 700q24 0 45 -9t37 -25t25 -37t9 -45v-469q0 -24 -9 -45t-25 -37t-37 -25t-45 -9h-18q-24 0 -45 9t-37 25t-25 37t-9 45v469q0 24 9 45t25 37t37 25t45 9h18zM289 585q0 22 -8.5 41t-23 33.5t-33.5 23t-41 8.5h-18q-22 0 -41 -8.5t-33.5 -23t-23 -33.5t-8.5 -41v-469
q0 -22 8.5 -41t23 -33.5t33.5 -23t41 -8.5h18q22 0 41 8.5t33.5 23t23 33.5t8.5 41v469zM183 634q20 0 34.5 -14.5t14.5 -34.5v-469q0 -20 -14.5 -34.5t-34.5 -14.5h-18q-20 0 -34.5 14.5t-14.5 34.5v469q0 20 14.5 34.5t34.5 14.5h18zM223 585q0 17 -11.5 28.5t-28.5 11.5
h-18q-17 0 -28.5 -11.5t-11.5 -28.5v-469q0 -17 11.5 -28.5t28.5 -11.5h18q17 0 28.5 11.5t11.5 28.5v469z" />
    <glyph glyph-name="P" unicode="P" 
d="M183 700q24 0 45 -9t37 -25t25 -37t9 -45v-234q0 -24 -9 -45t-25 -37t-37 -25t-45 -9h-57v-234h-76v700h133zM289 585q0 22 -8.5 41t-23 33.5t-33.5 23t-41 8.5h-124v-681h57v234h67q22 0 41 8.5t33.5 23t23 33.5t8.5 41v235zM183 634q20 0 34.5 -14.5t14.5 -34.5v-235
q0 -20 -14.5 -34.5t-34.5 -14.5h-67v333h67zM223 584q0 17 -11.5 28.5t-28.5 11.5h-58v-314h58q17 0 28.5 11.5t11.5 28.5v234z" />
    <glyph glyph-name="Q" unicode="Q" horiz-adv-x="346" 
d="M323 -43h-77l-33 46h-3q-13 -4 -30 -4h-18q-24 0 -45 9t-37 25t-25 37t-9 45v469q0 24 9 45t25 37t37 25t45 9h18q24 0 45 -9t37 -25t25 -37t9 -45v-469q0 -32 -17 -60l-3 -6v-2zM255 -34h55l-47 79l2 3l3 3l3 6q15 25 15 56v469q0 22 -8.5 41t-23 33.5t-33.5 23t-41 8.5
h-18q-22 0 -41 -8.5t-33.5 -23t-23 -33.5t-8.5 -41v-469q0 -22 8.5 -41t23 -33.5t33.5 -23t41 -8.5h18q16 0 28 4l6 3l3 1zM184 631q20 0 34.5 -14.5t14.5 -34.5v-469q0 -31 -28 -44q-10 -4 -15 -5h-4h-3h-18q-20 0 -34.5 14.5t-14.5 34.5v469q0 20 14.5 34.5t34.5 14.5h18
h1zM224 582q0 17 -11.5 28.5t-28.5 11.5h-18q-17 0 -28.5 -11.5t-11.5 -28.5v-469q0 -17 11.5 -28.5t28.5 -11.5h18h3h3q8 2 12 4q22 11 22 36v469z" />
    <glyph glyph-name="R" unicode="R" horiz-adv-x="352" 
d="M302 -1h-85l-91 207v-207h-76v700h133q24 0 45 -9t37 -25t25 -37t9 -45v-234q0 -22 -8 -41.5t-21.5 -34.5t-32 -25t-39.5 -13zM224 10h64l-103 234h7q21 1 38.5 10t31 23.5t21 33t7.5 39.5v234q0 22 -8.5 41t-23 33.5t-33.5 23t-41 8.5h-124v-681h57v244zM234 350
q0 -20 -14.5 -34.5t-34.5 -14.5h-67v333h67q20 0 34.5 -14.5t14.5 -34.5v-235zM185 309q17 0 28.5 11.5t11.5 28.5v235q0 17 -11.5 28.5t-28.5 11.5h-58v-314h58v-1z" />
    <glyph glyph-name="S" unicode="S" 
d="M299 500h-76v84q0 17 -11.5 28.5t-28.5 11.5h-18q-17 0 -28.5 -11.5t-11.5 -28.5v-133q0 -21 16 -32l108 -77q23 -17 35.5 -41.5t12.5 -52.5v-133q0 -24 -9 -45t-25 -37t-37 -25t-45 -9h-18q-24 0 -45 9t-37 25t-25 37t-9 45v84h76v-84q0 -17 11.5 -28.5t28.5 -11.5h18
q17 0 28.5 11.5t11.5 28.5v133q0 21 -16 32l-108 77q-23 17 -35.5 41.5t-12.5 52.5v133q0 24 9 45t25 37t37 25t45 9h18q24 0 45 -9t37 -25t25 -37t9 -45v-84zM183 633q20 0 34.5 -14.5t14.5 -34.5v-74h57v74q0 22 -8.5 41t-23 33.5t-33.5 23t-41 8.5h-18q-22 0 -41 -8.5
t-33.5 -23t-23 -33.5t-8.5 -41v-133q0 -26 12 -48.5t33 -37.5l108 -77q21 -15 21 -40v-133q0 -20 -14.5 -34.5t-34.5 -14.5h-18q-20 0 -34.5 14.5t-14.5 34.5v74h-57v-74q0 -22 8.5 -41t23 -33.5t33.5 -23t41 -8.5h18q22 0 41 8.5t33.5 23t23 33.5t8.5 41v133q0 26 -12 48.5
t-33 37.5l-108 77q-21 15 -21 40v133q0 20 14.5 34.5t34.5 14.5h18z" />
    <glyph glyph-name="T" unicode="T" horiz-adv-x="405" 
d="M354 700v-76h-114v-624h-76v624h-114v76h304zM345 634v57h-286v-57h114v-624h57v624h115z" />
    <glyph glyph-name="U" unicode="U" 
d="M299 700v-584q0 -24 -9 -45t-25 -37t-37 -25t-45 -9h-18q-24 0 -45 9t-37 25t-25 37t-9 45v584h76v-584q0 -17 11.5 -28.5t28.5 -11.5h18q17 0 28.5 11.5t11.5 28.5v584h76zM289 691h-57v-575q0 -20 -14.5 -34.5t-34.5 -14.5h-18q-20 0 -34.5 14.5t-14.5 34.5v575h-57
v-575q0 -22 8.5 -41t23 -33.5t33.5 -23t41 -8.5h18q22 0 41 8.5t33.5 23t23 33.5t8.5 41v575z" />
    <glyph glyph-name="V" unicode="V" horiz-adv-x="423" 
d="M374 700l-122 -700h-79l-122 700h76l85 -489l85 489h77zM363 691h-57l-93 -536l-93 536h-57l118 -681h63z" />
    <glyph glyph-name="W" unicode="W" horiz-adv-x="535" 
d="M486 700l-122 -700h-79l-17 95l-17 -95h-79l-122 700h76l85 -489l19 108h75l19 -108l85 489h77zM474 691h-57l-93 -536l-27 155h-58l-27 -155l-93 536h-57l118 -681h63l25 142l25 -142h63z" />
    <glyph glyph-name="X" unicode="X" horiz-adv-x="390" 
d="M244 350l96 -350h-81l-64 244l-64 -244h-81l96 350l-96 350h81l64 -244l64 244h81zM234 350v1l93 339h-60l-72 -273l-72 273h-60l93 -340v-1l-93 -339h60l72 273l72 -273h60z" />
    <glyph glyph-name="Y" unicode="Y" horiz-adv-x="390" 
d="M340 700l-107 -389v-311h-76v311l-107 389h81l64 -244l64 244h81zM327 690h-60l-72 -273l-72 273h-60l104 -378v-303h57v303v1z" />
    <glyph glyph-name="Z" unicode="Z" 
d="M299 627l-171 -551h171v-76h-249v72v1l171 551h-171v76h249v-72v-1zM290 690h-230v-57h175l-175 -563v-61h230v57h-175l175 563v61z" />
    <glyph glyph-name="bracketleft" unicode="[" horiz-adv-x="257" 
d="M126 657v-612h81v-76h-157v765h157v-76zM117 34v632h81v57h-138v-745h138v57z" />
    <glyph glyph-name="backslash" unicode="\" horiz-adv-x="446" 
d="M396 -38h-77l-269 781h77zM326 -28h56l-263 762h-56z" />
    <glyph glyph-name="bracketright" unicode="]" horiz-adv-x="257" 
d="M207 732v-765h-157v76h81v612h-81v76zM197 723h-138v-57h81v-632h-81v-57h138v746z" />
    <glyph glyph-name="asciicircum" unicode="^" horiz-adv-x="324" 
d="M50 549l112 159l112 -159h-79l-33 46l-33 -46h-79zM160 691l-93 -132h56l38 53l38 -53h56z" />
    <glyph glyph-name="underscore" unicode="_" horiz-adv-x="566" 
d="M516 70v-71h-466v71h466zM506 60h-446v-52h446v52z" />
    <glyph glyph-name="grave" unicode="`" horiz-adv-x="268" 
d="M49 702h98l71 -136h-77zM141 692h-74l78 -116h56z" />
    <glyph glyph-name="a" unicode="a" horiz-adv-x="423" 
d="M373 0h-76l-24 137h-123l-24 -137h-76l122 700h79zM303 10h57l-118 681h-63l-118 -681h57l24 137h139zM209 546l60 -342h-119zM257 214l-48 276l-48 -276h96z" />
    <glyph glyph-name="b" unicode="b" 
d="M183 322q20 0 34.5 -14.5t14.5 -34.5v-157q0 -20 -14.5 -34.5t-34.5 -14.5h-67v255h67zM223 272q0 17 -11.5 28.5t-28.5 11.5h-58v-236h58q17 0 28.5 11.5t11.5 28.5v156zM299 427q0 -44 -30 -77q30 -33 30 -77v-157q0 -24 -9 -45t-25 -37t-37 -25t-45 -9h-133v700h133
q24 0 45 -9t37 -25t25 -37t9 -45v-157zM289 585q0 22 -8.5 41t-23 33.5t-33.5 23t-41 8.5h-124v-681h124q22 0 41 8.5t33.5 23t23 33.5t8.5 41v157q0 43 -31 74l-3 3l3 3q31 31 31 74v158zM183 634q20 0 34.5 -14.5t14.5 -34.5v-157q0 -20 -14.5 -34.5t-34.5 -14.5h-67v255
h67zM224 584q0 17 -11.5 28.5t-28.5 11.5h-58v-236h57q17 0 28.5 11.5t11.5 28.5z" />
    <glyph glyph-name="c" unicode="c" 
d="M223 500v84q0 17 -11.5 28.5t-28.5 11.5h-18q-17 0 -28.5 -11.5t-11.5 -28.5v-469q0 -17 11.5 -28.5t28.5 -11.5h18q17 0 28.5 11.5t11.5 28.5v84h76v-84q0 -24 -9 -45t-25 -37t-37 -25t-45 -9h-18q-24 0 -45 9t-37 25t-25 37t-9 45v469q0 24 9 45t25 37t37 25t45 9h18
q24 0 45 -9t37 -25t25 -37t9 -45v-84h-76zM183 633q20 0 34.5 -14.5t14.5 -34.5v-74h57v74q0 22 -8.5 41t-23 33.5t-33.5 23t-41 8.5h-18q-22 0 -41 -8.5t-33.5 -23t-23 -33.5t-8.5 -41v-469q0 -22 8.5 -41t23 -33.5t33.5 -23t41 -8.5h18q22 0 41 8.5t33.5 23t23 33.5
t8.5 41v74h-57v-74q0 -20 -14.5 -34.5t-34.5 -14.5h-18q-20 0 -34.5 14.5t-14.5 34.5v469q0 20 14.5 34.5t34.5 14.5h18z" />
    <glyph glyph-name="d" unicode="d" 
d="M184 634q20 0 34.5 -14.5t14.5 -34.5v-469q0 -20 -14.5 -34.5t-34.5 -14.5h-67v567h67zM224 584q0 17 -11.5 28.5t-28.5 11.5h-58v-548h58q17 0 28.5 11.5t11.5 28.5v468zM184 701q24 0 45 -9t37 -25t25 -37t9 -45v-469q0 -24 -9 -45t-25 -37t-37 -25t-45 -9h-133v700
h133v1zM290 586q0 22 -8.5 41t-23 33.5t-33.5 23t-41 8.5h-124v-681h124q22 0 41 8.5t33.5 23t23 33.5t8.5 41v469z" />
    <glyph glyph-name="e" unicode="e" horiz-adv-x="341" 
d="M126 624v-236h133v-76h-133v-236h165v-76h-241v700h241v-76h-165zM250 379h-133v255h165v57h-222v-681h222v57h-165v255h133v57z" />
    <glyph glyph-name="f" unicode="f" horiz-adv-x="341" 
d="M126 624v-236h133v-76h-133v-312h-76v700h241v-76h-165zM250 379h-133v255h165v57h-222v-681h57v312h133v57z" />
    <glyph glyph-name="g" unicode="g" 
d="M223 500v84q0 17 -11.5 28.5t-28.5 11.5h-18q-17 0 -28.5 -11.5t-11.5 -28.5v-469q0 -17 11.5 -28.5t28.5 -11.5h18q17 0 28.5 11.5t11.5 28.5v130h-58v76h134v-206q0 -24 -9 -45t-25 -37t-37 -25t-45 -9h-18q-24 0 -45 9t-37 25t-25 37t-9 45v469q0 24 9 45t25 37t37 25
t45 9h18q24 0 45 -9t37 -25t25 -37t9 -45v-84h-76zM182 634q20 0 34.5 -14.5t14.5 -34.5v-74h57v74q0 22 -8.5 41t-23 33.5t-33.5 23t-41 8.5h-18q-22 0 -41 -8.5t-33.5 -23t-23 -33.5t-8.5 -41v-469q0 -22 8.5 -41t23 -33.5t33.5 -23t41 -8.5h18q22 0 41 8.5t33.5 23
t23 33.5t8.5 41v196h-114v-57h58v-140q0 -20 -14.5 -34.5t-34.5 -14.5h-18q-20 0 -34.5 14.5t-14.5 34.5v469q0 20 14.5 34.5t34.5 14.5h18z" />
    <glyph glyph-name="h" unicode="h" 
d="M299 700v-700h-76v312h-97v-312h-76v700h76v-312h97v312h76zM289 691h-57v-312h-116v312h-57v-681h57v312h116v-312h57v681z" />
    <glyph glyph-name="i" unicode="i" horiz-adv-x="176" 
d="M126 700v-700h-76v700h76zM116 691h-57v-681h57v681z" />
    <glyph glyph-name="j" unicode="j" 
d="M299 700v-584q0 -24 -9 -45t-25 -37t-37 -25t-45 -9h-18q-24 0 -45 9t-37 25t-25 37t-9 45v84h76v-84q0 -17 11.5 -28.5t28.5 -11.5h18q17 0 28.5 11.5t11.5 28.5v508h-77v76h153zM289 691h-134v-57h77v-518q0 -20 -14.5 -34.5t-34.5 -14.5h-18q-20 0 -34.5 14.5
t-14.5 34.5v74h-57v-74q0 -22 8.5 -41t23 -33.5t33.5 -23t41 -8.5h18q22 0 41 8.5t33.5 23t23 33.5t8.5 41v575z" />
    <glyph glyph-name="k" unicode="k" horiz-adv-x="351" 
d="M178 350l123 -350h-77l-98 280v-280h-76v700h76v-280l98 280h77zM168 351l119 340h-56l-115 -328v328h-57v-681h57v328l115 -328h56z" />
    <glyph glyph-name="l" unicode="l" horiz-adv-x="341" 
d="M291 76v-76h-241v700h76v-624h165zM281 67h-165v624h-57v-681h222v57z" />
    <glyph glyph-name="m" unicode="m" horiz-adv-x="417" 
d="M367 700v-700h-76v423l-46 -162h-74l-46 162v-423h-76v700h75l84 -298l84 298h75zM357 10v681h-58l-91 -324l-91 324h-58v-681h57v484l63 -223h59l63 223v-484h56z" />
    <glyph glyph-name="n" unicode="n" horiz-adv-x="382" 
d="M332 700v-700h-75l-131 440v-440h-76v700h75l131 -440v440h76zM322 691h-57v-496l-148 496h-58v-681h57v496l148 -496h58v681z" />
    <glyph glyph-name="o" unicode="o" 
d="M183 700q24 0 45 -9t37 -25t25 -37t9 -45v-469q0 -24 -9 -45t-25 -37t-37 -25t-45 -9h-18q-24 0 -45 9t-37 25t-25 37t-9 45v469q0 24 9 45t25 37t37 25t45 9h18zM289 585q0 22 -8.5 41t-23 33.5t-33.5 23t-41 8.5h-18q-22 0 -41 -8.5t-33.5 -23t-23 -33.5t-8.5 -41v-469
q0 -22 8.5 -41t23 -33.5t33.5 -23t41 -8.5h18q22 0 41 8.5t33.5 23t23 33.5t8.5 41v469zM183 634q20 0 34.5 -14.5t14.5 -34.5v-469q0 -20 -14.5 -34.5t-34.5 -14.5h-18q-20 0 -34.5 14.5t-14.5 34.5v469q0 20 14.5 34.5t34.5 14.5h18zM223 585q0 17 -11.5 28.5t-28.5 11.5
h-18q-17 0 -28.5 -11.5t-11.5 -28.5v-469q0 -17 11.5 -28.5t28.5 -11.5h18q17 0 28.5 11.5t11.5 28.5v469z" />
    <glyph glyph-name="p" unicode="p" 
d="M183 700q24 0 45 -9t37 -25t25 -37t9 -45v-234q0 -24 -9 -45t-25 -37t-37 -25t-45 -9h-57v-234h-76v700h133zM289 585q0 22 -8.5 41t-23 33.5t-33.5 23t-41 8.5h-124v-681h57v234h67q22 0 41 8.5t33.5 23t23 33.5t8.5 41v235zM183 634q20 0 34.5 -14.5t14.5 -34.5v-235
q0 -20 -14.5 -34.5t-34.5 -14.5h-67v333h67zM223 584q0 17 -11.5 28.5t-28.5 11.5h-58v-314h58q17 0 28.5 11.5t11.5 28.5v234z" />
    <glyph glyph-name="q" unicode="q" horiz-adv-x="346" 
d="M323 -43h-77l-33 46h-3q-13 -4 -30 -4h-18q-24 0 -45 9t-37 25t-25 37t-9 45v469q0 24 9 45t25 37t37 25t45 9h18q24 0 45 -9t37 -25t25 -37t9 -45v-469q0 -32 -17 -60l-3 -6v-2zM255 -34h55l-47 79l2 3l3 3l3 6q15 25 15 56v469q0 22 -8.5 41t-23 33.5t-33.5 23t-41 8.5
h-18q-22 0 -41 -8.5t-33.5 -23t-23 -33.5t-8.5 -41v-469q0 -22 8.5 -41t23 -33.5t33.5 -23t41 -8.5h18q16 0 28 4l6 3l3 1zM184 631q20 0 34.5 -14.5t14.5 -34.5v-469q0 -31 -28 -44q-10 -4 -15 -5h-4h-3h-18q-20 0 -34.5 14.5t-14.5 34.5v469q0 20 14.5 34.5t34.5 14.5h18
h1zM224 582q0 17 -11.5 28.5t-28.5 11.5h-18q-17 0 -28.5 -11.5t-11.5 -28.5v-469q0 -17 11.5 -28.5t28.5 -11.5h18h3h3q8 2 12 4q22 11 22 36v469z" />
    <glyph glyph-name="r" unicode="r" horiz-adv-x="352" 
d="M302 -1h-85l-91 207v-207h-76v700h133q24 0 45 -9t37 -25t25 -37t9 -45v-234q0 -22 -8 -41.5t-21.5 -34.5t-32 -25t-39.5 -13zM224 10h64l-103 234h7q21 1 38.5 10t31 23.5t21 33t7.5 39.5v234q0 22 -8.5 41t-23 33.5t-33.5 23t-41 8.5h-124v-681h57v244zM234 350
q0 -20 -14.5 -34.5t-34.5 -14.5h-67v333h67q20 0 34.5 -14.5t14.5 -34.5v-235zM185 309q17 0 28.5 11.5t11.5 28.5v235q0 17 -11.5 28.5t-28.5 11.5h-58v-314h58v-1z" />
    <glyph glyph-name="s" unicode="s" 
d="M299 500h-76v84q0 17 -11.5 28.5t-28.5 11.5h-18q-17 0 -28.5 -11.5t-11.5 -28.5v-133q0 -21 16 -32l108 -77q23 -17 35.5 -41.5t12.5 -52.5v-133q0 -24 -9 -45t-25 -37t-37 -25t-45 -9h-18q-24 0 -45 9t-37 25t-25 37t-9 45v84h76v-84q0 -17 11.5 -28.5t28.5 -11.5h18
q17 0 28.5 11.5t11.5 28.5v133q0 21 -16 32l-108 77q-23 17 -35.5 41.5t-12.5 52.5v133q0 24 9 45t25 37t37 25t45 9h18q24 0 45 -9t37 -25t25 -37t9 -45v-84zM183 633q20 0 34.5 -14.5t14.5 -34.5v-74h57v74q0 22 -8.5 41t-23 33.5t-33.5 23t-41 8.5h-18q-22 0 -41 -8.5
t-33.5 -23t-23 -33.5t-8.5 -41v-133q0 -26 12 -48.5t33 -37.5l108 -77q21 -15 21 -40v-133q0 -20 -14.5 -34.5t-34.5 -14.5h-18q-20 0 -34.5 14.5t-14.5 34.5v74h-57v-74q0 -22 8.5 -41t23 -33.5t33.5 -23t41 -8.5h18q22 0 41 8.5t33.5 23t23 33.5t8.5 41v133q0 26 -12 48.5
t-33 37.5l-108 77q-21 15 -21 40v133q0 20 14.5 34.5t34.5 14.5h18z" />
    <glyph glyph-name="s" unicode="&#xdf;" 
d="M299 500h-76v84q0 17 -11.5 28.5t-28.5 11.5h-18q-17 0 -28.5 -11.5t-11.5 -28.5v-133q0 -21 16 -32l108 -77q23 -17 35.5 -41.5t12.5 -52.5v-133q0 -24 -9 -45t-25 -37t-37 -25t-45 -9h-18q-24 0 -45 9t-37 25t-25 37t-9 45v84h76v-84q0 -17 11.5 -28.5t28.5 -11.5h18
q17 0 28.5 11.5t11.5 28.5v133q0 21 -16 32l-108 77q-23 17 -35.5 41.5t-12.5 52.5v133q0 24 9 45t25 37t37 25t45 9h18q24 0 45 -9t37 -25t25 -37t9 -45v-84zM183 633q20 0 34.5 -14.5t14.5 -34.5v-74h57v74q0 22 -8.5 41t-23 33.5t-33.5 23t-41 8.5h-18q-22 0 -41 -8.5
t-33.5 -23t-23 -33.5t-8.5 -41v-133q0 -26 12 -48.5t33 -37.5l108 -77q21 -15 21 -40v-133q0 -20 -14.5 -34.5t-34.5 -14.5h-18q-20 0 -34.5 14.5t-14.5 34.5v74h-57v-74q0 -22 8.5 -41t23 -33.5t33.5 -23t41 -8.5h18q22 0 41 8.5t33.5 23t23 33.5t8.5 41v133q0 26 -12 48.5
t-33 37.5l-108 77q-21 15 -21 40v133q0 20 14.5 34.5t34.5 14.5h18z" />
    <glyph glyph-name="t" unicode="t" horiz-adv-x="405" 
d="M354 700v-76h-114v-624h-76v624h-114v76h304zM345 634v57h-286v-57h114v-624h57v624h115z" />
    <glyph glyph-name="u" unicode="u" 
d="M299 700v-584q0 -24 -9 -45t-25 -37t-37 -25t-45 -9h-18q-24 0 -45 9t-37 25t-25 37t-9 45v584h76v-584q0 -17 11.5 -28.5t28.5 -11.5h18q17 0 28.5 11.5t11.5 28.5v584h76zM289 691h-57v-575q0 -20 -14.5 -34.5t-34.5 -14.5h-18q-20 0 -34.5 14.5t-14.5 34.5v575h-57
v-575q0 -22 8.5 -41t23 -33.5t33.5 -23t41 -8.5h18q22 0 41 8.5t33.5 23t23 33.5t8.5 41v575z" />
    <glyph glyph-name="v" unicode="v" horiz-adv-x="423" 
d="M374 700l-122 -700h-79l-122 700h76l85 -489l85 489h77zM363 691h-57l-93 -536l-93 536h-57l118 -681h63z" />
    <glyph glyph-name="w" unicode="w" horiz-adv-x="535" 
d="M486 700l-122 -700h-79l-17 95l-17 -95h-79l-122 700h76l85 -489l19 108h75l19 -108l85 489h77zM474 691h-57l-93 -536l-27 155h-58l-27 -155l-93 536h-57l118 -681h63l25 142l25 -142h63z" />
    <glyph glyph-name="x" unicode="x" horiz-adv-x="390" 
d="M244 350l96 -350h-81l-64 244l-64 -244h-81l96 350l-96 350h81l64 -244l64 244h81zM234 350v1l93 339h-60l-72 -273l-72 273h-60l93 -340v-1l-93 -339h60l72 273l72 -273h60z" />
    <glyph glyph-name="y" unicode="y" horiz-adv-x="390" 
d="M340 700l-107 -389v-311h-76v311l-107 389h81l64 -244l64 244h81zM327 690h-60l-72 -273l-72 273h-60l104 -378v-303h57v303v1z" />
    <glyph glyph-name="z" unicode="z" 
d="M299 627l-171 -551h171v-76h-249v72v1l171 551h-171v76h249v-72v-1zM290 690h-230v-57h175l-175 -563v-61h230v57h-175l175 563v61z" />
    <glyph glyph-name="braceleft" unicode="{" horiz-adv-x="279" 
d="M229 40v-76h-5q-24 0 -45 9t-37 25t-25 37t-9 45v189q0 17 -11.5 28.5t-28.5 11.5h-19v76h19q17 0 28.5 11.5t11.5 28.5v189q0 24 9 45t25 37t37 25t45 9h5v-76h-5q-17 0 -28.5 -11.5t-11.5 -28.5v-189q0 -44 -30 -77q30 -33 30 -77v-189q0 -17 11.5 -28.5t28.5 -11.5z
M117 83q0 -21 8 -40t21.5 -33.5t32 -23.5t39.5 -10v57q-19 2 -31.5 15.5t-12.5 33.5v189q0 43 -31 74l-3 3l3 3q31 31 31 74v189q0 20 13 33.5t32 15.5v57q-21 -1 -39.5 -10t-32 -23.5t-21.5 -33.5t-8 -40v-189q0 -20 -14.5 -34.5t-34.5 -14.5h-9v-57h9q20 0 34.5 -14.5
t14.5 -34.5v-189z" />
    <glyph glyph-name="bar" unicode="|" horiz-adv-x="176" 
d="M126 753v-798h-76v798h76zM116 743h-57v-779h57v779z" />
    <glyph glyph-name="braceright" unicode="}" horiz-adv-x="279" 
d="M229 392v-76h-19q-17 0 -28.5 -11.5t-11.5 -28.5v-189q0 -24 -9 -45t-25 -37t-37 -25t-45 -9h-5v76h5q17 0 28.5 11.5t11.5 28.5v189q0 44 30 77q-30 33 -30 77v189q0 17 -11.5 28.5t-28.5 11.5h-5v76h5q24 0 45 -9t37 -25t25 -37t9 -45v-189q0 -17 11.5 -28.5
t28.5 -11.5zM218 321v57h-9q-20 0 -34.5 14.5t-14.5 34.5v189q0 21 -8 40t-21.5 33.5t-32 23.5t-39.5 10v-57q19 -2 32 -15.5t13 -32.5v-189q0 -43 31 -74l3 -3l-3 -3q-31 -31 -31 -74v-189q0 -19 -12.5 -32.5t-31.5 -15.5v-57q21 1 39.5 10t32 23.5t21.5 33.5t8 40v189
q0 20 14.5 34.5t34.5 14.5z" />
    <glyph glyph-name="asciitilde" unicode="~" horiz-adv-x="403" 
d="M78 296l-27 52l28 18q28 17 61 20.5t64 -8.5l23 -9q17 -7 36 -5t35 12l28 18l27 -52l-28 -18q-28 -17 -61 -20.5t-64 8.5l-23 9q-17 7 -36 5t-35 -12zM64 345l18 -35l20 12q18 11 39 13.5t41 -5.5l23 -9q29 -11 59.5 -8.5t56.5 19.5l21 13l-18 35l-20 -12
q-18 -11 -39 -13.5t-41 5.5l-23 9q-29 11 -59.5 8.5t-56.5 -19.5z" />
    <glyph glyph-name="nonbreakingspace" unicode="&#xa0;" horiz-adv-x="182" 
 />
    <glyph glyph-name="exclamdown" unicode="&#xa1;" horiz-adv-x="195" 
d="M60 546h76v-547h-76v547zM70 9h57v527h-57v-527zM146 669v-95h-95v95h95zM136 659h-76v-76h76v76z" />
    <glyph glyph-name="cent" unicode="&#xa2;" 
d="M223 402v84q0 21 -18 32q-9 6 -21 6h-18q-12 0 -21 -6q-18 -11 -18 -32v-292q0 -21 18 -32q9 -6 21 -6h18q12 0 21 6q18 11 18 32v84h76v-84q0 -41 -26 -73q-25 -30 -61 -39v-48h-76v48q-36 9 -61 39q-26 32 -26 73v291q0 41 26 73q25 30 61 39v48h76v-48q36 -9 61 -39
q26 -32 26 -73v-84zM210 526q22 -14 22 -41v-74h57v74q0 37 -23.5 66.5t-59.5 37.5l-4 1v46h-57v-46l-4 -1q-36 -8 -59.5 -37.5t-23.5 -66.5v-291q0 -37 23.5 -66.5t59.5 -37.5l4 -1v-46h57v46l4 1q36 8 59.5 37.5t23.5 66.5v74h-57v-74q0 -27 -22 -41q-13 -8 -27 -8h-18
q-14 0 -27 8q-22 14 -22 41v292q0 27 22 41q13 8 27 8h18q14 0 27 -8v-1z" />
    <glyph glyph-name="sterling" unicode="&#xa3;" horiz-adv-x="383" 
d="M258 446v84q0 17 -11.5 28.5t-28.5 11.5h-18q-17 0 -28.5 -11.5t-11.5 -28.5v-198h90v-76h-90v-190h173v-76h-283v76h33v190h-33v76h33v197q0 24 9 45t25 37t37 25t45 9h18q24 0 45 -9t37 -25t25 -37t9 -45v-84zM218 579q20 0 34.5 -14.5t14.5 -34.5v-74h57v74
q0 22 -8.5 41t-23 33.5t-33.5 23t-41 8.5h-18q-22 0 -41 -8.5t-33.5 -23t-23 -33.5t-8.5 -41v-207h-33v-57h33v-209h-33v-57h263v57h-173v209h90v57h-90v207q0 20 14.5 34.5t34.5 14.5h18z" />
    <glyph glyph-name="yen" unicode="&#xa5;" horiz-adv-x="390" 
d="M233 280h105v-64h-105v-61h105v-64h-105v-102h-76v102h-105v64h105v61h-105v64h105v20l-107 389h81l64 -244l64 244h81l-107 -389v-20zM223 270v31v1l104 377h-60l-72 -273l-72 273h-60l104 -378v-31h-105v-45h105v-80h-105v-45h105v-102h57v102h105v45h-105v80h105v45
h-106z" />
    <glyph glyph-name="section" unicode="&#xa7;" horiz-adv-x="363" 
d="M117 428q8 -13 23 -24l95 -68q19 -13 19 -35v-44l-9 13q-8 13 -23 24l-95 68q-19 13 -19 35v44zM244 300q0 18 -14 27l-95 68q-10 7 -17 15v-14q0 -18 14 -27l95 -68q10 -7 17 -15v14zM244 521v74q0 14 -10 24t-24 10h-16q-23 0 -31 -21q-3 -6 -3 -13v-117q0 -18 14 -27
l95 -68q20 -14 31.5 -36t11.5 -47v-117q0 -25 -11 -47t-31 -36q0 -21 -8 -39.5t-22 -32.5t-32.5 -22t-39.5 -8h-16q-21 0 -39.5 8t-32.5 22t-22 32.5t-8 39.5v74h68v-74q0 -14 10 -24t24 -10h16q23 0 31 21q3 6 3 13v117q0 18 -14 27l-95 68q-20 14 -31.5 36t-11.5 47v117
q0 25 11 47t31 36q0 21 8 39.5t22 32.5t32.5 22t39.5 8h16q21 0 39.5 -8t32.5 -22t22 -32.5t8 -39.5v-74h-68zM210 639q18 0 31 -13t13 -31v-65h49v65q0 19 -7.5 36t-20 29.5t-29.5 20t-36 7.5h-16q-19 0 -36 -7.5t-29.5 -20t-20 -29.5t-7.5 -36v-5l-2 -1q-19 -13 -29.5 -33
t-10.5 -43v-117q0 -23 10.5 -42.5t28.5 -32.5l95 -68q19 -13 19 -35v-117q0 -10 -3 -17q-5 -12 -16 -19.5t-25 -7.5h-16q-18 0 -31 13t-13 31v65h-49v-65q0 -19 7.5 -36t20 -29.5t29.5 -20t36 -7.5h16q19 0 36 7.5t29.5 20t20 29.5t7.5 36v5l2 1q19 13 29.5 33t10.5 43v117
q0 23 -10.5 42.5t-28.5 32.5l-95 68q-19 13 -19 35v117q0 9 3 17q5 12 16 19.5t25 7.5h16z" />
    <glyph glyph-name="dieresis" unicode="&#xa8;" horiz-adv-x="400" 
d="M50 700h95v-95h-95v95zM60 614h76v76h-76v-76zM350 700v-95h-95v95h95zM340 690h-76v-76h76v76z" />
    <glyph glyph-name="copyright" unicode="&#xa9;" horiz-adv-x="667" 
d="M333 630q58 0 110 -22.5t90 -60.5t60.5 -90t22.5 -110q0 -59 -22.5 -110.5t-60.5 -89.5t-90 -60.5t-110 -22.5q-59 0 -110.5 22.5t-89.5 60.5t-60.5 89.5t-22.5 110.5q0 58 22.5 110t60.5 90t89.5 60.5t110.5 22.5zM333 73q57 0 106.5 21.5t87 59t59 87t21.5 106.5
t-21.5 106.5t-59 87t-87 59t-106.5 21.5t-106.5 -21.5t-87 -59t-59 -87t-21.5 -106.5t21.5 -106.5t59 -87t87 -59t106.5 -21.5zM333 592q51 0 95.5 -19.5t77.5 -52.5t52.5 -77.5t19.5 -95.5t-19.5 -95.5t-52.5 -77.5t-77.5 -52.5t-95.5 -19.5t-95.5 19.5t-77.5 52.5
t-52.5 77.5t-19.5 95.5t19.5 95.5t52.5 77.5t77.5 52.5t95.5 19.5zM333 112q49 0 92 18.5t75 50.5t50.5 75t18.5 92t-18.5 92t-50.5 75t-75 50.5t-92 18.5t-92 -18.5t-75 -50.5t-50.5 -75t-18.5 -92t18.5 -92t50.5 -75t75 -50.5t92 -18.5zM338 546q28 0 47.5 -19.5
t19.5 -47.5v-49h-47v49q0 8 -6 14t-14 6h-10q-8 0 -14 -6t-6 -14v-263q0 -8 6 -14t14 -6h10q8 0 14 6t6 14v49h47v-49q0 -28 -19.5 -47.5t-47.5 -19.5h-10q-28 0 -47.5 19.5t-19.5 47.5v263q0 28 19.5 47.5t47.5 19.5h10zM395 479q0 24 -17 41t-41 17h-10q-24 0 -41 -17
t-17 -41v-263q0 -24 17 -41t41 -17h10q24 0 41 17t17 41v39h-28v-39q0 -12 -8.5 -20.5t-20.5 -8.5h-10q-12 0 -20.5 8.5t-8.5 20.5v263q0 12 8.5 20.5t20.5 8.5h10q12 0 20.5 -8.5t8.5 -20.5v-39h28v39z" />
    <glyph glyph-name="guillemotleft" unicode="&#xab;" horiz-adv-x="472" 
d="M307 333l115 -185h-85l-115 185l115 185h85zM295 333l109 175h-62l-109 -175l109 -175h62zM133 333l115 -185h-85l-115 185l115 185h85zM121 333l109 175h-62l-109 -175l109 -175h62z" />
    <glyph glyph-name="registered" unicode="&#xae;" horiz-adv-x="430" 
d="M215 702q34 0 64 -13t52.5 -35.5t35.5 -52.5t13 -64t-13 -64t-35.5 -52.5t-52.5 -35.5t-64 -13t-64 13t-52.5 35.5t-35.5 52.5t-13 64t13 64t35.5 52.5t52.5 35.5t64 13zM215 382q32 0 60.5 12.5t49.5 33.5t33.5 49.5t12.5 60.5t-12.5 60.5t-33.5 49.5t-49.5 33.5
t-60.5 12.5t-60.5 -12.5t-49.5 -33.5t-33.5 -49.5t-12.5 -60.5t12.5 -60.5t33.5 -49.5t49.5 -33.5t60.5 -12.5zM215 680q30 0 56 -11t45.5 -30.5t30.5 -45.5t11 -56t-11 -56t-30.5 -45.5t-45.5 -30.5t-56 -11t-56 11t-45.5 30.5t-30.5 45.5t-11 56t11 56t30.5 45.5
t45.5 30.5t56 11zM215 404q27 0 51.5 10.5t42.5 28.5t28.5 42.5t10.5 51.5t-10.5 51.5t-28.5 42.5t-42.5 28.5t-51.5 10.5t-51.5 -10.5t-42.5 -28.5t-28.5 -42.5t-10.5 -51.5t10.5 -51.5t28.5 -42.5t42.5 -28.5t51.5 -10.5zM251 537q0 -12 -7.5 -21.5t-18.5 -12.5l29 -66
h-31l-19 44v-44h-28v201h41q15 0 25.5 -10.5t10.5 -25.5v-65h-2zM210 511h7q11 1 18 8t7 18v65q0 11 -7.5 18.5t-18.5 7.5h-31v-182h9v173h22q7 0 12 -5t5 -12v-65q0 -7 -5 -12t-12 -5h-19l32 -74h10zM203 531h12q7 0 7 7v65q0 7 -7 7h-12v-79z" />
    <glyph glyph-name="degree" unicode="&#xb0;" horiz-adv-x="266" 
d="M133 703q35 0 59 -24t24 -59t-24 -59t-59 -24t-59 24t-24 59t24 59t59 24zM133 547q30 0 51.5 21.5t21.5 51.5t-21.5 51.5t-51.5 21.5t-51.5 -21.5t-21.5 -51.5t21.5 -51.5t51.5 -21.5zM133 672q21 0 36 -15t15 -36t-15 -36t-36 -15t-36 15t-15 36t15 36t36 15zM133 579
q17 0 29.5 12.5t12.5 29.5t-12.5 29.5t-29.5 12.5t-29.5 -12.5t-12.5 -29.5t12.5 -29.5t29.5 -12.5z" />
    <glyph glyph-name="unib2" unicode="&#xb2;" horiz-adv-x="238" 
d="M101 410q-8 -6 -8 -16v-41h48v29h45v-74h-138v87q0 34 27 53l58 41q8 6 8 16v120q0 8 -5 13t-13 5h-10q-8 0 -13 -5t-5 -13v-47h-45v47q0 26 19 45t45 19h10q26 0 45 -19t19 -45v-120q0 -34 -27 -53l-58 -41zM81 342v51q0 15 12 23l58 41q23 16 23 45v120
q0 23 -15.5 38.5t-38.5 15.5h-10q-23 0 -38.5 -15.5t-15.5 -38.5v-37h26v38q0 12 8.5 20.5t20.5 8.5h10q12 0 20.5 -8.5t8.5 -20.5v-120q0 -16 -12 -23l-58 -41q-23 -16 -23 -45v-77h119v55h-26v-29z" />
    <glyph glyph-name="unib3" unicode="&#xb3;" horiz-adv-x="238" 
d="M187 544q0 -24 -15 -42q15 -18 15 -42v-84q0 -26 -19 -45t-45 -19h-10q-26 0 -45 19t-19 45v47h45v-47q0 -8 5 -13t13 -5h10q8 0 13 5t5 13v84q0 8 -5 13t-13 5h-12v45h12q8 0 13.5 5t5.5 13v84q0 8 -5 13t-13 5h-10q-8 0 -13 -5t-5 -13v-47h-45v47q0 26 19 45t45 19h10
q26 0 45 -19t19 -45zM178 628q0 23 -15.5 38.5t-38.5 15.5h-10q-23 0 -38.5 -15.5t-15.5 -38.5v-37h26v38q0 12 8.5 20.5t20.5 8.5h10q12 0 20.5 -8.5t8.5 -20.5v-84q0 -12 -8.5 -20.5t-20.5 -8.5h-3v-26h2q12 0 20.5 -8.5t8.5 -20.5v-84q0 -12 -8.5 -20.5t-20.5 -8.5h-10
q-12 0 -20.5 8.5t-8.5 20.5v38h-26v-37q0 -23 15.5 -38.5t38.5 -15.5h10q23 0 38.5 15.5t15.5 38.5v84q0 22 -16 38l-3 3l3 3q16 16 16 38z" />
    <glyph glyph-name="acute" unicode="&#xb4;" horiz-adv-x="268" 
d="M49 570l71 136h98l-91 -136h-78zM65 580h56l78 116h-74z" />
    <glyph glyph-name="periodcentered" unicode="&#xb7;" horiz-adv-x="195" 
d="M145 391v-95h-95v95h95zM135 381h-76v-76h76v76z" />
    <glyph glyph-name="cedilla" unicode="&#xb8;" horiz-adv-x="216" 
d="M89 -64v-5q0 -6 4.5 -10.5t10.5 -4.5h8q6 0 10.5 4.5t4.5 10.5v17q0 7 -6 12l-20 13q-22 16 -22 43v5h39v-5q0 -8 6 -12l20 -13q22 -16 22 -43v-17q0 -23 -15.5 -38.5t-38.5 -15.5h-8q-23 0 -38.5 15.5t-15.5 38.5v5h39zM105 -92q-9 0 -15.5 5.5t-8.5 13.5h-20
q2 -17 14.5 -28t29.5 -11h8q18 0 31 13t13 31v17q0 22 -19 35l-20 13q-8 6 -9 15h-20q2 -18 18 -30l20 -13q10 -8 10 -20v-17q0 -11 -7 -18t-18 -7h-8z" />
    <glyph glyph-name="unib9" unicode="&#xb9;" horiz-adv-x="178" 
d="M127 690v-380h-45v334h-32v45zM117 680h-58v-26h32v-334h26v360z" />
    <glyph glyph-name="guillemotright" unicode="&#xbb;" horiz-adv-x="472" 
d="M250 344l-115 -185h-85l115 185l-115 185h85zM239 344l-109 175h-62l109 -175l-109 -175h62zM423 344l-115 -185h-85l115 185l-115 185h85zM412 344l-109 175h-62l109 -175l-109 -175h62z" />
    <glyph glyph-name="questiondown" unicode="&#xbf;" 
d="M248 573h-95v95h95v-95zM238 659h-76v-76h76v76zM299 199v-84q0 -24 -9 -45t-25 -37t-37 -25t-45 -9h-18q-24 0 -45 9t-37 25t-25 37t-9 45v193q0 28 12.5 52.5t35.5 41.5l45 30q16 11 16 32v82h76v-82q0 -28 -12.5 -52.5t-35.5 -41.5l-45 -30q-16 -11 -16 -32v-193
q0 -17 11.5 -28.5t28.5 -11.5h18q17 0 28.5 11.5t11.5 28.5v84h76zM289 189h-57v-74q0 -20 -14.5 -34.5t-34.5 -14.5h-18q-20 0 -34.5 14.5t-14.5 34.5v193q0 25 21 40l45 30q21 15 33 37.5t12 48.5v72h-57v-72q0 -25 -21 -40l-45 -30q-21 -15 -33 -37.5t-12 -48.5v-193
q0 -22 8.5 -41t23 -33.5t33.5 -23t41 -8.5h18q22 0 41 8.5t33.5 23t23 33.5t8.5 41v74z" />
    <glyph glyph-name="Agrave" unicode="&#xc0;" horiz-adv-x="423" 
d="M184 745l-91 136h98l71 -136h-78zM111 871l78 -116h56l-60 116h-74zM210 546l60 -342h-119zM258 214l-48 276l-48 -276h96zM372 1h-76l-24 137h-123l-24 -137h-76l122 700h79zM302 11h57l-118 681h-63l-118 -681h57l24 137h139z" />
    <glyph glyph-name="Aacute" unicode="&#xc1;" horiz-adv-x="423" 
d="M237 745h-77l71 136h98zM232 755l78 116h-74l-60 -116h56zM210 546l60 -342h-119zM258 214l-48 276l-48 -276h96zM372 1h-76l-24 137h-123l-24 -137h-76l122 700h79zM302 11h57l-118 681h-63l-118 -681h57l24 137h139z" />
    <glyph glyph-name="Acircumflex" unicode="&#xc2;" horiz-adv-x="423" 
d="M211 546l60 -342h-119zM259 214l-48 276l-48 -276h96zM373 1h-76l-24 137h-123l-24 -137h-76l122 700h79zM303 11h57l-118 681h-63l-118 -681h57l24 137h139zM178 737h-79l112 159l112 -159h-79l-33 46zM172 747l38 53l38 -53h55l-93 132l-93 -132h55z" />
    <glyph glyph-name="Atilde" unicode="&#xc3;" horiz-adv-x="423" 
d="M211 546l60 -342h-119zM259 214l-48 276l-48 -276h96zM373 1h-76l-24 137h-123l-24 -137h-76l122 700h79zM303 11h57l-118 681h-63l-118 -681h57l24 137h139zM86 750l-27 52l28 18q28 17 61 20.5t64 -8.5l23 -9q17 -7 36 -5t35 12l28 18l27 -52l-28 -18
q-28 -17 -61 -20.5t-64 8.5l-23 9q-17 7 -36 5t-35 -12zM72 799l18 -35l20 12q18 11 39 13.5t41 -5.5l23 -9q29 -11 59.5 -8.5t56.5 19.5l21 13l-18 35l-20 -12q-18 -11 -39 -13.5t-41 5.5l-23 9q-29 11 -59.5 8.5t-56.5 -19.5z" />
    <glyph glyph-name="Adieresis" unicode="&#xc4;" horiz-adv-x="423" 
d="M211 546l60 -342h-119zM259 214l-48 276l-48 -276h96zM157 766h-95v95h95v-95zM147 852h-76v-76h76v76zM361 767h-95v95h95v-95zM351 853h-76v-76h76v76zM372 2h-76l-24 137h-123l-24 -137h-76l122 700h79zM302 12h57l-118 681h-63l-118 -681h57l24 137h139z" />
    <glyph glyph-name="Aring" unicode="&#xc5;" horiz-adv-x="423" 
d="M211 546l60 -342h-119zM259 214l-48 276l-48 -276h96zM211 762q-21 0 -36 15t-15 36t15 36t36 15t36 -15t15 -36t-15 -36t-36 -15zM211 855q-17 0 -29.5 -12.5t-12.5 -29.5t12.5 -29.5t29.5 -12.5t29.5 12.5t12.5 29.5t-12.5 29.5t-29.5 12.5zM211 730q-35 0 -59 24
t-24 59t24 59t59 24t59 -24t24 -59t-24 -59t-59 -24zM211 886q-30 0 -51.5 -21.5t-21.5 -51.5t21.5 -51.5t51.5 -21.5t51.5 21.5t21.5 51.5t-21.5 51.5t-51.5 21.5zM373 0h-76l-24 137h-123l-24 -137h-76l122 700h79zM303 10h57l-118 681h-63l-118 -681h57l24 137h139z" />
    <glyph glyph-name="AE" unicode="&#xc6;" horiz-adv-x="587" 
d="M373 624v-236h133v-76h-133v-236h165v-76h-241v137h-121l-48 -137h-77l245 700h241v-76h-164zM498 379h-133v255h165v57h-225l-239 -681h56l48 137h137v-137h222v57h-165v255h133zM308 205h-117l117 335v-335zM298 483l-94 -268h94v268z" />
    <glyph glyph-name="Ccedilla" unicode="&#xc7;" 
d="M221 501v84q0 17 -11.5 28.5t-28.5 11.5h-18q-17 0 -28.5 -11.5t-11.5 -28.5v-469q0 -17 11.5 -28.5t28.5 -11.5h18q17 0 28.5 11.5t11.5 28.5v84h76v-84q0 -38 -23 -69q-20 -28 -52 -40q9 -14 9 -31v-17q0 -23 -15.5 -38.5t-38.5 -15.5h-8q-23 0 -38.5 15.5t-15.5 38.5
v5h39v-5q0 -6 4.5 -10.5t10.5 -4.5h8q6 0 10.5 4.5t4.5 10.5v17q0 7 -6 12l-17 11h-4q-24 0 -45 9t-37 25t-25 37t-9 45v469q0 24 9 45t25 37t37 25t45 9h18q24 0 45 -9t37 -25t25 -37t9 -45v-84zM182 634q20 0 34.5 -14.5t14.5 -34.5v-74h57v74q0 22 -8.5 41t-23 33.5
t-33.5 23t-41 8.5h-18q-22 0 -41 -8.5t-33.5 -23t-23 -33.5t-8.5 -41v-469q0 -22 8.5 -41t23 -33.5t33.5 -23t41 -8.5h7l20 -13q10 -8 10 -20v-17q0 -11 -7 -18t-18 -7h-8q-9 0 -15.5 5.5t-8.5 13.5h-20q2 -17 14.5 -28t29.5 -11h8q18 0 31 13t13 31v17q0 17 -11 30l-5 6
l7 2q34 10 55 38.5t21 63.5v74h-57v-74q0 -20 -14.5 -34.5t-34.5 -14.5h-18q-20 0 -34.5 14.5t-14.5 34.5v469q0 20 14.5 34.5t34.5 14.5h18h1z" />
    <glyph glyph-name="Egrave" unicode="&#xc8;" horiz-adv-x="341" 
d="M126 624v-236h133v-76h-133v-236h165v-76h-241v700h241v-76h-165zM250 379h-133v255h165v57h-222v-681h222v57h-165v255h133v57zM156 746l-91 136h98l71 -136h-78zM83 872l78 -116h56l-60 116h-74z" />
    <glyph glyph-name="Eacute" unicode="&#xc9;" horiz-adv-x="341" 
d="M126 624v-236h133v-76h-133v-236h165v-76h-241v700h241v-76h-165zM250 379h-133v255h165v57h-222v-681h222v57h-165v255h133v57zM184 745h-77l71 136h98zM179 755l78 116h-74l-60 -116h56z" />
    <glyph glyph-name="Ecircumflex" unicode="&#xca;" horiz-adv-x="341" 
d="M126 624v-236h133v-76h-133v-236h165v-76h-241v700h241v-76h-165zM250 379h-133v255h165v57h-222v-681h222v57h-165v255h133v57zM138 736h-79l112 159l112 -159h-79l-33 46zM132 746l38 53l38 -53h55l-93 132l-93 -132h55z" />
    <glyph glyph-name="Edieresis" unicode="&#xcb;" horiz-adv-x="400" 
d="M79 700h241v-76h-165v-236h133v-76h-133v-236h165v-76h-241v700zM89 9h222v57h-165v255h133v57h-133v255h165v57h-222v-681zM146 765h-95v95h95v-95zM136 851h-76v-76h76v76zM350 861v-95h-95v95h95zM340 851h-76v-76h76v76z" />
    <glyph glyph-name="Igrave" unicode="&#xcc;" horiz-adv-x="268" 
d="M139 700h76v-700h-76v700zM149 9h57v681h-57v-681zM141 744l-91 136h98l71 -136h-78zM68 870l78 -116h56l-60 116h-74z" />
    <glyph glyph-name="Iacute" unicode="&#xcd;" horiz-adv-x="268" 
d="M53 700h76v-700h-76v700zM63 9h57v681h-57v-681zM126 744h-77l71 136h98zM121 754l78 116h-74l-60 -116h56z" />
    <glyph glyph-name="Icircumflex" unicode="&#xce;" horiz-adv-x="324" 
d="M124 700h76v-700h-76v700zM134 9h57v681h-57v-681zM129 735h-79l112 159l112 -159h-79l-33 46zM123 745l38 53l38 -53h55l-93 132l-93 -132h55z" />
    <glyph glyph-name="Idieresis" unicode="&#xcf;" horiz-adv-x="400" 
d="M162 700h76v-700h-76v700zM172 9h57v681h-57v-681zM51 860h95v-95h-95v95zM61 774h76v76h-76v-76zM351 860v-95h-95v95h95zM341 850h-76v-76h76v76z" />
    <glyph glyph-name="Ntilde" unicode="&#xd1;" horiz-adv-x="403" 
d="M266 700h76v-700h-75l-131 440v-440h-76v700h75l131 -440v440zM276 194l-148 496h-58v-681h57v496l148 -496h58v681h-57v-496zM78 748l-27 52l28 18q28 17 61 20.5t64 -8.5l23 -9q17 -7 36 -5t35 12l28 18l27 -52l-28 -18q-28 -17 -61 -20.5t-64 8.5l-23 9q-17 7 -36 5
t-35 -12zM64 797l18 -35l20 12q18 11 39 13.5t41 -5.5l23 -9q29 -11 59.5 -8.5t56.5 19.5l21 13l-18 35l-20 -12q-18 -11 -39 -13.5t-41 5.5l-23 9q-29 11 -59.5 8.5t-56.5 -19.5z" />
    <glyph glyph-name="Ograve" unicode="&#xd2;" 
d="M184 634q20 0 34.5 -14.5t14.5 -34.5v-469q0 -20 -14.5 -34.5t-34.5 -14.5h-18q-20 0 -34.5 14.5t-14.5 34.5v469q0 20 14.5 34.5t34.5 14.5h18zM224 585q0 17 -11.5 28.5t-28.5 11.5h-18q-17 0 -28.5 -11.5t-11.5 -28.5v-469q0 -17 11.5 -28.5t28.5 -11.5h18
q17 0 28.5 11.5t11.5 28.5v469zM184 701q24 0 45 -9t37 -25t25 -37t9 -45v-469q0 -24 -9 -45t-25 -37t-37 -25t-45 -9h-18q-24 0 -45 9t-37 25t-25 37t-9 45v469q0 24 9 45t25 37t37 25t45 9h18zM290 586q0 22 -8.5 41t-23 33.5t-33.5 23t-41 8.5h-18q-22 0 -41 -8.5
t-33.5 -23t-23 -33.5t-8.5 -41v-469q0 -22 8.5 -41t23 -33.5t33.5 -23t41 -8.5h18q22 0 41 8.5t33.5 23t23 33.5t8.5 41v469zM158 747l-91 136h98l71 -136h-78zM85 873l78 -116h56l-60 116h-74z" />
    <glyph glyph-name="Oacute" unicode="&#xd3;" 
d="M183 700q24 0 45 -9t37 -25t25 -37t9 -45v-469q0 -24 -9 -45t-25 -37t-37 -25t-45 -9h-18q-24 0 -45 9t-37 25t-25 37t-9 45v469q0 24 9 45t25 37t37 25t45 9h18zM289 585q0 22 -8.5 41t-23 33.5t-33.5 23t-41 8.5h-18q-22 0 -41 -8.5t-33.5 -23t-23 -33.5t-8.5 -41v-469
q0 -22 8.5 -41t23 -33.5t33.5 -23t41 -8.5h18q22 0 41 8.5t33.5 23t23 33.5t8.5 41v469zM183 634q20 0 34.5 -14.5t14.5 -34.5v-469q0 -20 -14.5 -34.5t-34.5 -14.5h-18q-20 0 -34.5 14.5t-14.5 34.5v469q0 20 14.5 34.5t34.5 14.5h18zM223 585q0 17 -11.5 28.5t-28.5 11.5
h-18q-17 0 -28.5 -11.5t-11.5 -28.5v-469q0 -17 11.5 -28.5t28.5 -11.5h18q17 0 28.5 11.5t11.5 28.5v469zM189 745h-77l71 136h98zM184 755l78 116h-74l-60 -116h56z" />
    <glyph glyph-name="Ocircumflex" unicode="&#xd4;" 
d="M183 700q24 0 45 -9t37 -25t25 -37t9 -45v-469q0 -24 -9 -45t-25 -37t-37 -25t-45 -9h-18q-24 0 -45 9t-37 25t-25 37t-9 45v469q0 24 9 45t25 37t37 25t45 9h18zM289 585q0 22 -8.5 41t-23 33.5t-33.5 23t-41 8.5h-18q-22 0 -41 -8.5t-33.5 -23t-23 -33.5t-8.5 -41v-469
q0 -22 8.5 -41t23 -33.5t33.5 -23t41 -8.5h18q22 0 41 8.5t33.5 23t23 33.5t8.5 41v469zM183 634q20 0 34.5 -14.5t14.5 -34.5v-469q0 -20 -14.5 -34.5t-34.5 -14.5h-18q-20 0 -34.5 14.5t-14.5 34.5v469q0 20 14.5 34.5t34.5 14.5h18zM223 585q0 17 -11.5 28.5t-28.5 11.5
h-18q-17 0 -28.5 -11.5t-11.5 -28.5v-469q0 -17 11.5 -28.5t28.5 -11.5h18q17 0 28.5 11.5t11.5 28.5v469zM141 736h-79l112 159l112 -159h-79l-33 46zM134 746l38 53l38 -53h56l-93 132l-93 -132h54z" />
    <glyph glyph-name="Otilde" unicode="&#xd5;" horiz-adv-x="403" 
d="M210 700q24 0 45 -9t37 -25t25 -37t9 -45v-469q0 -24 -9 -45t-25 -37t-37 -25t-45 -9h-18q-24 0 -45 9t-37 25t-25 37t-9 45v469q0 24 9 45t25 37t37 25t45 9h18zM316 585q0 22 -8.5 41t-23 33.5t-33.5 23t-41 8.5h-18q-22 0 -41 -8.5t-33.5 -23t-23 -33.5t-8.5 -41v-469
q0 -22 8.5 -41t23 -33.5t33.5 -23t41 -8.5h18q22 0 41 8.5t33.5 23t23 33.5t8.5 41v469zM210 634q20 0 34.5 -14.5t14.5 -34.5v-469q0 -20 -14.5 -34.5t-34.5 -14.5h-18q-20 0 -34.5 14.5t-14.5 34.5v469q0 20 14.5 34.5t34.5 14.5h18zM250 585q0 17 -11.5 28.5t-28.5 11.5
h-18q-17 0 -28.5 -11.5t-11.5 -28.5v-469q0 -17 11.5 -28.5t28.5 -11.5h18q17 0 28.5 11.5t11.5 28.5v469zM178 774q-17 7 -36 5t-35 -12l-29 -18l-27 52l28 18q28 17 61 20.5t64 -8.5l23 -9q17 -7 36 -5t35 12l28 18l27 -52l-28 -18q-28 -17 -61 -20.5t-64 8.5l-23 9h1z
M101 775q18 11 39 13.5t41 -5.5l23 -9q29 -11 59.5 -8.5t56.5 19.5l21 13l-18 35l-20 -12q-18 -11 -39 -13.5t-41 5.5l-23 9q-29 11 -59.5 8.5t-56.5 -19.5l-21 -13l18 -35z" />
    <glyph glyph-name="Odieresis" unicode="&#xd6;" horiz-adv-x="400" 
d="M209 700q24 0 45 -9t37 -25t25 -37t9 -45v-469q0 -24 -9 -45t-25 -37t-37 -25t-45 -9h-18q-24 0 -45 9t-37 25t-25 37t-9 45v469q0 24 9 45t25 37t37 25t45 9h18zM315 585q0 22 -8.5 41t-23 33.5t-33.5 23t-41 8.5h-18q-22 0 -41 -8.5t-33.5 -23t-23 -33.5t-8.5 -41v-469
q0 -22 8.5 -41t23 -33.5t33.5 -23t41 -8.5h18q22 0 41 8.5t33.5 23t23 33.5t8.5 41v469zM209 634q20 0 34.5 -14.5t14.5 -34.5v-469q0 -20 -14.5 -34.5t-34.5 -14.5h-18q-20 0 -34.5 14.5t-14.5 34.5v469q0 20 14.5 34.5t34.5 14.5h18zM249 585q0 17 -11.5 28.5t-28.5 11.5
h-18q-17 0 -28.5 -11.5t-11.5 -28.5v-469q0 -17 11.5 -28.5t28.5 -11.5h18q17 0 28.5 11.5t11.5 28.5v469zM146 766h-95v95h95v-95zM136 852h-76v-76h76v76zM350 862v-95h-95v95h95zM340 852h-76v-76h76v76z" />
    <glyph glyph-name="multiply" unicode="&#xd7;" horiz-adv-x="432" 
d="M267 341l115 -115l-50 -50l-115 115l-115 -115l-50 50l115 115l-115 115l50 50l115 -115l115 115l50 -50zM254 341l115 115l-37 37l-115 -115l-115 115l-37 -37l115 -115l-115 -115l37 -37l115 115l115 -115l37 37z" />
    <glyph glyph-name="Oslash" unicode="&#xd8;" horiz-adv-x="446" 
d="M347 598q1 -4 1 -7.5v-6.5v-469q0 -24 -9 -45t-25 -37t-37 -25t-45 -9h-18q-38 0 -66 21l-21 -62h-77l49 143q-1 4 -1 7.5v6.5v469q0 24 9 45t25 37t37 25t45 9h18q37 0 66 -21l21 62h77zM338 585q0 8 -1 13v1l46 132h-56l-23 -68l-5 4q-29 23 -66 23h-18q-22 0 -41 -8.5
t-33.5 -23t-23 -33.5t-8.5 -41v-469q0 -8 1 -13v-1l-46 -132h56l23 68l5 -4q29 -23 66 -23h18q22 0 41 8.5t33.5 23t23 33.5t8.5 41v469zM166 105l115 333v-322q0 -20 -14.5 -34.5t-34.5 -14.5h-18q-17 0 -29.5 10t-17.5 26zM176 104q4 -12 14 -19.5t23 -7.5h18
q17 0 28.5 11.5t11.5 28.5v264zM280 596l-115 -333v322q0 20 14.5 34.5t34.5 14.5h18q17 0 29.5 -10t17.5 -26zM270 597q-4 12 -14 19.5t-23 7.5h-18q-17 0 -28.5 -11.5t-11.5 -28.5v-264z" />
    <glyph glyph-name="Ugrave" unicode="&#xd9;" 
d="M299 700v-584q0 -24 -9 -45t-25 -37t-37 -25t-45 -9h-18q-24 0 -45 9t-37 25t-25 37t-9 45v584h76v-584q0 -17 11.5 -28.5t28.5 -11.5h18q17 0 28.5 11.5t11.5 28.5v584h76zM289 691h-57v-575q0 -20 -14.5 -34.5t-34.5 -14.5h-18q-20 0 -34.5 14.5t-14.5 34.5v575h-57
v-575q0 -22 8.5 -41t23 -33.5t33.5 -23t41 -8.5h18q22 0 41 8.5t33.5 23t23 33.5t8.5 41v575zM155 745l-91 136h98l71 -136h-78zM82 871l78 -116h56l-60 116h-74z" />
    <glyph glyph-name="Uacute" unicode="&#xda;" 
d="M299 700v-584q0 -24 -9 -45t-25 -37t-37 -25t-45 -9h-18q-24 0 -45 9t-37 25t-25 37t-9 45v584h76v-584q0 -17 11.5 -28.5t28.5 -11.5h18q17 0 28.5 11.5t11.5 28.5v584h76zM289 691h-57v-575q0 -20 -14.5 -34.5t-34.5 -14.5h-18q-20 0 -34.5 14.5t-14.5 34.5v575h-57
v-575q0 -22 8.5 -41t23 -33.5t33.5 -23t41 -8.5h18q22 0 41 8.5t33.5 23t23 33.5t8.5 41v575zM192 745h-77l71 136h98zM187 755l78 116h-74l-60 -116h56z" />
    <glyph glyph-name="Ucircumflex" unicode="&#xdb;" 
d="M299 700v-584q0 -24 -9 -45t-25 -37t-37 -25t-45 -9h-18q-24 0 -45 9t-37 25t-25 37t-9 45v584h76v-584q0 -17 11.5 -28.5t28.5 -11.5h18q17 0 28.5 11.5t11.5 28.5v584h76zM289 691h-57v-575q0 -20 -14.5 -34.5t-34.5 -14.5h-18q-20 0 -34.5 14.5t-14.5 34.5v575h-57
v-575q0 -22 8.5 -41t23 -33.5t33.5 -23t41 -8.5h18q22 0 41 8.5t33.5 23t23 33.5t8.5 41v575zM141 736h-79l112 159l112 -159h-79l-33 46zM134 746l38 53l38 -53h56l-93 132l-93 -132h54z" />
    <glyph glyph-name="Udieresis" unicode="&#xdc;" horiz-adv-x="400" 
d="M248 700h76v-584q0 -24 -9 -45t-25 -37t-37 -25t-45 -9h-18q-24 0 -45 9t-37 25t-25 37t-9 45v584h76v-584q0 -17 11.5 -28.5t28.5 -11.5h18q17 0 28.5 11.5t11.5 28.5v584zM257 691v-575q0 -20 -14.5 -34.5t-34.5 -14.5h-18q-20 0 -34.5 14.5t-14.5 34.5v575h-57v-575
q0 -22 8.5 -41t23 -33.5t33.5 -23t41 -8.5h18q22 0 41 8.5t33.5 23t23 33.5t8.5 41v575h-57zM144 766h-95v95h95v-95zM134 852h-76v-76h76v76zM348 862v-95h-95v95h95zM338 852h-76v-76h76v76z" />
    <glyph glyph-name="Yacute" unicode="&#xdd;" horiz-adv-x="390" 
d="M340 700l-107 -389v-311h-76v311l-107 389h81l64 -244l64 244h81zM327 690h-60l-72 -273l-72 273h-60l104 -378v-303h57v303v1zM211 744h-77l71 136h98zM206 754l78 116h-74l-60 -116h56z" />
    <glyph glyph-name="Thorn" unicode="&#xde;" 
d="M184 592q20 0 34.5 -14.5t14.5 -34.5v-355q0 -20 -14.5 -34.5t-34.5 -14.5h-67v453h67zM224 542q0 17 -11.5 28.5t-28.5 11.5h-58v-434h58q17 0 28.5 11.5t11.5 28.5v354zM184 659q24 0 45 -9t37 -25t25 -37t9 -45v-355q0 -24 -9 -45t-25 -37t-37 -25t-45 -9h-57v-72h-76
v730h76v-72h57v1zM290 543q0 22 -8.5 41t-23 33.5t-33.5 23t-41 8.5h-67v72h-57v-711h57v72h67q22 0 41 8.5t33.5 23t23 33.5t8.5 41v355z" />
    <glyph glyph-name="agrave" unicode="&#xe0;" horiz-adv-x="423" 
d="M184 745l-91 136h98l71 -136h-78zM111 871l78 -116h56l-60 116h-74zM210 546l60 -342h-119zM258 214l-48 276l-48 -276h96zM372 1h-76l-24 137h-123l-24 -137h-76l122 700h79zM302 11h57l-118 681h-63l-118 -681h57l24 137h139z" />
    <glyph glyph-name="aacute" unicode="&#xe1;" horiz-adv-x="423" 
d="M237 745h-77l71 136h98zM232 755l78 116h-74l-60 -116h56zM210 546l60 -342h-119zM258 214l-48 276l-48 -276h96zM372 1h-76l-24 137h-123l-24 -137h-76l122 700h79zM302 11h57l-118 681h-63l-118 -681h57l24 137h139z" />
    <glyph glyph-name="acircumflex" unicode="&#xe2;" horiz-adv-x="423" 
d="M211 546l60 -342h-119zM259 214l-48 276l-48 -276h96zM373 1h-76l-24 137h-123l-24 -137h-76l122 700h79zM303 11h57l-118 681h-63l-118 -681h57l24 137h139zM178 737h-79l112 159l112 -159h-79l-33 46zM172 747l38 53l38 -53h55l-93 132l-93 -132h55z" />
    <glyph glyph-name="atilde" unicode="&#xe3;" horiz-adv-x="423" 
d="M211 546l60 -342h-119zM259 214l-48 276l-48 -276h96zM373 1h-76l-24 137h-123l-24 -137h-76l122 700h79zM303 11h57l-118 681h-63l-118 -681h57l24 137h139zM86 750l-27 52l28 18q28 17 61 20.5t64 -8.5l23 -9q17 -7 36 -5t35 12l28 18l27 -52l-28 -18
q-28 -17 -61 -20.5t-64 8.5l-23 9q-17 7 -36 5t-35 -12zM72 799l18 -35l20 12q18 11 39 13.5t41 -5.5l23 -9q29 -11 59.5 -8.5t56.5 19.5l21 13l-18 35l-20 -12q-18 -11 -39 -13.5t-41 5.5l-23 9q-29 11 -59.5 8.5t-56.5 -19.5z" />
    <glyph glyph-name="adieresis" unicode="&#xe4;" horiz-adv-x="423" 
d="M211 546l60 -342h-119zM259 214l-48 276l-48 -276h96zM157 766h-95v95h95v-95zM147 852h-76v-76h76v76zM361 767h-95v95h95v-95zM351 853h-76v-76h76v76zM372 2h-76l-24 137h-123l-24 -137h-76l122 700h79zM302 12h57l-118 681h-63l-118 -681h57l24 137h139z" />
    <glyph glyph-name="aring" unicode="&#xe5;" horiz-adv-x="423" 
d="M211 546l60 -342h-119zM259 214l-48 276l-48 -276h96zM211 762q-21 0 -36 15t-15 36t15 36t36 15t36 -15t15 -36t-15 -36t-36 -15zM211 855q-17 0 -29.5 -12.5t-12.5 -29.5t12.5 -29.5t29.5 -12.5t29.5 12.5t12.5 29.5t-12.5 29.5t-29.5 12.5zM211 730q-35 0 -59 24
t-24 59t24 59t59 24t59 -24t24 -59t-24 -59t-59 -24zM211 886q-30 0 -51.5 -21.5t-21.5 -51.5t21.5 -51.5t51.5 -21.5t51.5 21.5t21.5 51.5t-21.5 51.5t-51.5 21.5zM373 0h-76l-24 137h-123l-24 -137h-76l122 700h79zM303 10h57l-118 681h-63l-118 -681h57l24 137h139z" />
    <glyph glyph-name="ae" unicode="&#xe6;" horiz-adv-x="587" 
d="M373 624v-236h133v-76h-133v-236h165v-76h-241v137h-121l-48 -137h-77l245 700h241v-76h-164zM498 379h-133v255h165v57h-225l-239 -681h56l48 137h137v-137h222v57h-165v255h133zM308 205h-117l117 335v-335zM298 483l-94 -268h94v268z" />
    <glyph glyph-name="ccedilla" unicode="&#xe7;" 
d="M221 501v84q0 17 -11.5 28.5t-28.5 11.5h-18q-17 0 -28.5 -11.5t-11.5 -28.5v-469q0 -17 11.5 -28.5t28.5 -11.5h18q17 0 28.5 11.5t11.5 28.5v84h76v-84q0 -38 -23 -69q-20 -28 -52 -40q9 -14 9 -31v-17q0 -23 -15.5 -38.5t-38.5 -15.5h-8q-23 0 -38.5 15.5t-15.5 38.5
v5h39v-5q0 -6 4.5 -10.5t10.5 -4.5h8q6 0 10.5 4.5t4.5 10.5v17q0 7 -6 12l-17 11h-4q-24 0 -45 9t-37 25t-25 37t-9 45v469q0 24 9 45t25 37t37 25t45 9h18q24 0 45 -9t37 -25t25 -37t9 -45v-84zM182 634q20 0 34.5 -14.5t14.5 -34.5v-74h57v74q0 22 -8.5 41t-23 33.5
t-33.5 23t-41 8.5h-18q-22 0 -41 -8.5t-33.5 -23t-23 -33.5t-8.5 -41v-469q0 -22 8.5 -41t23 -33.5t33.5 -23t41 -8.5h7l20 -13q10 -8 10 -20v-17q0 -11 -7 -18t-18 -7h-8q-9 0 -15.5 5.5t-8.5 13.5h-20q2 -17 14.5 -28t29.5 -11h8q18 0 31 13t13 31v17q0 17 -11 30l-5 6
l7 2q34 10 55 38.5t21 63.5v74h-57v-74q0 -20 -14.5 -34.5t-34.5 -14.5h-18q-20 0 -34.5 14.5t-14.5 34.5v469q0 20 14.5 34.5t34.5 14.5h18h1z" />
    <glyph glyph-name="egrave" unicode="&#xe8;" horiz-adv-x="341" 
d="M126 624v-236h133v-76h-133v-236h165v-76h-241v700h241v-76h-165zM250 379h-133v255h165v57h-222v-681h222v57h-165v255h133v57zM156 746l-91 136h98l71 -136h-78zM83 872l78 -116h56l-60 116h-74z" />
    <glyph glyph-name="eacute" unicode="&#xe9;" horiz-adv-x="341" 
d="M126 624v-236h133v-76h-133v-236h165v-76h-241v700h241v-76h-165zM250 379h-133v255h165v57h-222v-681h222v57h-165v255h133v57zM184 745h-77l71 136h98zM179 755l78 116h-74l-60 -116h56z" />
    <glyph glyph-name="ecircumflex" unicode="&#xea;" horiz-adv-x="341" 
d="M126 624v-236h133v-76h-133v-236h165v-76h-241v700h241v-76h-165zM250 379h-133v255h165v57h-222v-681h222v57h-165v255h133v57zM138 736h-79l112 159l112 -159h-79l-33 46zM132 746l38 53l38 -53h55l-93 132l-93 -132h55z" />
    <glyph glyph-name="edieresis" unicode="&#xeb;" horiz-adv-x="400" 
d="M79 700h241v-76h-165v-236h133v-76h-133v-236h165v-76h-241v700zM89 9h222v57h-165v255h133v57h-133v255h165v57h-222v-681zM146 765h-95v95h95v-95zM136 851h-76v-76h76v76zM350 861v-95h-95v95h95zM340 851h-76v-76h76v76z" />
    <glyph glyph-name="igrave" unicode="&#xec;" horiz-adv-x="268" 
d="M139 700h76v-700h-76v700zM149 9h57v681h-57v-681zM141 744l-91 136h98l71 -136h-78zM68 870l78 -116h56l-60 116h-74z" />
    <glyph glyph-name="iacute" unicode="&#xed;" horiz-adv-x="268" 
d="M53 700h76v-700h-76v700zM63 9h57v681h-57v-681zM126 744h-77l71 136h98zM121 754l78 116h-74l-60 -116h56z" />
    <glyph glyph-name="icircumflex" unicode="&#xee;" horiz-adv-x="324" 
d="M124 700h76v-700h-76v700zM134 9h57v681h-57v-681zM129 735h-79l112 159l112 -159h-79l-33 46zM123 745l38 53l38 -53h55l-93 132l-93 -132h55z" />
    <glyph glyph-name="idieresis" unicode="&#xef;" horiz-adv-x="400" 
d="M162 700h76v-700h-76v700zM172 9h57v681h-57v-681zM51 860h95v-95h-95v95zM61 774h76v76h-76v-76zM351 860v-95h-95v95h95zM341 850h-76v-76h76v76z" />
    <glyph glyph-name="ntilde" unicode="&#xf1;" horiz-adv-x="403" 
d="M266 700h76v-700h-75l-131 440v-440h-76v700h75l131 -440v440zM276 194l-148 496h-58v-681h57v496l148 -496h58v681h-57v-496zM78 748l-27 52l28 18q28 17 61 20.5t64 -8.5l23 -9q17 -7 36 -5t35 12l28 18l27 -52l-28 -18q-28 -17 -61 -20.5t-64 8.5l-23 9q-17 7 -36 5
t-35 -12zM64 797l18 -35l20 12q18 11 39 13.5t41 -5.5l23 -9q29 -11 59.5 -8.5t56.5 19.5l21 13l-18 35l-20 -12q-18 -11 -39 -13.5t-41 5.5l-23 9q-29 11 -59.5 8.5t-56.5 -19.5z" />
    <glyph glyph-name="ograve" unicode="&#xf2;" 
d="M184 634q20 0 34.5 -14.5t14.5 -34.5v-469q0 -20 -14.5 -34.5t-34.5 -14.5h-18q-20 0 -34.5 14.5t-14.5 34.5v469q0 20 14.5 34.5t34.5 14.5h18zM224 585q0 17 -11.5 28.5t-28.5 11.5h-18q-17 0 -28.5 -11.5t-11.5 -28.5v-469q0 -17 11.5 -28.5t28.5 -11.5h18
q17 0 28.5 11.5t11.5 28.5v469zM184 701q24 0 45 -9t37 -25t25 -37t9 -45v-469q0 -24 -9 -45t-25 -37t-37 -25t-45 -9h-18q-24 0 -45 9t-37 25t-25 37t-9 45v469q0 24 9 45t25 37t37 25t45 9h18zM290 586q0 22 -8.5 41t-23 33.5t-33.5 23t-41 8.5h-18q-22 0 -41 -8.5
t-33.5 -23t-23 -33.5t-8.5 -41v-469q0 -22 8.5 -41t23 -33.5t33.5 -23t41 -8.5h18q22 0 41 8.5t33.5 23t23 33.5t8.5 41v469zM158 747l-91 136h98l71 -136h-78zM85 873l78 -116h56l-60 116h-74z" />
    <glyph glyph-name="oacute" unicode="&#xf3;" 
d="M183 700q24 0 45 -9t37 -25t25 -37t9 -45v-469q0 -24 -9 -45t-25 -37t-37 -25t-45 -9h-18q-24 0 -45 9t-37 25t-25 37t-9 45v469q0 24 9 45t25 37t37 25t45 9h18zM289 585q0 22 -8.5 41t-23 33.5t-33.5 23t-41 8.5h-18q-22 0 -41 -8.5t-33.5 -23t-23 -33.5t-8.5 -41v-469
q0 -22 8.5 -41t23 -33.5t33.5 -23t41 -8.5h18q22 0 41 8.5t33.5 23t23 33.5t8.5 41v469zM183 634q20 0 34.5 -14.5t14.5 -34.5v-469q0 -20 -14.5 -34.5t-34.5 -14.5h-18q-20 0 -34.5 14.5t-14.5 34.5v469q0 20 14.5 34.5t34.5 14.5h18zM223 585q0 17 -11.5 28.5t-28.5 11.5
h-18q-17 0 -28.5 -11.5t-11.5 -28.5v-469q0 -17 11.5 -28.5t28.5 -11.5h18q17 0 28.5 11.5t11.5 28.5v469zM189 745h-77l71 136h98zM184 755l78 116h-74l-60 -116h56z" />
    <glyph glyph-name="ocircumflex" unicode="&#xf4;" 
d="M183 700q24 0 45 -9t37 -25t25 -37t9 -45v-469q0 -24 -9 -45t-25 -37t-37 -25t-45 -9h-18q-24 0 -45 9t-37 25t-25 37t-9 45v469q0 24 9 45t25 37t37 25t45 9h18zM289 585q0 22 -8.5 41t-23 33.5t-33.5 23t-41 8.5h-18q-22 0 -41 -8.5t-33.5 -23t-23 -33.5t-8.5 -41v-469
q0 -22 8.5 -41t23 -33.5t33.5 -23t41 -8.5h18q22 0 41 8.5t33.5 23t23 33.5t8.5 41v469zM183 634q20 0 34.5 -14.5t14.5 -34.5v-469q0 -20 -14.5 -34.5t-34.5 -14.5h-18q-20 0 -34.5 14.5t-14.5 34.5v469q0 20 14.5 34.5t34.5 14.5h18zM223 585q0 17 -11.5 28.5t-28.5 11.5
h-18q-17 0 -28.5 -11.5t-11.5 -28.5v-469q0 -17 11.5 -28.5t28.5 -11.5h18q17 0 28.5 11.5t11.5 28.5v469zM141 736h-79l112 159l112 -159h-79l-33 46zM134 746l38 53l38 -53h56l-93 132l-93 -132h54z" />
    <glyph glyph-name="otilde" unicode="&#xf5;" horiz-adv-x="403" 
d="M210 700q24 0 45 -9t37 -25t25 -37t9 -45v-469q0 -24 -9 -45t-25 -37t-37 -25t-45 -9h-18q-24 0 -45 9t-37 25t-25 37t-9 45v469q0 24 9 45t25 37t37 25t45 9h18zM316 585q0 22 -8.5 41t-23 33.5t-33.5 23t-41 8.5h-18q-22 0 -41 -8.5t-33.5 -23t-23 -33.5t-8.5 -41v-469
q0 -22 8.5 -41t23 -33.5t33.5 -23t41 -8.5h18q22 0 41 8.5t33.5 23t23 33.5t8.5 41v469zM210 634q20 0 34.5 -14.5t14.5 -34.5v-469q0 -20 -14.5 -34.5t-34.5 -14.5h-18q-20 0 -34.5 14.5t-14.5 34.5v469q0 20 14.5 34.5t34.5 14.5h18zM250 585q0 17 -11.5 28.5t-28.5 11.5
h-18q-17 0 -28.5 -11.5t-11.5 -28.5v-469q0 -17 11.5 -28.5t28.5 -11.5h18q17 0 28.5 11.5t11.5 28.5v469zM178 774q-17 7 -36 5t-35 -12l-29 -18l-27 52l28 18q28 17 61 20.5t64 -8.5l23 -9q17 -7 36 -5t35 12l28 18l27 -52l-28 -18q-28 -17 -61 -20.5t-64 8.5l-23 9h1z
M101 775q18 11 39 13.5t41 -5.5l23 -9q29 -11 59.5 -8.5t56.5 19.5l21 13l-18 35l-20 -12q-18 -11 -39 -13.5t-41 5.5l-23 9q-29 11 -59.5 8.5t-56.5 -19.5l-21 -13l18 -35z" />
    <glyph glyph-name="odieresis" unicode="&#xf6;" horiz-adv-x="400" 
d="M209 700q24 0 45 -9t37 -25t25 -37t9 -45v-469q0 -24 -9 -45t-25 -37t-37 -25t-45 -9h-18q-24 0 -45 9t-37 25t-25 37t-9 45v469q0 24 9 45t25 37t37 25t45 9h18zM315 585q0 22 -8.5 41t-23 33.5t-33.5 23t-41 8.5h-18q-22 0 -41 -8.5t-33.5 -23t-23 -33.5t-8.5 -41v-469
q0 -22 8.5 -41t23 -33.5t33.5 -23t41 -8.5h18q22 0 41 8.5t33.5 23t23 33.5t8.5 41v469zM209 634q20 0 34.5 -14.5t14.5 -34.5v-469q0 -20 -14.5 -34.5t-34.5 -14.5h-18q-20 0 -34.5 14.5t-14.5 34.5v469q0 20 14.5 34.5t34.5 14.5h18zM249 585q0 17 -11.5 28.5t-28.5 11.5
h-18q-17 0 -28.5 -11.5t-11.5 -28.5v-469q0 -17 11.5 -28.5t28.5 -11.5h18q17 0 28.5 11.5t11.5 28.5v469zM146 766h-95v95h95v-95zM136 852h-76v-76h76v76zM350 862v-95h-95v95h95zM340 852h-76v-76h76v76z" />
    <glyph glyph-name="oslash" unicode="&#xf8;" horiz-adv-x="446" 
d="M347 598q1 -4 1 -7.5v-6.5v-469q0 -24 -9 -45t-25 -37t-37 -25t-45 -9h-18q-38 0 -66 21l-21 -62h-77l49 143q-1 4 -1 7.5v6.5v469q0 24 9 45t25 37t37 25t45 9h18q37 0 66 -21l21 62h77zM338 585q0 8 -1 13v1l46 132h-56l-23 -68l-5 4q-29 23 -66 23h-18q-22 0 -41 -8.5
t-33.5 -23t-23 -33.5t-8.5 -41v-469q0 -8 1 -13v-1l-46 -132h56l23 68l5 -4q29 -23 66 -23h18q22 0 41 8.5t33.5 23t23 33.5t8.5 41v469zM166 105l115 333v-322q0 -20 -14.5 -34.5t-34.5 -14.5h-18q-17 0 -29.5 10t-17.5 26zM176 104q4 -12 14 -19.5t23 -7.5h18
q17 0 28.5 11.5t11.5 28.5v264zM280 596l-115 -333v322q0 20 14.5 34.5t34.5 14.5h18q17 0 29.5 -10t17.5 -26zM270 597q-4 12 -14 19.5t-23 7.5h-18q-17 0 -28.5 -11.5t-11.5 -28.5v-264z" />
    <glyph glyph-name="ugrave" unicode="&#xf9;" 
d="M299 700v-584q0 -24 -9 -45t-25 -37t-37 -25t-45 -9h-18q-24 0 -45 9t-37 25t-25 37t-9 45v584h76v-584q0 -17 11.5 -28.5t28.5 -11.5h18q17 0 28.5 11.5t11.5 28.5v584h76zM289 691h-57v-575q0 -20 -14.5 -34.5t-34.5 -14.5h-18q-20 0 -34.5 14.5t-14.5 34.5v575h-57
v-575q0 -22 8.5 -41t23 -33.5t33.5 -23t41 -8.5h18q22 0 41 8.5t33.5 23t23 33.5t8.5 41v575zM155 745l-91 136h98l71 -136h-78zM82 871l78 -116h56l-60 116h-74z" />
    <glyph glyph-name="uacute" unicode="&#xfa;" 
d="M299 700v-584q0 -24 -9 -45t-25 -37t-37 -25t-45 -9h-18q-24 0 -45 9t-37 25t-25 37t-9 45v584h76v-584q0 -17 11.5 -28.5t28.5 -11.5h18q17 0 28.5 11.5t11.5 28.5v584h76zM289 691h-57v-575q0 -20 -14.5 -34.5t-34.5 -14.5h-18q-20 0 -34.5 14.5t-14.5 34.5v575h-57
v-575q0 -22 8.5 -41t23 -33.5t33.5 -23t41 -8.5h18q22 0 41 8.5t33.5 23t23 33.5t8.5 41v575zM192 745h-77l71 136h98zM187 755l78 116h-74l-60 -116h56z" />
    <glyph glyph-name="ucircumflex" unicode="&#xfb;" 
d="M299 700v-584q0 -24 -9 -45t-25 -37t-37 -25t-45 -9h-18q-24 0 -45 9t-37 25t-25 37t-9 45v584h76v-584q0 -17 11.5 -28.5t28.5 -11.5h18q17 0 28.5 11.5t11.5 28.5v584h76zM289 691h-57v-575q0 -20 -14.5 -34.5t-34.5 -14.5h-18q-20 0 -34.5 14.5t-14.5 34.5v575h-57
v-575q0 -22 8.5 -41t23 -33.5t33.5 -23t41 -8.5h18q22 0 41 8.5t33.5 23t23 33.5t8.5 41v575zM141 736h-79l112 159l112 -159h-79l-33 46zM134 746l38 53l38 -53h56l-93 132l-93 -132h54z" />
    <glyph glyph-name="udieresis" unicode="&#xfc;" horiz-adv-x="400" 
d="M248 700h76v-584q0 -24 -9 -45t-25 -37t-37 -25t-45 -9h-18q-24 0 -45 9t-37 25t-25 37t-9 45v584h76v-584q0 -17 11.5 -28.5t28.5 -11.5h18q17 0 28.5 11.5t11.5 28.5v584zM257 691v-575q0 -20 -14.5 -34.5t-34.5 -14.5h-18q-20 0 -34.5 14.5t-14.5 34.5v575h-57v-575
q0 -22 8.5 -41t23 -33.5t33.5 -23t41 -8.5h18q22 0 41 8.5t33.5 23t23 33.5t8.5 41v575h-57zM144 766h-95v95h95v-95zM134 852h-76v-76h76v76zM348 862v-95h-95v95h95zM338 852h-76v-76h76v76z" />
    <glyph glyph-name="yacute" unicode="&#xfd;" horiz-adv-x="390" 
d="M340 700l-107 -389v-311h-76v311l-107 389h81l64 -244l64 244h81zM327 690h-60l-72 -273l-72 273h-60l104 -378v-303h57v303v1zM211 744h-77l71 136h98zM206 754l78 116h-74l-60 -116h56z" />
    <glyph glyph-name="ydieresis" unicode="&#xff;" horiz-adv-x="400" 
d="M264 700h81l-107 -389v-311h-76v311l-107 389h81l64 -244zM271 690l-72 -273l-72 273h-60l104 -378v-303h57v303v1l104 377h-61zM145 765h-95v95h95v-95zM135 851h-76v-76h76v76zM349 861v-95h-95v95h95zM339 851h-76v-76h76v76z" />
    <glyph glyph-name="OE" unicode="&#x152;" horiz-adv-x="559" 
d="M344 623v-236h133v-76h-133v-236h165v-76h-241v36q-34 -36 -84 -36h-18q-24 0 -45 9t-37 25t-25 37t-9 45v469q0 24 9 45t25 37t37 25t45 9h18q50 0 84 -36v36h241v-76zM468 376h-133v255h165v57h-222v-54l-9 12q-15 20 -37 31.5t-48 11.5h-18q-22 0 -41 -8.5t-33.5 -23
t-23 -33.5t-8.5 -41v-469q0 -22 8.5 -41t23 -33.5t33.5 -23t41 -8.5h18q26 0 48 11.5t37 31.5l9 12v-54h222v57h-165v255h133v55zM184 631q20 0 34.5 -14.5t14.5 -34.5v-469q0 -20 -14.5 -34.5t-34.5 -14.5h-18q-20 0 -34.5 14.5t-14.5 34.5v469q0 20 14.5 34.5t34.5 14.5
h18zM224 582q0 17 -11.5 28.5t-28.5 11.5h-18q-17 0 -28.5 -11.5t-11.5 -28.5v-469q0 -17 11.5 -28.5t28.5 -11.5h18q17 0 28.5 11.5t11.5 28.5v469z" />
    <glyph glyph-name="oe" unicode="&#x153;" horiz-adv-x="559" 
d="M344 623v-236h133v-76h-133v-236h165v-76h-241v36q-34 -36 -84 -36h-18q-24 0 -45 9t-37 25t-25 37t-9 45v469q0 24 9 45t25 37t37 25t45 9h18q50 0 84 -36v36h241v-76zM468 376h-133v255h165v57h-222v-54l-9 12q-15 20 -37 31.5t-48 11.5h-18q-22 0 -41 -8.5t-33.5 -23
t-23 -33.5t-8.5 -41v-469q0 -22 8.5 -41t23 -33.5t33.5 -23t41 -8.5h18q26 0 48 11.5t37 31.5l9 12v-54h222v57h-165v255h133v55zM184 631q20 0 34.5 -14.5t14.5 -34.5v-469q0 -20 -14.5 -34.5t-34.5 -14.5h-18q-20 0 -34.5 14.5t-14.5 34.5v469q0 20 14.5 34.5t34.5 14.5
h18zM224 582q0 17 -11.5 28.5t-28.5 11.5h-18q-17 0 -28.5 -11.5t-11.5 -28.5v-469q0 -17 11.5 -28.5t28.5 -11.5h18q17 0 28.5 11.5t11.5 28.5v469z" />
    <glyph glyph-name="Scaron" unicode="&#x160;" 
d="M223 500v84q0 17 -11.5 28.5t-28.5 11.5h-18q-17 0 -28.5 -11.5t-11.5 -28.5v-133q0 -21 16 -32l108 -77q23 -17 35.5 -41.5t12.5 -52.5v-133q0 -24 -9 -45t-25 -37t-37 -25t-45 -9h-18q-24 0 -45 9t-37 25t-25 37t-9 45v84h76v-84q0 -17 11.5 -28.5t28.5 -11.5h18
q17 0 28.5 11.5t11.5 28.5v133q0 21 -16 32l-108 77q-23 17 -35.5 41.5t-12.5 52.5v133q0 24 9 45t25 37t37 25t45 9h18q24 0 45 -9t37 -25t25 -37t9 -45v-84h-76zM183 633q20 0 34.5 -14.5t14.5 -34.5v-74h57v74q0 22 -8.5 41t-23 33.5t-33.5 23t-41 8.5h-18
q-22 0 -41 -8.5t-33.5 -23t-23 -33.5t-8.5 -41v-133q0 -26 12 -48.5t33 -37.5l108 -77q21 -15 21 -40v-133q0 -20 -14.5 -34.5t-34.5 -14.5h-18q-20 0 -34.5 14.5t-14.5 34.5v74h-57v-74q0 -22 8.5 -41t23 -33.5t33.5 -23t41 -8.5h18q22 0 41 8.5t33.5 23t23 33.5t8.5 41
v133q0 26 -12 48.5t-33 37.5l-108 77q-21 15 -21 40v133q0 20 14.5 34.5t34.5 14.5h18zM174 731l-112 159h79l33 -46l33 46h79zM82 880l93 -132l93 132h-56l-38 -53l-38 53h-54z" />
    <glyph glyph-name="scaron" unicode="&#x161;" 
d="M223 500v84q0 17 -11.5 28.5t-28.5 11.5h-18q-17 0 -28.5 -11.5t-11.5 -28.5v-133q0 -21 16 -32l108 -77q23 -17 35.5 -41.5t12.5 -52.5v-133q0 -24 -9 -45t-25 -37t-37 -25t-45 -9h-18q-24 0 -45 9t-37 25t-25 37t-9 45v84h76v-84q0 -17 11.5 -28.5t28.5 -11.5h18
q17 0 28.5 11.5t11.5 28.5v133q0 21 -16 32l-108 77q-23 17 -35.5 41.5t-12.5 52.5v133q0 24 9 45t25 37t37 25t45 9h18q24 0 45 -9t37 -25t25 -37t9 -45v-84h-76zM183 633q20 0 34.5 -14.5t14.5 -34.5v-74h57v74q0 22 -8.5 41t-23 33.5t-33.5 23t-41 8.5h-18
q-22 0 -41 -8.5t-33.5 -23t-23 -33.5t-8.5 -41v-133q0 -26 12 -48.5t33 -37.5l108 -77q21 -15 21 -40v-133q0 -20 -14.5 -34.5t-34.5 -14.5h-18q-20 0 -34.5 14.5t-14.5 34.5v74h-57v-74q0 -22 8.5 -41t23 -33.5t33.5 -23t41 -8.5h18q22 0 41 8.5t33.5 23t23 33.5t8.5 41
v133q0 26 -12 48.5t-33 37.5l-108 77q-21 15 -21 40v133q0 20 14.5 34.5t34.5 14.5h18zM174 731l-112 159h79l33 -46l33 46h79zM82 880l93 -132l93 132h-56l-38 -53l-38 53h-54z" />
    <glyph glyph-name="Ydieresis" unicode="&#x178;" horiz-adv-x="400" 
d="M264 700h81l-107 -389v-311h-76v311l-107 389h81l64 -244zM271 690l-72 -273l-72 273h-60l104 -378v-303h57v303v1l104 377h-61zM145 765h-95v95h95v-95zM135 851h-76v-76h76v76zM349 861v-95h-95v95h95zM339 851h-76v-76h76v76z" />
    <glyph glyph-name="Zcaron" unicode="&#x17d;" 
d="M299 627l-171 -551h171v-76h-249v72v1l171 551h-171v76h249v-72v-1zM290 690h-230v-57h175l-175 -563v-61h230v57h-175l175 563v61zM175 731l-112 159h79l33 -46l33 46h79zM83 880l93 -132l93 132h-56l-38 -53l-38 53h-54z" />
    <glyph glyph-name="uni2c5" unicode="&#x2c5;" horiz-adv-x="324" 
d="M162 658l33 46h79l-112 -159l-112 159h79zM162 642l-38 53h-55l93 -132l93 132h-55z" />
    <glyph glyph-name="beta" unicode="&#x3b2;" 
d="M299 635v-157q0 -44 -30 -77q30 -33 30 -77v-157q0 -24 -9 -45t-25 -37t-37 -25t-45 -9h-33v76h34q17 0 28.5 11.5t11.5 28.5v157q0 17 -11.5 28.5t-28.5 11.5h-34v76h33q17 0 28.5 11.5t11.5 28.5v157q0 17 -11.5 28.5t-28.5 11.5h-18q-17 0 -28.5 -11.5t-11.5 -28.5
v-637h-76v637q0 24 9 45t25 37t37 25t45 9h18q24 0 45 -9t37 -25t25 -37t9 -45v-2zM289 479v157q0 22 -8.5 41t-23 33.5t-33.5 23t-41 8.5h-18q-22 0 -41 -8.5t-33.5 -23t-23 -33.5t-8.5 -41v-627h57v627q0 20 14.5 34.5t34.5 14.5h18q20 0 34.5 -14.5t14.5 -34.5v-157
q0 -20 -14.5 -34.5t-34.5 -14.5h-24v-57h24q20 0 34.5 -14.5t14.5 -34.5v-157q0 -20 -14.5 -34.5t-34.5 -14.5h-24v-57h24q22 0 41 8.5t33.5 23t23 33.5t8.5 41v157q0 43 -31 74l-3 3l3 3q31 31 31 74v1z" />
    <glyph glyph-name="endash" unicode="&#x2013;" horiz-adv-x="572" 
d="M522 382v-77h-472v77h472zM512 372h-452v-57h452v57z" />
    <glyph glyph-name="emdash" unicode="&#x2014;" horiz-adv-x="798" 
d="M748 398v-77h-698v77h698zM738 388h-679v-57h679v57z" />
    <glyph glyph-name="quoteleft" unicode="&#x2018;" horiz-adv-x="226" 
d="M177 703l-31 -110v-70h-95v71q0 3 2 9h-1l3 4q0 2 1 3l66 94zM164 693h-37l-59 -84h1l-5 -6q-3 -5 -3 -9v-61h76v62z" />
    <glyph glyph-name="quoteright" unicode="&#x2019;" horiz-adv-x="226" 
d="M175 634q0 -3 -2 -9h1l-3 -4q0 -2 -1 -3l-66 -94h-54l31 110v70h95zM166 696h-76v-62l-28 -99h37l59 84h-1l5 6q3 4 3 9z" />
    <glyph glyph-name="quotesinglbase" unicode="&#x201a;" horiz-adv-x="226" 
d="M175 12q0 -3 -2 -9h1l-3 -4q0 -2 -1 -3l-66 -94h-54l31 110v70h95zM166 74h-76v-62l-28 -99h37l59 84h-1l5 6q3 4 3 9z" />
    <glyph glyph-name="quotedblleft" unicode="&#x201c;" horiz-adv-x="384" 
d="M122 699h54l-31 -110v-70h-95v71q0 3 2 9h-1l3 4q0 2 1 3zM126 688l-59 -84h1l-5 -6q-3 -5 -3 -9v-61h76v62l28 99zM334 697l-31 -110v-70h-95v71q0 3 2 9h-1l3 4q0 2 1 3l66 94zM321 687h-37l-59 -84h1l-5 -6q-3 -5 -3 -9v-61h76v62z" />
    <glyph glyph-name="quotedblright" unicode="&#x201d;" horiz-adv-x="384" 
d="M332 631q0 -6 -1 -9h1l-3 -5q0 -2 -1 -3l-66 -94h-54l31 110v70h95zM322 693h-76v-62l-28 -99h37l59 83h-1l6 7q3 4 3 9v62zM76 705h95v-71q0 -6 -1 -9h1l-3 -5q0 -2 -1 -3l-66 -94h-54l31 110zM86 634l-28 -99h37l59 83h-1l6 7q3 4 3 9v61h-76v-61z" />
    <glyph glyph-name="quotedblbase" unicode="&#x201e;" horiz-adv-x="384" 
d="M333 12q0 -3 -2 -9h1l-3 -4q0 -2 -1 -3l-66 -94h-54l31 110v70h95zM324 13v61h-76v-62l-28 -99h37l59 84h-1l5 6q3 4 3 9zM79 85h95v-71q0 -3 -2 -9h1l-3 -4q0 -2 -1 -3l-66 -94h-54l31 110zM90 76v-62l-28 -99h37l59 84h-1l5 6q3 4 3 9v61z" />
    <glyph glyph-name="dagger" unicode="&#x2020;" horiz-adv-x="421" 
d="M372 481v-76h-123v-325h-76v325h-123v76h123v134h76v-134h123zM362 472h-123v134h-57v-134h-123v-57h123v-325h57v325h123v57z" />
    <glyph glyph-name="bullet" unicode="&#x2022;" horiz-adv-x="382" 
d="M191 492q29 0 55 -11t45 -30t30 -45t11 -55t-11 -55t-30 -45t-45 -30t-55 -11t-55 11t-45 30t-30 45t-11 55t11 55t30 45t45 30t55 11zM191 219q27 0 51 10.5t42 28.5t28.5 42t10.5 51t-10.5 51t-28.5 42t-42 28.5t-51 10.5t-51 -10.5t-42 -28.5t-28.5 -42t-10.5 -51
t10.5 -51t28.5 -42t42 -28.5t51 -10.5z" />
    <glyph glyph-name="ellipsis" unicode="&#x2026;" horiz-adv-x="604" 
d="M50 93h95v-95h-95v95zM60 7h76v76h-76v-76zM459 92h95v-95h-95v95zM545 82h-76v-76h76v76zM255 91h95v-95h-95v95zM265 5h76v76h-76v-76z" />
    <glyph glyph-name="Euro" unicode="&#x20ac;" horiz-adv-x="416" 
d="M290 489v84q0 17 -11.5 28.5t-28.5 11.5h-18q-17 0 -28.5 -11.5t-11.5 -28.5v-140h105v-64h-105v-61h105v-64h-105v-140q0 -17 11.5 -28.5t28.5 -11.5h18q17 0 28.5 11.5t11.5 28.5v84h76v-84q0 -24 -9 -45t-25 -37t-37 -25t-45 -9h-18q-24 0 -45 9t-37 25t-25 37t-9 45
v140h-67v64h67v61h-67v64h67v140q0 24 9 45t25 37t37 25t45 9h18q24 0 45 -9t37 -25t25 -37t9 -45v-84h-76zM250 620q20 0 34.5 -14.5t14.5 -34.5v-74h57v74q0 22 -8.5 41t-23 33.5t-33.5 23t-41 8.5h-18q-22 0 -41 -8.5t-33.5 -23t-23 -33.5t-8.5 -41v-149h-67v-45h67v-80
h-67v-45h67v-149q0 -22 8.5 -41t23 -33.5t33.5 -23t41 -8.5h18q22 0 41 8.5t33.5 23t23 33.5t8.5 41v74h-57v-74q0 -20 -14.5 -34.5t-34.5 -14.5h-18q-20 0 -34.5 14.5t-14.5 34.5v150h105v45h-105v80h105v45h-105v150q0 20 14.5 34.5t34.5 14.5h18v-2z" />
    <glyph glyph-name="quoteleft.alt1" unicode="&#xf001;" horiz-adv-x="226" 
d="M177 703l-31 -110v-70h-95v71q0 3 2 9h-1l3 4q0 2 1 3l66 94zM164 693h-37l-59 -84h1l-5 -6q-3 -5 -3 -9v-61h76v62z" />
    <glyph glyph-name="quotedblleft.alt1" unicode="&#xf002;" horiz-adv-x="384" 
d="M122 703h54l-31 -110v-70h-95v71q0 3 2 9h-1l3 4q0 2 1 3zM126 692l-59 -84h1l-5 -6q-3 -5 -3 -9v-61h76v62l28 99zM334 701l-31 -110v-70h-95v71q0 3 2 9h-1l3 4q0 2 1 3l66 94zM321 691h-37l-59 -84h1l-5 -6q-3 -5 -3 -9v-61h76v62z" />
    <glyph glyph-name="controlCR" horiz-adv-x="0" 
 />
    </font>
</defs>
</svg>
